<svg xmlns="http://www.w3.org/2000/svg" width="57" height="33.933" viewBox="0 0 57 33.933">
  <g id="_777_icon" data-name="777 icon" transform="translate(10745.5 -6844.193)">
    <rect id="Rectangle_170" data-name="Rectangle 170" width="45.233" height="31.558" rx="2" transform="translate(-10745 6846.068)" fill="none" stroke="#fe4141" stroke-width="1"/>
    <line id="Line_56" data-name="Line 56" x2="45.196" transform="translate(-10745 6850.124)" fill="none" stroke="#fe4141" stroke-width="1.5"/>
    <line id="Line_57" data-name="Line 57" x2="45.196" transform="translate(-10745 6873.302)" fill="none" stroke="#fe4141" stroke-width="1.5"/>
    <path id="Path_239" data-name="Path 239" d="M-10738.76,6854.827h6.86a36.5,36.5,0,0,0-2.741,5.534,20.053,20.053,0,0,0-1.139,5.844" transform="translate(0.99 1.47)" fill="none" stroke="#fe4141" stroke-linecap="round" stroke-linejoin="round" stroke-width="1.5"/>
    <path id="Path_240" data-name="Path 240" d="M-10738.76,6854.827h6.86a36.5,36.5,0,0,0-2.741,5.534,20.053,20.053,0,0,0-1.139,5.844" transform="translate(12.579 1.47)" fill="none" stroke="#fe4141" stroke-linecap="round" stroke-linejoin="round" stroke-width="1.5"/>
    <path id="Path_241" data-name="Path 241" d="M-10738.76,6854.827h6.86a36.5,36.5,0,0,0-2.741,5.534,20.053,20.053,0,0,0-1.139,5.844" transform="translate(24.168 1.47)" fill="none" stroke="#fe4141" stroke-linecap="round" stroke-linejoin="round" stroke-width="1.5"/>
    <path id="Path_242" data-name="Path 242" d="M212.207,133.9h-3.319a.515.515,0,0,1-.515-.514V117.463a.515.515,0,0,1,.515-.514h3.319a1.752,1.752,0,0,1,1.75,1.75v13.448A1.752,1.752,0,0,1,212.207,133.9Zm-2.8-1.029h2.8a.722.722,0,0,0,.721-.721V118.7a.722.722,0,0,0-.721-.721h-2.8Z" transform="translate(-10908.596 6737.424)" fill="#fe4141"/>
    <path id="Path_243" data-name="Path 243" d="M230.091,109.305h-3.5a.515.515,0,0,1-.514-.514v-2.47a.515.515,0,0,1,.514-.515h1.75v-12.4a.515.515,0,0,1,.514-.514h2.471a.515.515,0,0,1,.514.514v14.147A1.752,1.752,0,0,1,230.091,109.305Zm-2.986-1.029h2.986a.722.722,0,0,0,.721-.721V93.923h-1.442v12.4a.514.514,0,0,1-.514.514h-1.75Z" transform="translate(-10921.744 6755.246)" fill="#fe4141"/>
    <circle id="Ellipse_69" data-name="Ellipse 69" cx="2.654" cy="2.654" r="2.654" transform="translate(-10694.308 6844.693)" fill="#232a33" stroke="#fe4141" stroke-width="1"/>
  </g>
</svg>
