<svg xmlns="http://www.w3.org/2000/svg" width="52.359" height="40.515" viewBox="0 0 52.359 40.515">
  <g id="_777_games_icon" data-name="777 games icon" transform="translate(-787.814 -1348.433)">
    <g id="Group_117" data-name="Group 117" transform="translate(788.809 1361.016) rotate(-22)">
      <path id="Path_46" data-name="Path 46" d="M5.163.894C3.933,1.316,3.839.021,2.338,0A3,3,0,0,0,0,1.788L.077,7.213S.814,8.6,1.832,8.724a1.932,1.932,0,0,0,1.831-.681c.313-.341.928-1.6,1.93-1.961a5.965,5.965,0,0,1,2.622,0,7.871,7.871,0,0,0,3.2,1.259A10.016,10.016,0,0,0,15.1,6.894a45.535,45.535,0,0,0-5.788,4.575,18.378,18.378,0,0,0-3.369,4.477,32.272,32.272,0,0,0-2.354,5.1,10.07,10.07,0,0,0-.728,4.854,2.145,2.145,0,0,0,1.283,2.064L11.516,28s1.353-.558,1.6-1.575-.254-2.557-.254-4.766a22.3,22.3,0,0,1,.492-4.359,17.437,17.437,0,0,1,2.2-4.62c1.466-2.068,2.51-1.9,3.644-3.787s.74-3.377.74-5.446S19.814,1.253,18.7.359,15.6.8,15.247.894A15.466,15.466,0,0,1,12.524.346S10.5-.681,5.163.894Z" transform="translate(0 0)" fill="none" stroke="#55c12f" stroke-linejoin="round" stroke-width="1.5"/>
      <line id="Line_16" data-name="Line 16" y2="4.158" transform="translate(3.09 3.927)" fill="none" stroke="#55c12f" stroke-linecap="round" stroke-width="1"/>
      <path id="Path_47" data-name="Path 47" d="M0,1.125s6.007-2.531,10.011,0" transform="translate(4.956 2.802)" fill="none" stroke="#55c12f" stroke-linecap="round" stroke-width="1"/>
      <path id="Path_48" data-name="Path 48" d="M1.069,0S-.756,6.006.363,6.065s5.3,0,5.3,0" transform="translate(5.221 18.542)" fill="none" stroke="#55c12f" stroke-linecap="round" stroke-linejoin="round" stroke-width="1"/>
    </g>
    <g id="Group_118" data-name="Group 118" transform="translate(820.65 1354.524) rotate(22)">
      <path id="Path_46-2" data-name="Path 46" d="M5.163.894C3.933,1.316,3.839.021,2.338,0A3,3,0,0,0,0,1.788L.077,7.213S.814,8.6,1.832,8.724a1.932,1.932,0,0,0,1.831-.681c.313-.341.928-1.6,1.93-1.961a5.965,5.965,0,0,1,2.622,0,7.871,7.871,0,0,0,3.2,1.259A10.016,10.016,0,0,0,15.1,6.894a45.535,45.535,0,0,0-5.788,4.575,18.378,18.378,0,0,0-3.369,4.477,32.272,32.272,0,0,0-2.354,5.1,10.07,10.07,0,0,0-.728,4.854,2.145,2.145,0,0,0,1.283,2.064L11.516,28s1.353-.558,1.6-1.575-.254-2.557-.254-4.766a22.3,22.3,0,0,1,.492-4.359,17.437,17.437,0,0,1,2.2-4.62c1.466-2.068,2.51-1.9,3.644-3.787s.74-3.377.74-5.446S19.814,1.253,18.7.359,15.6.8,15.247.894A15.466,15.466,0,0,1,12.524.346S10.5-.681,5.163.894Z" transform="translate(0 0)" fill="none" stroke="#55c12f" stroke-linejoin="round" stroke-width="1.5"/>
      <line id="Line_16-2" data-name="Line 16" y2="4.158" transform="translate(3.09 3.927)" fill="none" stroke="#55c12f" stroke-linecap="round" stroke-width="1"/>
      <path id="Path_47-2" data-name="Path 47" d="M0,1.125s6.007-2.531,10.011,0" transform="translate(4.956 2.802)" fill="none" stroke="#55c12f" stroke-linecap="round" stroke-width="1"/>
      <path id="Path_48-2" data-name="Path 48" d="M1.069,0S-.756,6.006.363,6.065s5.3,0,5.3,0" transform="translate(5.221 18.542)" fill="none" stroke="#55c12f" stroke-linecap="round" stroke-linejoin="round" stroke-width="1"/>
    </g>
    <g id="Group_119" data-name="Group 119" transform="translate(802.515 1349.25)">
      <path id="Path_46-3" data-name="Path 46" d="M-10067.733,5042.125c-1.538.532-1.656-1.1-3.532-1.126a3.765,3.765,0,0,0-2.922,2.252l.1,6.834s.921,1.744,2.193,1.9a2.406,2.406,0,0,0,2.289-.857c.39-.429,1.159-2.02,2.411-2.471a7.412,7.412,0,0,1,3.278,0,9.788,9.788,0,0,0,4,1.586,12.431,12.431,0,0,0,4.6-.563,57.077,57.077,0,0,0-7.234,5.763,23.147,23.147,0,0,0-4.211,5.64,40.768,40.768,0,0,0-2.942,6.418c-.951,2.944-1.083,3.936-.909,6.114s1.6,2.6,1.6,2.6l9.21.053s1.689-.7,2-1.984-.317-3.221-.317-6a28.344,28.344,0,0,1,.614-5.491,22.065,22.065,0,0,1,2.747-5.82c1.832-2.605,3.137-2.394,4.555-4.771s.925-4.254.925-6.861-.149-2.764-1.538-3.89-3.88.55-4.32.673a19.233,19.233,0,0,1-3.4-.69S-10061.059,5040.142-10067.733,5042.125Z" transform="translate(10074.188 -5041)" fill="#14191e" stroke="#55c12f" stroke-linejoin="round" stroke-width="1.5"/>
      <line id="Line_16-3" data-name="Line 16" y2="4.158" transform="translate(3.09 3.927)" fill="none" stroke="#55c12f" stroke-linecap="round" stroke-width="1"/>
      <path id="Path_47-3" data-name="Path 47" d="M-10053.112,5048.189s6.007-2.531,10.011,0" transform="translate(10060.549 -5044.263)" fill="none" stroke="#55c12f" stroke-linecap="round" stroke-width="1"/>
      <path id="Path_48-3" data-name="Path 48" d="M-10056.907,5102.776s-1.825,6.006-.706,6.065,5.3,0,5.3,0" transform="translate(10065.018 -5076.963)" fill="none" stroke="#55c12f" stroke-linecap="round" stroke-linejoin="round" stroke-width="1"/>
    </g>
  </g>
</svg>
