<svg xmlns="http://www.w3.org/2000/svg" width="50" height="21.275" viewBox="0 0 50 21.275">
    <path id="prefix__logo_apple_pay_defec6b8661e497bfde467f7dffd7c23" d="M8.912 2.743A3.832 3.832 0 0 0 9.785 0 3.958 3.958 0 0 0 7.25 1.288a3.608 3.608 0 0 0-.914 2.617 2.978 2.978 0 0 0 2.576-1.162m.874 1.412c-1.414-.084-2.617.79-3.283.79S4.8 4.2 3.677 4.2A4.171 4.171 0 0 0 .144 6.359c-1.5 2.617-.416 6.483 1.08 8.6.706 1.04 1.58 2.2 2.7 2.162 1.08-.042 1.5-.706 2.783-.706s1.662.706 2.825.664 1.912-1.04 2.617-2.12a8.38 8.38 0 0 0 1.164-2.409 3.765 3.765 0 0 1-.458-6.69 3.861 3.861 0 0 0-3.07-1.705M22 1.206a4.941 4.941 0 0 1 5.2 5.153 5 5 0 0 1-5.277 5.195h-3.372v5.361H16.1V1.206zm-3.449 8.31h2.783c2.12 0 3.325-1.164 3.325-3.117 0-2-1.206-3.117-3.325-3.117h-2.823v6.232h.04zm9.268 4.2c0-2 1.538-3.241 4.279-3.407l3.157-.166v-.875c0-1.288-.872-2.036-2.285-2.036a2.192 2.192 0 0 0-2.409 1.662h-2.244c.124-2.078 1.912-3.615 4.737-3.615 2.783 0 4.571 1.454 4.571 3.781v7.894h-2.243v-1.87h-.042a4.072 4.072 0 0 1-3.615 2.078c-2.327 0-3.905-1.414-3.905-3.449zm7.438-1.04v-.914l-2.825.166c-1.414.084-2.2.706-2.2 1.7s.832 1.662 2.078 1.662a2.746 2.746 0 0 0 2.949-2.617zm4.443 8.515V19.28a4.468 4.468 0 0 0 .748.042 1.922 1.922 0 0 0 2.036-1.62c0-.042.208-.706.208-.706L38.539 5.527h2.535l2.909 9.35h.042l2.909-9.35h2.491l-4.278 12.091c-1 2.783-2.12 3.657-4.487 3.657-.168-.042-.75-.042-.96-.084z" transform="translate(.574)" style="fill:#fff;opacity:.5"/>
</svg>
