<svg xmlns="http://www.w3.org/2000/svg" xmlns:xlink="http://www.w3.org/1999/xlink" width="280" height="168" viewBox="0 0 280 168">
  <defs>
    <filter id="Subtraction_4" x="97.326" y="40.59" width="92.674" height="116.032" filterUnits="userSpaceOnUse">
      <feOffset input="SourceAlpha"/>
      <feGaussianBlur stdDeviation="5" result="blur"/>
      <feFlood flood-color="#fe4141" flood-opacity="0.302"/>
      <feComposite operator="in" in2="blur"/>
      <feComposite in="SourceGraphic"/>
    </filter>
  </defs>
  <g id="hot_slot" data-name="hot slot" transform="translate(-1417 -1543)">
    <g id="hotslot-big" transform="translate(1366.316 995)" opacity="0.3">
      <path id="Path_106" data-name="Path 106" d="M-10362.039,7252.83l-3.139-1.434a45.039,45.039,0,0,1,6.635-5.107,18.332,18.332,0,0,1,6.215-2.178,13.939,13.939,0,0,1,7.629.773c4.055,1.611,5.627,3.754,9.178,8.564a31.686,31.686,0,0,1,5.3,12.111c.262,1.252,1.1,4.389,1.758,6.525.389,1.271.256,1.371,1.869,3.182,3.83,4.295,11.223,4.963,11.42,6.033s-11.211.111-11.211.111.115,3.719-.8,3.852-2.867-3.314-2.867-3.314a10.41,10.41,0,0,1-4.555,3.314c-2.869,1-6.48,1.818-6.689,1.512s8.029-9.068,8.961-11.016.607-5.02-.225-9.041-3.473-9.258-7.324-14.207a15.619,15.619,0,0,0-9.094-5.75,13.99,13.99,0,0,0-6.527,1.1A21.148,21.148,0,0,0-10362.039,7252.83Z" transform="translate(10514.889 -6680.893)" fill="#fe4141"/>
      <g transform="matrix(1, 0, 0, 1, 50.68, 548)" filter="url(#Subtraction_4)">
        <path id="Subtraction_4-2" data-name="Subtraction 4" d="M48.779,86.032c-4.178,0-6.681-1.149-11.225-3.235l-.2-.09-.578-.265a20.162,20.162,0,0,1-5.174-3.162,32.921,32.921,0,0,1-3.789-4.261l-.061-.076c-.613-.765-1.307-1.631-2.116-2.605a62.062,62.062,0,0,1-5.791-8.521c-1.413-2.465-2.274-4.284-2.283-4.3l-.005-.011-.006-.01a55.875,55.875,0,0,1-3.8-8.595c-1.8-5.076-3.611-12.088-3.812-12.871l0-.01-.537,0A24.336,24.336,0,0,0,8.913,41.5a28.644,28.644,0,0,0,.492,8.058,43.682,43.682,0,0,0,3.106,8.712c.427.916.879,1.829,1.346,2.715-.788-.732-1.572-1.5-2.332-2.287A46.127,46.127,0,0,1,5.3,50.846,38.056,38.056,0,0,1,1.62,42.2a37.739,37.739,0,0,1-.988-4.155v-.021a32.248,32.248,0,0,1-.575-4.752A32.657,32.657,0,0,1,1.092,22.86c.138-.484.269-.948.39-1.38C3.338,14.9,4.105,12.179,9.23,7.739c4.945-4.284,7.6-5.457,12.335-5.457.6,0,1.248.019,1.984.059A10.329,10.329,0,0,1,27.7,3.513a15.316,15.316,0,0,1,3.248,2.278,18.9,18.9,0,0,1,2.861,3.232l0,0,.014.023.019.019a20.218,20.218,0,0,1,1.922,2.426,29.628,29.628,0,0,1,3.481,6.792c2.071,5.795,2.934,14.541,2.942,14.627h.551a75.1,75.1,0,0,0,0-12.972l-.038-.338v-.009q-.026-.229-.05-.446c-.581-5.2-.581-5.2-2.6-10.149a38.971,38.971,0,0,0-3.691-6.756C35.7,1.259,35.118.48,34.749,0c1.04.25,2.673.682,4.552,1.319a33.655,33.655,0,0,1,9.448,4.727,16.994,16.994,0,0,1,3.365,3.541,20.413,20.413,0,0,1,2.05,3.62,19.406,19.406,0,0,1,1.292,3.958v0a55.22,55.22,0,0,1,.8,11.58A35.767,35.767,0,0,1,55.3,35.6l0,.011c-.269,1.219-.575,2.6-.941,4.784-.331,1.971-.679,3.4-.986,4.669l0,.008a24.166,24.166,0,0,0-.866,8.213,26.071,26.071,0,0,0,2.687,9.992,11.941,11.941,0,0,1-1.809-.727,12.3,12.3,0,0,1-4.486-3.793c-2.765-3.845-4.525-10.809-4.6-11.1l-.539.007a28.23,28.23,0,0,0-.465,3.654,32.694,32.694,0,0,0,.464,8.365c1.217,6.2,2.6,9.931,7.556,15.609A26.309,26.309,0,0,0,59.2,81.262a27.946,27.946,0,0,0,3.475,1.478c-.686.3-1.787.765-3.138,1.243a35.416,35.416,0,0,1-8.315,1.933C50.337,85.994,49.538,86.032,48.779,86.032ZM18.706,28.153a37.024,37.024,0,0,0,.024,5.284,54.66,54.66,0,0,0,2.453,12.882c3.2,10.016,5.905,14.732,5.932,14.779a93.615,93.615,0,0,0-2.438-16.991A91.721,91.721,0,0,0,18.706,28.153Z" transform="translate(112.33 55.59)" fill="#fe4141"/>
      </g>
    </g>
    <g id="Rectangle_340" data-name="Rectangle 340" transform="translate(1417 1543)" fill="none" stroke="#38414b" stroke-linecap="round" stroke-width="2" stroke-dasharray="5" opacity="0.4">
      <rect width="280" height="168" rx="5" stroke="none"/>
      <rect x="1" y="1" width="278" height="166" rx="4" fill="none"/>
    </g>
  </g>
</svg>
