<svg xmlns="http://www.w3.org/2000/svg" width="50.416" height="53.113" viewBox="0 0 50.416 53.113">
  <g id="card-categ-icon" transform="translate(-1339 -623.714)">
    <g id="liveplay-icon" transform="matrix(0.766, -0.643, 0.643, 0.766, 1339, 645.574)">
      <g id="Subtraction_3" data-name="Subtraction 3" transform="translate(0 0)" fill="#1a212a" stroke-linejoin="round">
        <path d="M 26.79777717590332 39.79780197143555 L 2.999997615814209 39.79780197143555 C 1.897197604179382 39.79780197143555 0.999997615814209 38.90060043334961 0.999997615814209 37.79780197143555 L 0.999997615814209 3.000000953674316 C 0.999997615814209 1.89720094203949 1.897197604179382 1.000000953674316 2.999997615814209 1.000000953674316 L 26.79777717590332 1.000000953674316 C 27.90057754516602 1.000000953674316 28.79777717590332 1.89720094203949 28.79777717590332 3.000000953674316 L 28.79777717590332 37.79780197143555 C 28.79777717590332 38.90060043334961 27.90057754516602 39.79780197143555 26.79777717590332 39.79780197143555 Z" stroke="none"/>
        <path d="M 2.999998092651367 2 C 2.448596954345703 2 1.999998092651367 2.448600769042969 1.999998092651367 3 L 1.999998092651367 37.79780197143555 C 1.999998092651367 38.34920120239258 2.448596954345703 38.79780197143555 2.999998092651367 38.79780197143555 L 26.79777717590332 38.79780197143555 C 27.34917831420898 38.79780197143555 27.79777717590332 38.34920120239258 27.79777717590332 37.79780197143555 L 27.79777717590332 3 C 27.79777717590332 2.448600769042969 27.34917831420898 2 26.79777717590332 2 L 2.999998092651367 2 M 2.999998092651367 0 L 26.79777717590332 0 C 28.45462799072266 0 29.79777717590332 1.343151092529297 29.79777717590332 3 L 29.79777717590332 37.79780197143555 C 29.79777717590332 39.45465087890625 28.45462799072266 40.79780197143555 26.79777717590332 40.79780197143555 L 2.999998092651367 40.79780197143555 C 1.343147277832031 40.79780197143555 -1.9073486328125e-06 39.45465087890625 -1.9073486328125e-06 37.79780197143555 L -1.9073486328125e-06 3 C -1.9073486328125e-06 1.343151092529297 1.343147277832031 0 2.999998092651367 0 Z" stroke="none" fill="#55c12f"/>
      </g>
      <path id="Icon_feather-heart" data-name="Icon feather-heart" d="M10.888,1.043a2.832,2.832,0,0,0-4.391,0l-.6.686-.6-.686a2.833,2.833,0,0,0-4.391,0,3.938,3.938,0,0,0,0,5.034l.6.686L5.9,11.8,10.29,6.763l.6-.686a3.937,3.937,0,0,0,0-5.034Z" transform="translate(8.601 14.542)" fill="none" stroke="#55c12f" stroke-linecap="round" stroke-linejoin="round" stroke-width="1"/>
    </g>
    <g id="liveplay-icon-2" data-name="liveplay-icon" transform="translate(1346.913 634.393) rotate(-21)">
      <g id="Subtraction_3-2" data-name="Subtraction 3" transform="translate(0 0)" fill="#1a212a" stroke-linejoin="round">
        <path d="M 26.79774475097656 39.79782104492188 L 3.000004291534424 39.79782104492188 C 1.897204279899597 39.79782104492188 1.000004291534424 38.90061950683594 1.000004291534424 37.79782104492188 L 1.000004291534424 3.000000476837158 C 1.000004291534424 1.897200465202332 1.897204279899597 1.000000476837158 3.000004291534424 1.000000476837158 L 26.79774475097656 1.000000476837158 C 27.90054512023926 1.000000476837158 28.79774475097656 1.897200465202332 28.79774475097656 3.000000476837158 L 28.79774475097656 37.79782104492188 C 28.79774475097656 38.90061950683594 27.90054512023926 39.79782104492188 26.79774475097656 39.79782104492188 Z" stroke="none"/>
        <path d="M 3.000003814697266 2 C 2.448604583740234 2 2.000003814697266 2.448600769042969 2.000003814697266 3 L 2.000003814697266 37.79782104492188 C 2.000003814697266 38.34922027587891 2.448604583740234 38.79782104492188 3.000003814697266 38.79782104492188 L 26.79774475097656 38.79782104492188 C 27.34914398193359 38.79782104492188 27.79774475097656 38.34922027587891 27.79774475097656 37.79782104492188 L 27.79774475097656 3 C 27.79774475097656 2.448600769042969 27.34914398193359 2 26.79774475097656 2 L 3.000003814697266 2 M 3.000003814697266 0 L 26.79774475097656 0 C 28.45460510253906 0 29.79774475097656 1.343151092529297 29.79774475097656 3 L 29.79774475097656 37.79782104492188 C 29.79774475097656 39.45466995239258 28.45460510253906 40.79782104492188 26.79774475097656 40.79782104492188 L 3.000003814697266 40.79782104492188 C 1.343143463134766 40.79782104492188 3.814697265625e-06 39.45466995239258 3.814697265625e-06 37.79782104492188 L 3.814697265625e-06 3 C 3.814697265625e-06 1.343151092529297 1.343143463134766 0 3.000003814697266 0 Z" stroke="none" fill="#55c12f"/>
      </g>
      <path id="Icon_feather-heart-2" data-name="Icon feather-heart" d="M10.888,1.043a2.832,2.832,0,0,0-4.391,0l-.6.686-.6-.686a2.833,2.833,0,0,0-4.391,0,3.938,3.938,0,0,0,0,5.034l.6.686L5.9,11.8,10.29,6.763l.6-.686a3.937,3.937,0,0,0,0-5.034Z" transform="translate(8.601 14.542)" fill="none" stroke="#55c12f" stroke-linecap="round" stroke-linejoin="round" stroke-width="1"/>
    </g>
    <g id="liveplay-icon-3" data-name="liveplay-icon" transform="translate(1359.619 624.203)">
      <g id="Subtraction_3-3" data-name="Subtraction 3" transform="translate(0 0)" fill="#1a212a" stroke-linejoin="round">
        <path d="M 26.79773902893066 39.79782485961914 L 2.999998569488525 39.79782485961914 C 1.897198557853699 39.79782485961914 0.9999985694885254 38.9006233215332 0.9999985694885254 37.79782485961914 L 0.9999985694885254 3.000004291534424 C 0.9999985694885254 1.897204279899597 1.897198557853699 1.000004291534424 2.999998569488525 1.000004291534424 L 26.79773902893066 1.000004291534424 C 27.90053939819336 1.000004291534424 28.79773902893066 1.897204279899597 28.79773902893066 3.000004291534424 L 28.79773902893066 37.79782485961914 C 28.79773902893066 38.9006233215332 27.90053939819336 39.79782485961914 26.79773902893066 39.79782485961914 Z" stroke="none"/>
        <path d="M 2.999998092651367 2.000003814697266 C 2.448598861694336 2.000003814697266 1.999998092651367 2.448604583740234 1.999998092651367 3.000003814697266 L 1.999998092651367 37.79782485961914 C 1.999998092651367 38.34922409057617 2.448598861694336 38.79782485961914 2.999998092651367 38.79782485961914 L 26.79773902893066 38.79782485961914 C 27.3491382598877 38.79782485961914 27.79773902893066 38.34922409057617 27.79773902893066 37.79782485961914 L 27.79773902893066 3.000003814697266 C 27.79773902893066 2.448604583740234 27.3491382598877 2.000003814697266 26.79773902893066 2.000003814697266 L 2.999998092651367 2.000003814697266 M 2.999998092651367 3.814697265625e-06 L 26.79773902893066 3.814697265625e-06 C 28.45458793640137 3.814697265625e-06 29.79773902893066 1.343143463134766 29.79773902893066 3.000003814697266 L 29.79773902893066 37.79782485961914 C 29.79773902893066 39.45468521118164 28.45458793640137 40.79782485961914 26.79773902893066 40.79782485961914 L 2.999998092651367 40.79782485961914 C 1.343149185180664 40.79782485961914 -1.9073486328125e-06 39.45468521118164 -1.9073486328125e-06 37.79782485961914 L -1.9073486328125e-06 3.000003814697266 C -1.9073486328125e-06 1.343143463134766 1.343149185180664 3.814697265625e-06 2.999998092651367 3.814697265625e-06 Z" stroke="none" fill="#55c12f"/>
      </g>
      <path id="Icon_feather-heart-3" data-name="Icon feather-heart" d="M13.211,5.54a2.832,2.832,0,0,0-4.391,0l-.6.686-.6-.686a2.833,2.833,0,0,0-4.391,0,3.938,3.938,0,0,0,0,5.034l.6.686L8.222,16.3l4.391-5.034.6-.686a3.937,3.937,0,0,0,0-5.034Z" transform="translate(6.278 10.045)" fill="none" stroke="#55c12f" stroke-linecap="round" stroke-linejoin="round" stroke-width="1.5"/>
    </g>
  </g>
</svg>
