<svg xmlns="http://www.w3.org/2000/svg" width="40" height="40" viewBox="0 0 40 40">
    <g id="prefix__icons8-facebook-old-50" transform="translate(-6 -6)">
        <path id="prefix__Path_193" d="M46 40.444A5.555 5.555 0 0 1 40.444 46H11.556A5.555 5.555 0 0 1 6 40.444V11.556A5.555 5.555 0 0 1 11.556 6h28.888A5.555 5.555 0 0 1 46 11.556z" data-name="Path 193" style="fill:#3f51b5"/>
        <path id="prefix__Path_194" d="M34.368 25H31v13h-5V25h-3v-4h3v-2.41c0-3.508 1.459-5.59 5.592-5.59H35v4h-2.287C31.1 17 31 17.6 31 18.723V21h4z" data-name="Path 194" transform="translate(2.833 4)" style="fill:#fff"/>
    </g>
</svg>
