<svg xmlns="http://www.w3.org/2000/svg" width="21.333" height="18.667" viewBox="0 0 21.333 18.667">
  <path id="heart" d="M19.641,1.827A5.782,5.782,0,0,0,15.374,0a5.424,5.424,0,0,0-3.352,1.138A6.8,6.8,0,0,0,10.667,2.53,6.792,6.792,0,0,0,9.312,1.138,5.424,5.424,0,0,0,5.96,0,5.782,5.782,0,0,0,1.693,1.827,6.5,6.5,0,0,0,0,6.306a7.74,7.74,0,0,0,2.116,5.112,44.82,44.82,0,0,0,5.3,4.889c.734.615,1.566,1.312,2.43,2.055a1.268,1.268,0,0,0,1.649,0c.864-.743,1.7-1.441,2.43-2.056a44.794,44.794,0,0,0,5.3-4.889,7.739,7.739,0,0,0,2.116-5.112,6.5,6.5,0,0,0-1.692-4.479Zm0,0" transform="translate(0)" fill="#fff"/>
</svg>
