<svg xmlns="http://www.w3.org/2000/svg" xmlns:xlink="http://www.w3.org/1999/xlink" width="60" height="60" viewBox="0 0 60 60">
  <defs>
    <filter id="Path_46639" x="0" y="0" width="60" height="60" filterUnits="userSpaceOnUse">
      <feOffset input="SourceAlpha"/>
      <feGaussianBlur stdDeviation="5" result="blur"/>
      <feFlood flood-color="#ffd500"/>
      <feComposite operator="in" in2="blur"/>
      <feComposite in="SourceGraphic"/>
    </filter>
    <filter id="G" x="18.227" y="13.227" width="24" height="33" filterUnits="userSpaceOnUse">
      <feOffset input="SourceAlpha"/>
      <feGaussianBlur stdDeviation="1.5" result="blur-2"/>
      <feFlood flood-color="#e19c00" flood-opacity="0.439"/>
      <feComposite operator="in" in2="blur-2"/>
      <feComposite in="SourceGraphic"/>
    </filter>
  </defs>
  <g id="gtoken-icon" transform="translate(-636 -2136)">
    <g transform="matrix(1, 0, 0, 1, 636, 2136)" filter="url(#Path_46639)">
      <g id="Path_46639-2" data-name="Path 46639" transform="translate(15 15)" fill="#fdbd05">
        <path d="M 14.99999237060547 28.4999828338623 C 11.39401245117188 28.4999828338623 8.003862380981445 27.09574317932129 5.454052448272705 24.54593276977539 C 2.904242277145386 21.99612236022949 1.500002384185791 18.60597229003906 1.500002384185791 14.99999237060547 C 1.500002384185791 11.39401245117188 2.904242277145386 8.003862380981445 5.454052448272705 5.454052448272705 C 8.003862380981445 2.904242277145386 11.39401245117188 1.500002384185791 14.99999237060547 1.500002384185791 C 18.60597229003906 1.500002384185791 21.99612236022949 2.904242277145386 24.54593276977539 5.454052448272705 C 27.09574317932129 8.003862380981445 28.4999828338623 11.39401245117188 28.4999828338623 14.99999237060547 C 28.4999828338623 18.60597229003906 27.09574317932129 21.99612236022949 24.54593276977539 24.54593276977539 C 21.99612236022949 27.09574317932129 18.60597229003906 28.4999828338623 14.99999237060547 28.4999828338623 Z" stroke="none"/>
        <path d="M 14.99999237060547 3.000001907348633 C 11.7946720123291 3.000001907348633 8.781211853027344 4.248222351074219 6.514713287353516 6.514713287353516 C 4.248222351074219 8.781211853027344 3.000001907348633 11.7946720123291 3.000001907348633 14.99999237060547 C 3.000001907348633 18.20531272888184 4.248222351074219 21.21877288818359 6.514713287353516 23.48527145385742 C 8.781211853027344 25.75176239013672 11.7946720123291 26.9999828338623 14.99999237060547 26.9999828338623 C 18.20531272888184 26.9999828338623 21.21877288818359 25.75176239013672 23.48527145385742 23.48527145385742 C 25.75176239013672 21.21877288818359 26.9999828338623 18.20531272888184 26.9999828338623 14.99999237060547 C 26.9999828338623 11.7946720123291 25.75176239013672 8.781211853027344 23.48527145385742 6.514713287353516 C 21.21877288818359 4.248222351074219 18.20531272888184 3.000001907348633 14.99999237060547 3.000001907348633 M 14.99999237060547 1.9073486328125e-06 C 23.28426170349121 1.9073486328125e-06 29.9999828338623 6.715723037719727 29.9999828338623 14.99999237060547 C 29.9999828338623 23.28426170349121 23.28426170349121 29.9999828338623 14.99999237060547 29.9999828338623 C 6.715723037719727 29.9999828338623 1.9073486328125e-06 23.28426170349121 1.9073486328125e-06 14.99999237060547 C 1.9073486328125e-06 6.715723037719727 6.715723037719727 1.9073486328125e-06 14.99999237060547 1.9073486328125e-06 Z" stroke="none" fill="#fbca00"/>
      </g>
    </g>
    <g transform="matrix(1, 0, 0, 1, 636, 2136)" filter="url(#G)">
      <text id="G-2" data-name="G" transform="translate(22.73 36.73)" fill="#fbca00" font-size="20" font-family="SFProDisplay-Medium, SF Pro Display" font-weight="500"><tspan x="0" y="0">G</tspan></text>
    </g>
  </g>
</svg>
