<svg xmlns="http://www.w3.org/2000/svg" xmlns:xlink="http://www.w3.org/1999/xlink" width="52.273" height="60.575" viewBox="0 0 52.273 60.575">
  <defs>
    <filter id="Subtraction_4" x="0" y="0" width="52.273" height="60.575" filterUnits="userSpaceOnUse">
      <feOffset input="SourceAlpha"/>
      <feGaussianBlur stdDeviation="5" result="blur"/>
      <feFlood flood-color="#fe4141" flood-opacity="0.302"/>
      <feComposite operator="in" in2="blur"/>
      <feComposite in="SourceGraphic"/>
    </filter>
  </defs>
  <g id="Hotgames-icon" transform="translate(10.273 0.575)">
    <path id="Path_106" data-name="Path 106" d="M-10364.062,7247.069l-1.115-.51a16.029,16.029,0,0,1,2.357-1.815,6.519,6.519,0,0,1,2.209-.774,4.954,4.954,0,0,1,2.711.275c1.441.573,2,1.334,3.262,3.044a11.26,11.26,0,0,1,1.885,4.3c.093.445.391,1.56.625,2.319a2.013,2.013,0,0,0,.664,1.131c1.361,1.526,3.988,1.764,4.059,2.145s-3.984.04-3.984.04.041,1.321-.286,1.369-1.019-1.178-1.019-1.178a3.708,3.708,0,0,1-1.619,1.178,7.373,7.373,0,0,1-2.377.537c-.073-.109,2.854-3.223,3.185-3.915a5.608,5.608,0,0,0-.08-3.213,13.423,13.423,0,0,0-2.6-5.049,5.556,5.556,0,0,0-3.232-2.043,4.974,4.974,0,0,0-2.319.391A7.511,7.511,0,0,0-10364.062,7247.069Z" transform="translate(10365.178 -7243.893)" fill="#fe4141"/>
    <g transform="matrix(1, 0, 0, 1, -10.27, -0.57)" filter="url(#Subtraction_4)">
      <path id="Subtraction_4-2" data-name="Subtraction 4" d="M17.336,30.575a8.592,8.592,0,0,1-3.989-1.15l-.07-.032-.205-.094a7.165,7.165,0,0,1-1.839-1.124,11.7,11.7,0,0,1-1.347-1.514l-.022-.027c-.218-.272-.465-.58-.752-.926a22.056,22.056,0,0,1-2.058-3.028c-.5-.876-.808-1.523-.811-1.529l0,0,0,0a19.858,19.858,0,0,1-1.349-3.054c-.64-1.8-1.283-4.3-1.355-4.574v0H3.343a8.649,8.649,0,0,0-.175,1.239,10.18,10.18,0,0,0,.175,2.864,15.524,15.524,0,0,0,1.1,3.1c.152.325.313.65.478.965-.28-.26-.559-.534-.829-.813a16.393,16.393,0,0,1-2.21-2.792A13.525,13.525,0,0,1,.576,15a13.412,13.412,0,0,1-.351-1.477v-.008a11.461,11.461,0,0,1-.2-1.689,11.606,11.606,0,0,1,.369-3.7l.139-.49C1.186,5.3,1.459,4.328,3.28,2.751,5.037,1.228,5.98.811,7.664.811c.213,0,.443.007.705.021a3.671,3.671,0,0,1,1.477.416A5.443,5.443,0,0,1,11,2.058a6.717,6.717,0,0,1,1.017,1.148h0l.005.008.007.007a7.185,7.185,0,0,1,.683.862A10.53,10.53,0,0,1,13.95,6.5a26.783,26.783,0,0,1,1.045,5.2h.2a26.689,26.689,0,0,0,0-4.61l-.013-.12v0l-.018-.159A9.007,9.007,0,0,0,14.234,3.2,13.85,13.85,0,0,0,12.922.8c-.236-.35-.442-.627-.573-.8.37.089.95.243,1.618.469a11.961,11.961,0,0,1,3.358,1.68,6.04,6.04,0,0,1,1.2,1.258,7.255,7.255,0,0,1,.729,1.287A6.9,6.9,0,0,1,19.709,6.1h0a19.625,19.625,0,0,1,.285,4.115,12.711,12.711,0,0,1-.341,2.436v0c-.1.433-.2.924-.335,1.7-.117.7-.241,1.21-.351,1.659v0a8.588,8.588,0,0,0-.308,2.919,9.265,9.265,0,0,0,.955,3.551,4.244,4.244,0,0,1-.643-.258,4.369,4.369,0,0,1-1.594-1.348,14.158,14.158,0,0,1-1.634-3.946l-.192,0a10.033,10.033,0,0,0-.165,1.3,11.619,11.619,0,0,0,.165,2.973,10.122,10.122,0,0,0,2.685,5.547,9.35,9.35,0,0,0,2.8,2.121,9.932,9.932,0,0,0,1.235.525c-.244.108-.635.272-1.115.442a12.586,12.586,0,0,1-2.955.687C17.889,30.561,17.605,30.575,17.336,30.575ZM6.648,10.005a13.158,13.158,0,0,0,.008,1.878,19.425,19.425,0,0,0,.872,4.578,29.784,29.784,0,0,0,2.108,5.252,33.27,33.27,0,0,0-.866-6.039A32.6,32.6,0,0,0,6.648,10.005Z" transform="translate(15 15)" fill="#fe4141"/>
    </g>
  </g>
</svg>
