<svg xmlns="http://www.w3.org/2000/svg" width="40" height="40" viewBox="0 0 40 40">
    <defs>
        <style>
            .prefix__cls-17{fill:#fff}
        </style>
    </defs>
    <g id="prefix__icons8-instagram-50" transform="translate(-6 -6)">
        <path id="prefix__Path_195" d="M34.889 46H17.111A11.144 11.144 0 0 1 6 34.889V17.111A11.144 11.144 0 0 1 17.111 6h17.778A11.144 11.144 0 0 1 46 17.111v17.778A11.144 11.144 0 0 1 34.889 46z" data-name="Path 195" style="fill:#304ffe"/>
        <path id="prefix__Path_196" d="M6 17.111v17.778A11.144 11.144 0 0 0 17.111 46h17.778A11.144 11.144 0 0 0 46 34.889V17.111A9.586 9.586 0 0 0 45.556 14a36.482 36.482 0 0 0-22.889-8 35.615 35.615 0 0 0-11.889 2A11.057 11.057 0 0 0 6 17.111z" data-name="Path 196" style="fill:rgba(48,79,254,.29)"/>
        <path id="prefix__Path_197" d="M22.667 8a35.174 35.174 0 0 0-15.334 3.576A11.285 11.285 0 0 0 6 16.941v17.883A11.177 11.177 0 0 0 17.111 46h17.778A11.177 11.177 0 0 0 46 34.824V17.165A34.112 34.112 0 0 0 22.667 8z" data-name="Path 197" style="fill:#6200ea"/>
        <path id="prefix__Path_198" d="M46 20.125A32.1 32.1 0 0 0 22.667 10a31.484 31.484 0 0 0-16.445 4.613A12.61 12.61 0 0 0 6 16.75v18A11.214 11.214 0 0 0 17.111 46h17.778A11.214 11.214 0 0 0 46 34.75z" data-name="Path 198" style="fill:#673ab7"/>
        <path id="prefix__Path_199" d="M46 23.333A29.643 29.643 0 0 0 22.667 12 29.151 29.151 0 0 0 6 17.213v17.454A11.257 11.257 0 0 0 17.111 46h17.778A11.257 11.257 0 0 0 46 34.667z" data-name="Path 199" style="fill:#8e24aa"/>
        <path id="prefix__Path_200" d="M46 34.571v-7.542A27.825 27.825 0 0 0 22.667 14 27.554 27.554 0 0 0 6 19.714v14.857A11.306 11.306 0 0 0 17.111 46h17.778A11.306 11.306 0 0 0 46 34.571z" data-name="Path 200" style="fill:#c2185b"/>
        <path id="prefix__Path_201" d="M46 34.462v-2.77A25.525 25.525 0 0 0 22.667 16 24.775 24.775 0 0 0 6 22.462v12A11.364 11.364 0 0 0 17.111 46h17.778A11.364 11.364 0 0 0 46 34.462z" data-name="Path 201" style="fill:#d81b60"/>
        <path id="prefix__Path_202" d="M45.6 34.8C43.487 25.2 34.031 18 22.685 18A24.514 24.514 0 0 0 6 24.3V32c0 5.5 5.006 10 11.124 10h17.8c5.003 0 9.341-3 10.676-7.2z" data-name="Path 202" transform="translate(0 4)" style="fill:#f50057"/>
        <path id="prefix__Path_203" d="M43.9 38c-.559-10-9.727-18-21.13-18A22.138 22.138 0 0 0 6 27.4V32c0 5.5 5.031 10 11.18 10h17.888a11.585 11.585 0 0 0 8.832-4z" data-name="Path 203" transform="translate(0 4)" style="fill:#ff1744"/>
        <path id="prefix__Path_204" d="M22.875 22A19.5 19.5 0 0 0 6 31v1c0 5.5 5.063 10 11.25 10h18a11.389 11.389 0 0 0 6.638-2c0-.3.112-.7.112-1 0-9.4-8.55-17-19.125-17z" data-name="Path 204" transform="translate(0 4)" style="fill:#ff5722"/>
        <path id="prefix__Path_205" d="M21 24A14.918 14.918 0 0 0 6.5 35.2 9.944 9.944 0 0 0 16 42h16a9.572 9.572 0 0 0 3.8-.8A16.353 16.353 0 0 0 36 39a14.98 14.98 0 0 0-15-15z" data-name="Path 205" transform="translate(0 4)" style="fill:#ff6f00"/>
        <path id="prefix__Path_206" d="M21 26A12.836 12.836 0 0 0 8.1 38a9.942 9.942 0 0 0 7.9 4h16a9.852 9.852 0 0 0 1.7-.2A12.65 12.65 0 0 0 34 39a12.974 12.974 0 0 0-13-13z" data-name="Path 206" transform="translate(0 4)" style="fill:#ff9800"/>
        <path id="prefix__Path_207" d="M31.6 42a10.323 10.323 0 0 0 .4-3 11 11 0 0 0-22 0 3.4 3.4 0 0 0 .1 1 10.216 10.216 0 0 0 5.9 2z" data-name="Path 207" transform="translate(0 4)" style="fill:#ffc107"/>
        <path id="prefix__Path_208" d="M21 30a8.963 8.963 0 0 0-9 9 8.524 8.524 0 0 0 .3 2.3 9.04 9.04 0 0 0 3.7.7h13.5a9.427 9.427 0 0 0 .5-3 8.963 8.963 0 0 0-9-9z" data-name="Path 208" transform="translate(1.333 4)" style="fill:#ffd54f"/>
        <path id="prefix__Path_209" d="M21 32.1a6.957 6.957 0 0 0-7 7 6.71 6.71 0 0 0 .6 2.8 6.6 6.6 0 0 0 1.4.1h11.4a7.173 7.173 0 0 0 .6-2.9 6.957 6.957 0 0 0-7-7z" data-name="Path 209" transform="translate(1.455 4)" style="fill:#ffe082"/>
        <path id="prefix__Path_210" d="M21 34.1a4.951 4.951 0 0 0-5 5 4.839 4.839 0 0 0 1 2.9h8a4.839 4.839 0 0 0 1-2.9 4.951 4.951 0 0 0-5-5z" data-name="Path 210" transform="translate(1.538 4)" style="fill:#ffecb3"/>
        <path id="prefix__Path_211" d="M32.857 42H19.143A9.17 9.17 0 0 1 10 32.857V19.143A9.17 9.17 0 0 1 19.143 10h13.714A9.17 9.17 0 0 1 42 19.143v13.714A9.17 9.17 0 0 1 32.857 42zM19.143 12.286a6.877 6.877 0 0 0-6.857 6.857v13.714a6.877 6.877 0 0 0 6.857 6.857h13.714a6.877 6.877 0 0 0 6.857-6.857V19.143a6.877 6.877 0 0 0-6.857-6.857z" class="prefix__cls-17" data-name="Path 211"/>
        <path id="prefix__Path_212" d="M24 31a7 7 0 1 1 7-7 6.957 6.957 0 0 1-7 7zm0-12a5 5 0 1 0 5 5 4.951 4.951 0 0 0-5-5zm8-3a1 1 0 1 1-1-1 .945.945 0 0 1 1 1z" class="prefix__cls-17" data-name="Path 212" transform="translate(2.095 1.8)"/>
    </g>
</svg>
