<svg xmlns="http://www.w3.org/2000/svg" width="36" height="45" viewBox="0 0 36 45">
  <g id="liveplay-categ-icon" transform="translate(-0.261)">
    <g id="Subtraction_3" data-name="Subtraction 3" transform="translate(0.261)" fill="#1a212a" stroke-linejoin="round">
      <path d="M 33 44 L 3 44 C 1.897199988365173 44 1 43.10279846191406 1 42 L 1 3 C 1 1.897199988365173 1.897199988365173 1 3 1 L 33 1 C 34.10279846191406 1 35 1.897199988365173 35 3 L 35 42 C 35 43.10279846191406 34.10279846191406 44 33 44 Z" stroke="none"/>
      <path d="M 3 2 C 2.448600769042969 2 2 2.448600769042969 2 3 L 2 42 C 2 42.55139923095703 2.448600769042969 43 3 43 L 33 43 C 33.55139923095703 43 34 42.55139923095703 34 42 L 34 3 C 34 2.448600769042969 33.55139923095703 2 33 2 L 3 2 M 3 0 L 33 0 C 34.6568489074707 0 36 1.343151092529297 36 3 L 36 42 C 36 43.6568489074707 34.6568489074707 45 33 45 L 3 45 C 1.343151092529297 45 0 43.6568489074707 0 42 L 0 3 C 0 1.343151092529297 1.343151092529297 0 3 0 Z" stroke="none" fill="#55c12f"/>
    </g>
    <path id="Path_42" data-name="Path 42" d="M167.35,169.8v4.5l4.5-2.156Z" transform="translate(-161.947 -164.477)" fill="none" stroke="#55c12f" stroke-linejoin="round" stroke-width="2"/>
    <path id="Path_70" data-name="Path 70" d="M167.35,169.8v4.5l4.5-2.156Z" transform="translate(-141.237 -134.685)" fill="none" stroke="#55c12f" stroke-linejoin="round" stroke-width="2"/>
    <path id="Path_71" data-name="Path 71" d="M167.35,169.8v13.507l11.706-6.468Z" transform="translate(-153.843 -154.494)" fill="#55c12f" stroke="#55c12f" stroke-linejoin="round" stroke-width="2"/>
  </g>
</svg>