<svg xmlns="http://www.w3.org/2000/svg" width="30" height="30" viewBox="0 0 30 30">
  <g id="Group_436" data-name="Group 436" transform="translate(-135 -688)">
    <circle id="Ellipse_87" data-name="Ellipse 87" cx="15" cy="15" r="15" transform="translate(135 688)" fill="#8d5d1b"/>
    <rect id="Rectangle_241" data-name="Rectangle 241" width="30" height="30" rx="10" transform="translate(135 688)" fill="#3d4800"/>
    <g id="liveplay-icon" transform="translate(143 692)">
      <path id="Subtraction_3" data-name="Subtraction 3" d="M3,0h8a3,3,0,0,1,3,3V16.065a3,3,0,0,1-3,3H3a3,3,0,0,1-3-3V3A3,3,0,0,1,3,0Z" transform="translate(0 1)" fill="#abcb00"/>
      <path id="Icon_feather-heart" data-name="Icon feather-heart" d="M9.706,5.2a1.921,1.921,0,0,0-2.978,0l-.406.465L5.917,5.2a1.921,1.921,0,0,0-2.978,0,2.671,2.671,0,0,0,0,3.414l.406.465L6.323,12.5,9.3,9.083l.406-.465a2.67,2.67,0,0,0,0-3.414Z" transform="translate(0.677 2.503)" fill="#fff"/>
    </g>
  </g>
</svg>
