<svg xmlns="http://www.w3.org/2000/svg" width="32" height="34" viewBox="0 0 32 34">
  <g id="Live_games_icon" data-name="Live games icon" transform="translate(29 3) rotate(90)" fill="none" stroke-linecap="round" stroke-linejoin="round">
    <path d="M14,0,28,26H0Z" stroke="none"/>
    <path d="M 14 -1.9073486328125e-06 L 0 26 L 28 26 L 14 -1.9073486328125e-06 M 14 -3.000001907348633 C 15.10365009307861 -3.000001907348633 16.1181697845459 -2.394031524658203 16.64141082763672 -1.422300338745117 L 30.64141082763672 24.57769966125488 C 31.14201927185059 25.50740814208984 31.11701011657715 26.63183975219727 30.5755500793457 27.53835868835449 C 30.03409004211426 28.44487953186035 29.0559196472168 29 28 29 L 0 29 C -1.055919647216797 29 -2.034090042114258 28.44487953186035 -2.575550079345703 27.53835868835449 C -3.117010116577148 26.63183975219727 -3.142019271850586 25.50740814208984 -2.641410827636719 24.57769966125488 L 11.35858917236328 -1.422300338745117 C 11.8818302154541 -2.394031524658203 12.89634990692139 -3.000001907348633 14 -3.000001907348633 Z" stroke="none" fill="#087cf5"/>
  </g>
</svg>
