<svg xmlns="http://www.w3.org/2000/svg" width="44" height="28.999" viewBox="0 0 44 28.999">
  <g id="live-categ-icon" transform="translate(-114.881 -245.92)">
    <g id="Subtraction_3" data-name="Subtraction 3" transform="translate(114.881 234.92)" fill="none">
      <path d="M42,40H2a2,2,0,0,1-2-2V13a2,2,0,0,1,2-2H42a2,2,0,0,1,2,2V38A2,2,0,0,1,42,40ZM4.54,34.122a1.719,1.719,0,1,0,0,3.439H39.46a1.719,1.719,0,0,0,0-3.439Zm.28-20.392a2,2,0,0,0-2,2V29.653a2,2,0,0,0,2,2H39.18a2,2,0,0,0,2-2V15.729a2,2,0,0,0-2-2Z" stroke="none"/>
      <path d="M 1.998896479606628 33.12772750854492 C 2.117778778076172 33.01631927490234 2.243794202804565 32.91273880004883 2.376469612121582 32.81753158569336 C 2.243795394897461 32.71482849121094 2.11763334274292 32.60388565063477 1.998931646347046 32.48564529418945 L 1.998896479606628 33.12772750854492 M 42.00030136108398 39.99959945678711 L 1.999799609184265 39.99959945678711 C 0.8971095681190491 39.99959945678711 -4.089355343239731e-07 39.10248947143555 -4.089355343239731e-07 37.99979782104492 L -4.089355343239731e-07 13.00049877166748 C -4.089355343239731e-07 11.89780902862549 0.8971095681190491 11.00069904327393 1.999799609184265 11.00069904327393 L 42.00030136108398 11.00069904327393 C 43.10298919677734 11.00069904327393 44.00009918212891 11.89780902862549 44.00009918212891 13.00049877166748 L 44.00009918212891 37.99979782104492 C 44.00009918212891 39.10248947143555 43.10298919677734 39.99959945678711 42.00030136108398 39.99959945678711 Z M 4.540499687194824 34.12170028686523 C 3.592139482498169 34.12170028686523 2.820599555969238 34.89323806762695 2.820599555969238 35.84159851074219 C 2.820599555969238 36.78945922851563 3.592139482498169 37.56060028076172 4.540499687194824 37.56060028076172 L 39.46049880981445 37.56060028076172 C 40.40835952758789 37.56060028076172 41.17950057983398 36.78945922851563 41.17950057983398 35.84159851074219 C 41.17950057983398 34.89323806762695 40.40835952758789 34.12170028686523 39.46049880981445 34.12170028686523 L 4.540499687194824 34.12170028686523 Z M 4.820399761199951 13.72949886322021 C 3.717709541320801 13.72949886322021 2.820599555969238 14.62660884857178 2.820599555969238 15.72929859161377 L 2.820599555969238 29.6531982421875 C 2.820599555969238 30.75588798522949 3.717709541320801 31.65299797058105 4.820399761199951 31.65299797058105 L 39.1796989440918 31.65299797058105 C 40.28239059448242 31.65299797058105 41.17950057983398 30.75588798522949 41.17950057983398 29.6531982421875 L 41.17950057983398 15.72929859161377 C 41.17950057983398 14.62660884857178 40.28239059448242 13.72949886322021 39.1796989440918 13.72949886322021 L 4.820399761199951 13.72949886322021 Z" stroke="none" fill="#55c12f"/>
    </g>
    <path id="Path_42" data-name="Path 42" d="M167.35,169.8v7.156l6.977-3.427Z" transform="translate(-32.211 84.264)" fill="#55c12f" stroke="#55c12f" stroke-linejoin="round" stroke-width="2"/>
  </g>
</svg>
