<svg id="Group_324" data-name="Group 324" xmlns="http://www.w3.org/2000/svg" width="50" height="50" viewBox="0 0 50 50">
  <rect id="Rectangle_262" data-name="Rectangle 262" width="50" height="50" rx="10" fill="#e1880e"/>
  <path id="icons8-odnoklassniki" d="M13.049,5.575a2.4,2.4,0,1,1-2.4,2.4A2.4,2.4,0,0,1,13.049,5.575Zm0,8.356A5.96,5.96,0,1,0,7.087,7.974,5.96,5.96,0,0,0,13.049,13.932Zm2.343,4.556a10.7,10.7,0,0,0,3.363-1.393,1.7,1.7,0,0,0-1.807-2.869,7.357,7.357,0,0,1-7.8,0,1.7,1.7,0,1,0-1.807,2.869,10.658,10.658,0,0,0,3.363,1.393L7.464,21.729a1.7,1.7,0,0,0,2.4,2.4l3.181-3.181,3.186,3.181a1.7,1.7,0,0,0,2.4-2.4Z" transform="translate(12.453 11.988)" fill="#fff"/>
</svg>
