<svg xmlns="http://www.w3.org/2000/svg" id="prefix__mastercard_fdf8a1307673e1b5db6a70d784a04581" width="45" height="34.88" viewBox="0 0 45 34.88">
    <path id="prefix__Path_173" d="M11.871 81.876v-2.318a1.359 1.359 0 0 0-1.471-1.467 1.524 1.524 0 0 0-1.313.657 1.351 1.351 0 0 0-1.236-.657 1.248 1.248 0 0 0-1.082.541v-.464H6v3.708h.811v-2.047c0-.657.348-.966.888-.966s.811.348.811.966v2.047h.811v-2.047a.855.855 0 0 1 .888-.966c.541 0 .811.348.811.966v2.047zm12.013-3.708h-1.313v-1.12h-.811v1.12h-.734v.732h.734v1.7c0 .85.348 1.352 1.275 1.352a2.161 2.161 0 0 0 1-.27l-.232-.7a1.271 1.271 0 0 1-.7.193c-.386 0-.541-.232-.541-.618V78.9h1.313zm6.837-.077a1.089 1.089 0 0 0-.966.541v-.464h-.811v3.708h.811V79.79c0-.618.27-.966.773-.966a2.261 2.261 0 0 1 .5.077l.232-.773c-.153.001-.384-.037-.539-.037zm-10.352.386a2.651 2.651 0 0 0-1.506-.386c-.927 0-1.545.464-1.545 1.2 0 .618.464.966 1.275 1.082l.386.039c.425.077.657.193.657.386 0 .27-.309.464-.85.464a2.132 2.132 0 0 1-1.236-.386l-.386.618a2.731 2.731 0 0 0 1.584.464c1.082 0 1.7-.5 1.7-1.2 0-.657-.5-1-1.275-1.12l-.386-.039c-.348-.039-.618-.116-.618-.348 0-.27.27-.425.7-.425a2.784 2.784 0 0 1 1.159.309zm21.515-.386a1.089 1.089 0 0 0-.966.541v-.464h-.811v3.708h.811V79.79c0-.618.27-.966.773-.966a2.261 2.261 0 0 1 .5.077l.232-.773c-.153.001-.384-.037-.539-.037zm-10.352 1.931a1.855 1.855 0 0 0 1.97 1.931 1.922 1.922 0 0 0 1.313-.425l-.386-.657a1.561 1.561 0 0 1-.966.348 1.1 1.1 0 0 1-1.12-1.2 1.139 1.139 0 0 1 1.12-1.2 1.561 1.561 0 0 1 .966.348l.386-.657a1.922 1.922 0 0 0-1.313-.425 1.855 1.855 0 0 0-1.97 1.937zm7.532 0v-1.854h-.811v.464a1.4 1.4 0 0 0-1.159-.541 1.933 1.933 0 0 0 0 3.863 1.3 1.3 0 0 0 1.159-.541v.464h.811v-1.855zm-3.013 0a1.123 1.123 0 1 1 2.24 0 1.139 1.139 0 0 1-1.12 1.2 1.116 1.116 0 0 1-1.119-1.2zm-9.7-1.931a1.932 1.932 0 0 0 .039 3.863 2.362 2.362 0 0 0 1.506-.5l-.386-.579a1.846 1.846 0 0 1-1.082.386 1.043 1.043 0 0 1-1.12-.888h2.742v-.309a1.687 1.687 0 0 0-1.694-1.973zm0 .734a.9.9 0 0 1 .927.888h-1.926a.975.975 0 0 1 1.004-.889zm20.163 1.2V76.7h-.811v1.931a1.4 1.4 0 0 0-1.159-.541 1.933 1.933 0 0 0 0 3.863 1.3 1.3 0 0 0 1.159-.541v.464h.811v-1.854zm-3.013 0a1.123 1.123 0 1 1 2.24 0 1.139 1.139 0 0 1-1.12 1.2 1.116 1.116 0 0 1-1.115-1.203zm-27.116 0v-1.857h-.811v.464a1.4 1.4 0 0 0-1.159-.541 1.933 1.933 0 0 0 0 3.863 1.3 1.3 0 0 0 1.159-.541v.464h.811v-1.855zm-2.974 0a1.123 1.123 0 1 1 2.24 0 1.139 1.139 0 0 1-1.12 1.2 1.116 1.116 0 0 1-1.115-1.203z" data-name="Path 173" transform="translate(-3.682 -47.073)" style="fill:#fff"/>
    <path id="prefix__Path_174" d="M42.5 7.7h12.167v21.863H42.5z" data-name="Path 174" transform="translate(-26.084 -4.726)" style="fill:#ff5f00"/>
    <path id="prefix__Path_175" d="M17.189 13.906a13.942 13.942 0 0 1 5.292-10.932 13.9 13.9 0 1 0-8.575 24.837 13.82 13.82 0 0 0 8.575-2.974 13.942 13.942 0 0 1-5.292-10.931z" data-name="Path 175" style="fill:#eb001b"/>
    <path id="prefix__Path_176" d="M80.719 13.906a13.891 13.891 0 0 1-22.48 10.931A13.9 13.9 0 0 0 58.2 2.974a13.92 13.92 0 0 1 22.519 10.932z" data-name="Path 176" transform="translate(-35.719)" style="fill:#f79e1b"/>
</svg>
