<svg xmlns="http://www.w3.org/2000/svg" width="16.565" height="15.315" viewBox="0 0 16.565 15.315">
  <g id="Union_4" data-name="Union 4" transform="translate(-7384.842 -1912.71)" fill="none">
    <path d="M7387.693,1928.025a1.418,1.418,0,0,1-1.419-1.417v-6.141h-.429a1,1,0,0,1-.62-1.785l7.28-5.757a1,1,0,0,1,1.241,0l7.28,5.757a1,1,0,0,1-.619,1.785h-.431v6.141a1.417,1.417,0,0,1-1.417,1.417Z" stroke="none"/>
    <path d="M 7397.97509765625 1926.025024414063 L 7397.97509765625 1920.466430664063 L 7397.97509765625 1918.819580078125 L 7393.12451171875 1914.98388671875 L 7388.2734375 1918.81982421875 L 7388.2734375 1920.466430664063 L 7388.2734375 1926.025024414063 L 7397.97509765625 1926.025024414063 M 7398.5576171875 1928.025024414063 L 7387.69287109375 1928.025024414063 C 7386.90869140625 1928.025024414063 7386.2734375 1927.3916015625 7386.2734375 1926.607666015625 L 7386.2734375 1920.466430664063 L 7385.84423828125 1920.466430664063 C 7384.89501953125 1920.466430664063 7384.48095703125 1919.270141601563 7385.22412109375 1918.681396484375 L 7392.50390625 1912.924682617188 C 7392.68603515625 1912.781616210938 7392.9052734375 1912.710083007813 7393.12451171875 1912.710083007813 C 7393.34375 1912.710083007813 7393.56298828125 1912.781616210938 7393.74462890625 1912.924682617188 L 7401.02490234375 1918.681396484375 C 7401.76953125 1919.270141601563 7401.353515625 1920.466430664063 7400.40625 1920.466430664063 L 7399.97509765625 1920.466430664063 L 7399.97509765625 1926.607666015625 C 7399.97509765625 1927.3916015625 7399.33984375 1928.025024414063 7398.5576171875 1928.025024414063 Z" stroke="none" fill="#fff"/>
  </g>
</svg>
