<svg xmlns="http://www.w3.org/2000/svg" width="19.062" height="22.4" viewBox="0 0 19.062 22.4">
  <g id="Icon_ionic-ios-notifications" data-name="Icon ionic-ios-notifications" transform="translate(1.031 1)">
    <path id="Path_1" data-name="Path 1" d="M17.993,32.063c2.187,0,3.382-1.547,3.382-3.727H14.6C14.6,30.516,15.8,32.063,17.993,32.063Z" transform="translate(-9.501 -11.663)" fill="none" stroke="#fff" stroke-width="2"/>
    <path id="Path_2" data-name="Path 2" d="M23.546,17.781c-.818-.949-2.429-1.505-2.429-5.754,0-4.361-2.189-6.114-4.23-6.535-.191-.042-.329-.1-.329-.276V5.08a1.306,1.306,0,0,0-2.593,0v.136c0,.173-.138.234-.329.276-2.046.425-4.23,2.174-4.23,6.535,0,4.249-1.61,4.8-2.429,5.754a.926.926,0,0,0,.845,1.487H22.706A.925.925,0,0,0,23.546,17.781Z" transform="translate(-6.761 -3.93)" fill="none" stroke="#fff" stroke-width="2"/>
  </g>
</svg>
