<svg xmlns="http://www.w3.org/2000/svg" width="80" height="13.823" viewBox="0 0 80 13.823">
    <path id="prefix__logo_neteller_224a717092d1e47e6e36ccf098f721f7" d="M78.536 1.051A8.191 8.191 0 0 0 73.949 0h-5.3l-1.964 10.69h-6.933l.44-2.424h4.179l.5-2.725h-4.18l.448-2.413h4.307L66.016 0h-8.744l-1.866 10.133h-3.2L54.089 0h-4.582l-1.866 10.133h-3.128L46.4 0h-4.57l-1.973 10.69h-6.989l.443-2.424h4.2L38 5.557h-4.188l.445-2.419h4.354L39.177 0H11.933l-1.552 8.472L7.293 0H2.552L0 13.823h4.533l1.539-8.7 2.995 8.7H25.3l1.971-10.692h2.539l-1.974 10.692h42.7l1.237-6.749 2 6.749h4.533l-2.069-5.514.475-.1a4.064 4.064 0 0 0 2.429-1.427A4.416 4.416 0 0 0 80 4a3.279 3.279 0 0 0-1.464-2.933zM21.359 10.69h-6.933l.448-2.424h4.349l.493-2.731H15.41l.416-2.4h6.933l-1.4 7.554zM74.8 6.034a3.509 3.509 0 0 1-2.019.475h-.9l.695-3.709h.659a3.078 3.078 0 0 1 1.675.365 1.451 1.451 0 0 1 .645 1.293 1.816 1.816 0 0 1-.755 1.579z" style="fill:#83ba3b;opacity:.7;mix-blend-mode:luminosity;isolation:isolate"/>
</svg>
