<svg xmlns="http://www.w3.org/2000/svg" width="44" height="43" viewBox="0 0 44 43">
  <g id="new-categ-icon" transform="translate(-531.5 -624.5)">
    <g id="Polygon_6" data-name="Polygon 6" transform="translate(533 626)" fill="none" stroke-linejoin="round">
      <path d="M25.062,0,28.3,3.783l4.977.179,1.282,4.816L38.97,11.1l-.933,4.9L41,20l-2.964,4.005.933,4.9-4.407,2.322-1.282,4.816-4.977.179L25.062,40,20.5,38l-4.562,2L12.7,36.217l-4.977-.179L6.437,31.223,2.03,28.9l.933-4.9L0,20l2.964-4.005L2.03,11.1,6.437,8.777,7.718,3.961,12.7,3.783,15.938,0,20.5,2Z" stroke="none"/>
      <path d="M 15.93833923339844 0 L 12.69556045532227 3.782558441162109 L 7.718471527099609 3.961238861083984 L 6.436878204345703 8.777179718017578 L 2.030139923095703 11.09915924072266 L 2.963558197021484 15.99461936950684 L 0 20 L 2.963558197021484 24.00537109375 L 2.030139923095703 28.90082931518555 L 6.436870574951172 31.22280883789063 L 7.718460083007813 36.03876113891602 L 12.6955509185791 36.21744155883789 L 15.93832969665527 40 L 20.5 38 L 25.06167984008789 40 L 28.30445098876953 36.21744155883789 L 33.28153991699219 36.03874969482422 L 34.56312942504883 31.22280883789063 L 38.9698600769043 28.90082931518555 L 38.03643798828125 24.00537872314453 L 41 20 L 38.03643798828125 15.99461936950684 L 38.9698600769043 11.09915924072266 L 34.56312942504883 8.777179718017578 L 33.28153991699219 3.961250305175781 L 28.30445098876953 3.782558441162109 L 25.06167984008789 0 L 20.50001907348633 2 L 15.93833923339844 0 M 15.93881797790527 -1.500076293945313 C 16.14159393310547 -1.500076293945313 16.34639930725098 -1.458927154541016 16.5406494140625 -1.373760223388672 L 20.50001907348633 0.3621673583984375 L 24.45936965942383 -1.373760223388672 C 24.65358352661133 -1.458911895751953 24.85846328735352 -1.500057220458984 25.06120109558105 -1.500076293945313 C 25.48959732055664 -1.500106811523438 25.90883255004883 -1.316482543945313 26.20048141479492 -0.9762916564941406 L 29.01533126831055 2.307121276855469 L 33.33536148071289 2.46221923828125 C 33.99483871459961 2.485889434814453 34.5613899230957 2.937789916992188 34.7310905456543 3.57550048828125 L 35.84370040893555 7.756443023681641 L 39.66910171508789 9.772109985351563 C 40.25265121459961 10.07958984375 40.56684875488281 10.73217964172363 40.44332122802734 11.38010025024414 L 39.63290786743164 15.63041877746582 L 42.20581817626953 19.10782051086426 C 42.59806060791016 19.637939453125 42.59806060791016 20.362060546875 42.20581817626953 20.89217948913574 L 39.63291168212891 24.36957931518555 L 40.44332122802734 28.61988067626953 C 40.56684875488281 29.2678108215332 40.25265121459961 29.9203987121582 39.66910171508789 30.22787857055664 L 35.84370040893555 32.24354553222656 L 34.7310905456543 36.42449951171875 C 34.5613899230957 37.06221008300781 33.99483871459961 37.51411056518555 33.33536148071289 37.53778076171875 L 29.01533126831055 37.69287872314453 L 26.20048141479492 40.97629165649414 C 25.90885925292969 41.31645202636719 25.48956298828125 41.50007629394531 25.06120681762695 41.50007629394531 C 24.85842895507813 41.50007629394531 24.65362548828125 41.45892715454102 24.45936965942383 41.37376022338867 L 20.5 39.63783264160156 L 16.54063987731934 41.37376022338867 C 16.34642601013184 41.45891189575195 16.14154624938965 41.50007629394531 15.93880844116211 41.50007629394531 C 15.51041221618652 41.50007629394531 15.09117889404297 41.31648254394531 14.79953002929688 40.97629165649414 L 11.98467063903809 37.6928825378418 L 7.664638519287109 37.53778839111328 C 7.005161285400391 37.51412200927734 6.438610076904297 37.06222152709961 6.268909454345703 36.42451095581055 L 5.156299591064453 32.24354553222656 L 1.330898284912109 30.22787857055664 C 0.7473487854003906 29.9203987121582 0.4331512451171875 29.2678108215332 0.5566787719726563 28.6198902130127 L 1.367092132568359 24.36957168579102 L -1.205818176269531 20.89217948913574 C -1.598060607910156 20.362060546875 -1.598060607910156 19.637939453125 -1.205818176269531 19.10782051086426 L 1.367092132568359 15.63041877746582 L 0.5566787719726563 11.38010025024414 C 0.4331512451171875 10.73217964172363 0.7473487854003906 10.07958984375 1.330898284912109 9.772109985351563 L 5.15631103515625 7.756443023681641 L 6.2689208984375 3.575489044189453 C 6.438621520996094 2.937778472900391 7.005168914794922 2.485881805419922 7.664649963378906 2.462211608886719 L 11.98468208312988 2.307117462158203 L 14.79953956604004 -0.9762916564941406 C 15.09116172790527 -1.316452026367188 15.51046180725098 -1.500076293945313 15.93881797790527 -1.500076293945313 Z" stroke="none" fill="#55c12f"/>
    </g>
    <text id="NEW" transform="translate(553.5 650)" fill="#55c12f" font-size="11" font-family="SFProDisplay-Semibold, SF Pro Display" font-weight="600" letter-spacing="0.05em"><tspan x="-12.785" y="0">NEW</tspan></text>
  </g>
</svg>
