<svg id="promo-leftmenu-icon" xmlns="http://www.w3.org/2000/svg" width="26.892" height="22" viewBox="0 0 26.892 22">
  <path id="Path_155" data-name="Path 155" d="M56.675,168.215,51.4,175.431h6.644Z" transform="translate(-51.397 -167.746)" fill="#5b5f61"/>
  <path id="Path_156" data-name="Path 156" d="M174.728,164.4l-5.717,7.479h11.434Z" transform="translate(-161.282 -164.199)" fill="#5b5f61"/>
  <path id="Path_157" data-name="Path 157" d="M53.329,282.889,65.6,295.764l-5.567-12.875Z" transform="translate(-53.202 -274.514)" fill="#5b5f61"/>
  <path id="Path_158" data-name="Path 158" d="M273.32,161.413h-6.9l5.532,7.237Z" transform="translate(-252.287 -161.413)" fill="#5b5f61"/>
  <path id="Path_159" data-name="Path 159" d="M147.458,161.413h-6.9l1.37,7.237Z" transform="translate(-134.697 -161.413)" fill="#5b5f61"/>
  <path id="Path_160" data-name="Path 160" d="M271.918,295.764l12.273-12.875h-6.706Z" transform="translate(-257.426 -274.514)" fill="#5b5f61"/>
  <path id="Path_161" data-name="Path 161" d="M166.352,282.889l5.892,13.625,5.892-13.625Z" transform="translate(-158.797 -274.514)" fill="#5b5f61"/>
  <path id="Path_162" data-name="Path 162" d="M359.5,175.431h6.644l-5.278-7.216Z" transform="translate(-339.25 -167.746)" fill="#5b5f61"/>
</svg>
