<svg xmlns="http://www.w3.org/2000/svg" width="33.849" height="35.453" viewBox="0 0 33.849 35.453">
    <defs>
        <style>
            .prefix__cls-2{fill:#f49600}
        </style>
    </defs>
    <g id="prefix__logo_qiwi_0706aa40144163852c59a1115ab5a41a" transform="translate(.005 -.007)" style="opacity:.6;mix-blend-mode:luminosity;isolation:isolate">
        <path id="prefix__Path_184" d="M27.43 24.73c-.06-.26-.26-.81-.6-.94s-.36.27-.28.53a2.29 2.29 0 0 0 .62 1.15c.18.11.39-.14.26-.74zm-2.67.63a1.17 1.17 0 0 0-.57-.46h-.14a.82.82 0 0 0-.6.11 1 1 0 0 0-.13 1.36 1.22 1.22 0 0 0 .57.46H24a.78.78 0 0 0 .6-.11 1 1 0 0 0 .16-1.36z" class="prefix__cls-2" data-name="Path 184"/>
        <path id="prefix__Path_185" d="M27 29.07a10.06 10.06 0 0 1 2 .86 11.24 11.24 0 0 1 4.53 4.51c.43.87.31 1 .26 1a.16.16 0 0 1-.23-.09 4.08 4.08 0 0 0-.61-1 13.07 13.07 0 0 0-13-4.21c-5.06 1.6-13.87-.17-17.63-6C-2.23 17.18.1 7.54 7.55 2.71s17.2-3 21.78 4a15.31 15.31 0 0 1-1.14 17.82 5.58 5.58 0 0 0-1-2.35L27 22a5.8 5.8 0 0 0-.67-.7c.1-.25.19-.5.27-.77a13.32 13.32 0 0 0-2-11.14c-3.84-5.71-11-7.94-15.71-4.77S3 14.94 6.51 20.85a13.61 13.61 0 0 0 10.87 6.07 4.77 4.77 0 0 1-.26-2.52 2.748 2.748 0 0 0 .41.73A5.81 5.81 0 0 0 19 26.67a8.65 8.65 0 0 0 3.52 1.54 31.58 31.58 0 0 1 4.48.86z" class="prefix__cls-2" data-name="Path 185"/>
        <path id="prefix__Path_186" d="M26.37 21.3a5 5 0 0 0-3.66-1.42 4.24 4.24 0 0 1 3.94.75" class="prefix__cls-2" data-name="Path 186"/>
    </g>
</svg>
