<svg xmlns="http://www.w3.org/2000/svg" width="21" height="17" viewBox="0 0 21 17">
  <g id="register-icon" transform="translate(-1790.519 -266.672)">
    <path id="Path_234" data-name="Path 234" d="M-2799.169,49.054s2.132-5.382,3.678-5.382,3.589,5.382,3.589,5.382Z" transform="translate(4596.514 223)" fill="#fff"/>
    <path id="Path_235" data-name="Path 235" d="M-2814.481,56.4s-.022,3.786,1.466,4.523,4.751.87,9.426.87,7.154-.125,8.466-.87,1.643-4.523,1.643-4.523a68.765,68.765,0,0,1-10.108.82A87.937,87.937,0,0,1-2814.481,56.4Z" transform="translate(4605 215.851)" fill="#fff"/>
    <path id="Path_236" data-name="Path 236" d="M-2798.228,74.646a2.98,2.98,0,0,0-2.327.948,3.785,3.785,0,0,0-1.1,2.471,4.468,4.468,0,0,1,1.556-1.088c.954-.386,1.546.016,2.345-.278s.867-.479.867-.957A1.2,1.2,0,0,0-2798.228,74.646Z" transform="translate(4597.89 205.606)" fill="#fff"/>
    <path id="Path_237" data-name="Path 237" d="M-2800.306,74.646a2.98,2.98,0,0,1,2.327.948,3.785,3.785,0,0,1,1.1,2.471,4.467,4.467,0,0,0-1.556-1.088c-.953-.386-1.545.016-2.344-.278s-.867-.479-.867-.957A1.205,1.205,0,0,1-2800.306,74.646Z" transform="translate(4602.793 205.606)" fill="#fff"/>
  </g>
</svg>
