<svg xmlns="http://www.w3.org/2000/svg" width="45.107" height="45.107" viewBox="0 0 45.107 45.107">
  <g id="roulette-categ-icon" transform="translate(-1 -1)">
    <path id="Path_62" data-name="Path 62" d="M23.554,1A22.554,22.554,0,1,0,46.107,23.554,22.579,22.579,0,0,0,23.554,1Zm0,37.832A15.278,15.278,0,1,1,38.832,23.554,15.3,15.3,0,0,1,23.554,38.832ZM39.316,17.941l3.924-1.962a21.054,21.054,0,0,1,.1,14.9L39.4,28.913a16.683,16.683,0,0,0-.086-10.972Zm3.353-3.3L38.763,16.59a16.835,16.835,0,0,0-8.247-8.247l1.953-3.906a21.222,21.222,0,0,1,10.2,10.2ZM31.129,3.867,29.167,7.792a16.7,16.7,0,0,0-11.225,0L15.979,3.867a21.022,21.022,0,0,1,15.15,0Zm-16.491.57L16.59,8.344a16.835,16.835,0,0,0-8.135,8l-3.9-1.952A21.232,21.232,0,0,1,14.638,4.438ZM3.966,15.728l3.919,1.959A16.7,16.7,0,0,0,7.792,29.17L3.868,31.132a21.023,21.023,0,0,1,.1-15.4Zm.473,16.744L8.345,30.52a16.833,16.833,0,0,0,8.122,8.188l-1.953,3.906A21.231,21.231,0,0,1,4.439,32.473ZM15.852,43.191l1.959-3.919a16.753,16.753,0,0,0,11.485,0l1.959,3.919a21.022,21.022,0,0,1-15.4,0Zm16.741-.577-1.953-3.906a16.832,16.832,0,0,0,8.232-8.432l3.906,1.953A21.229,21.229,0,0,1,32.593,42.614Z" fill="#55c12f"/>
    <path id="Path_63" data-name="Path 63" d="M26.823,13A13.823,13.823,0,1,0,40.646,26.823,13.839,13.839,0,0,0,26.823,13Zm0,26.191A12.368,12.368,0,1,1,39.191,26.823,12.382,12.382,0,0,1,26.823,39.191Z" transform="translate(-3.27 -3.27)" fill="#55c12f"/>
    <path id="Path_64" data-name="Path 64" d="M31.093,22.455V21H29.638v1.455a3.638,3.638,0,1,0,0,7.275V34.1a2.185,2.185,0,0,1-2.183-2.183v-.728H26v.728a3.642,3.642,0,0,0,3.638,3.638v1.455h1.455V35.551a3.638,3.638,0,0,0,0-7.275V23.91a2.185,2.185,0,0,1,2.183,2.183v.728H34.73v-.728A3.642,3.642,0,0,0,31.093,22.455Zm2.183,9.458A2.185,2.185,0,0,1,31.093,34.1V29.73A2.185,2.185,0,0,1,33.275,31.913Zm-3.638-3.638a2.183,2.183,0,0,1,0-4.365Z" transform="translate(-6.812 -5.449)" fill="#55c12f"/>
    <path id="Path_65" data-name="Path 65" d="M28.186,18A10.186,10.186,0,1,0,38.371,28.186,10.2,10.2,0,0,0,28.186,18Zm0,18.916a8.73,8.73,0,1,1,8.73-8.73A8.74,8.74,0,0,1,28.186,36.916Z" transform="translate(-4.632 -4.632)" fill="#55c12f"/>
    <circle id="Ellipse_19" data-name="Ellipse 19" cx="1.5" cy="1.5" r="1.5" transform="translate(22.31 2.94)" fill="#55c12f"/>
    <circle id="Ellipse_20" data-name="Ellipse 20" cx="1.5" cy="1.5" r="1.5" transform="translate(22.31 40.94)" fill="#55c12f"/>
    <circle id="Ellipse_21" data-name="Ellipse 21" cx="1.5" cy="1.5" r="1.5" transform="translate(41.31 21.94)" fill="#55c12f"/>
    <circle id="Ellipse_22" data-name="Ellipse 22" cx="1.5" cy="1.5" r="1.5" transform="translate(3.31 21.94)" fill="#55c12f"/>
    <path id="Path_66" data-name="Path 66" d="M48.812,48.812a1.455,1.455,0,1,0,2.057,0A1.456,1.456,0,0,0,48.812,48.812Z" transform="translate(-12.911 -12.911)" fill="#55c12f"/>
    <path id="Path_67" data-name="Path 67" d="M13.07,14.525a1.454,1.454,0,1,0-1.029-.426A1.45,1.45,0,0,0,13.07,14.525Z" transform="translate(-2.892 -2.893)" fill="#55c12f"/>
    <path id="Path_68" data-name="Path 68" d="M49.84,14.525a1.454,1.454,0,1,0-1.029-.426A1.45,1.45,0,0,0,49.84,14.525Z" transform="translate(-12.911 -2.893)" fill="#55c12f"/>
    <path id="Path_69" data-name="Path 69" d="M12.042,48.812a1.455,1.455,0,1,0,2.057,0A1.456,1.456,0,0,0,12.042,48.812Z" transform="translate(-2.892 -12.911)" fill="#55c12f"/>
  </g>
</svg>
