<svg xmlns="http://www.w3.org/2000/svg" width="30" height="30" viewBox="0 0 30 30">
  <g id="Group_302" data-name="Group 302" transform="translate(-711 -603)">
    <rect id="Rectangle_214" data-name="Rectangle 214" width="30" height="30" rx="15" transform="translate(711 603)" fill="#2f77c2"/>
    <path id="Polygon_20" data-name="Polygon 20" d="M3.106,1.789a1,1,0,0,1,1.789,0L7.276,6.553A1,1,0,0,1,6.382,8H1.618A1,1,0,0,1,.724,6.553Z" transform="translate(731 614) rotate(90)" fill="#fff"/>
    <g id="liveplay-icon" transform="translate(719 608)">
      <g id="Subtraction_3" data-name="Subtraction 3" transform="translate(0 1)" fill="none" stroke-linejoin="round">
        <path d="M3,0h8a3,3,0,0,1,3,3V16.065a3,3,0,0,1-3,3H3a3,3,0,0,1-3-3V3A3,3,0,0,1,3,0Z" stroke="none"/>
        <path d="M 3 1.999994277954102 C 2.448599815368652 1.999994277954102 2 2.44859504699707 2 2.999994277954102 L 2 16.06542587280273 C 2 16.61682510375977 2.448599815368652 17.06542587280273 3 17.06542587280273 L 11 17.06542587280273 C 11.55140018463135 17.06542587280273 12 16.61682510375977 12 16.06542587280273 L 12 2.999994277954102 C 12 2.44859504699707 11.55140018463135 1.999994277954102 11 1.999994277954102 L 3 1.999994277954102 M 3 -5.7220458984375e-06 L 11 -5.7220458984375e-06 C 12.65684986114502 -5.7220458984375e-06 14 1.343145370483398 14 2.999994277954102 L 14 16.06542587280273 C 14 17.7222843170166 12.65684986114502 19.0654239654541 11 19.0654239654541 L 3 19.0654239654541 C 1.34315013885498 19.0654239654541 0 17.7222843170166 0 16.06542587280273 L 0 2.999994277954102 C 0 1.343145370483398 1.34315013885498 -5.7220458984375e-06 3 -5.7220458984375e-06 Z" stroke="none" fill="#fff"/>
      </g>
    </g>
  </g>
</svg>
