<svg xmlns="http://www.w3.org/2000/svg" width="30" height="30" viewBox="0 0 30 30">
  <g id="Group_277" data-name="Group 277" transform="translate(-135 -686)">
    <circle id="Ellipse_87" data-name="Ellipse 87" cx="15" cy="15" r="15" transform="translate(135 686)" fill="#2e611d"/>
    <rect id="Rectangle_240" data-name="Rectangle 240" width="30" height="30" rx="10" transform="translate(135 686)" fill="#1f4e0f"/>
    <g id="Group_278" data-name="Group 278" transform="translate(138 691.8)">
      <path id="Path_234" data-name="Path 234" d="M-2799.169,49.567s2.335-5.895,4.029-5.895,3.93,5.895,3.93,5.895Z" transform="translate(2806.646 -43.672)" fill="#55c12f"/>
      <path id="Path_235" data-name="Path 235" d="M-2814.481,56.4s-.024,4.147,1.605,4.954,5.2.953,10.324.953,7.835-.137,9.272-.953,1.8-4.954,1.8-4.954a75.313,75.313,0,0,1-11.071.9A96.314,96.314,0,0,1-2814.481,56.4Z" transform="translate(2814.481 -50.29)" fill="#55c12f"/>
      <path id="Path_236" data-name="Path 236" d="M-2797.9,74.646a3.264,3.264,0,0,0-2.549,1.039,4.146,4.146,0,0,0-1.2,2.707,4.893,4.893,0,0,1,1.7-1.191c1.044-.423,1.693.017,2.568-.3s.949-.525.949-1.048A1.32,1.32,0,0,0-2797.9,74.646Z" transform="translate(2807.916 -59.773)" fill="#55c12f"/>
      <path id="Path_237" data-name="Path 237" d="M-2800.178,74.646a3.264,3.264,0,0,1,2.549,1.039,4.145,4.145,0,0,1,1.2,2.707,4.892,4.892,0,0,0-1.7-1.191c-1.044-.423-1.692.017-2.568-.3s-.95-.525-.95-1.048A1.32,1.32,0,0,1-2800.178,74.646Z" transform="translate(2813.286 -59.773)" fill="#55c12f"/>
    </g>
  </g>
</svg>
