<svg xmlns="http://www.w3.org/2000/svg" width="30" height="30" viewBox="0 0 30 30">
  <g id="Group_300" data-name="Group 300" transform="translate(-191 -603)">
    <g id="Rectangle_208" data-name="Rectangle 208" transform="translate(191 603)" fill="#55c12f" stroke="#55c12f" stroke-width="1">
      <rect width="30" height="30" rx="15" stroke="none"/>
      <rect x="0.5" y="0.5" width="29" height="29" rx="14.5" fill="none"/>
    </g>
    <g id="Group_299" data-name="Group 299">
      <g id="Subtraction_6" data-name="Subtraction 6" transform="translate(197 612)" fill="none">
        <path d="M16,13H2a2,2,0,0,1-2-2V2A2,2,0,0,1,2,0H16a2,2,0,0,1,2,2v9A2,2,0,0,1,16,13ZM1.7,10.833a.542.542,0,1,0,0,1.084H16.3a.542.542,0,1,0,0-1.084ZM3.154,2.265a2,2,0,0,0-2,2V7.317a2,2,0,0,0,2,2H14.846a2,2,0,0,0,2-2V4.265a2,2,0,0,0-2-2Z" stroke="none"/>
        <path d="M 16.00020027160645 12.99960041046143 L 1.999799966812134 12.99960041046143 C 0.8971099853515625 12.99960041046143 0 12.10249042510986 0 10.99979972839355 L 0 1.999800205230713 C 0 0.8971102237701416 0.8971099853515625 2.052307195299363e-07 1.999799966812134 2.052307195299363e-07 L 16.00020027160645 2.052307195299363e-07 C 17.10289001464844 2.052307195299363e-07 18 0.8971102237701416 18 1.999800205230713 L 18 10.99979972839355 C 18 12.10249042510986 17.10289001464844 12.99960041046143 16.00020027160645 12.99960041046143 Z M 1.695600032806396 10.83330059051514 C 1.396849989891052 10.83330059051514 1.153800010681152 11.07635021209717 1.153800010681152 11.37510013580322 C 1.153800010681152 11.67385005950928 1.396849989891052 11.91690063476563 1.695600032806396 11.91690063476563 L 16.30439949035645 11.91690063476563 C 16.6031494140625 11.91690063476563 16.84620094299316 11.67385005950928 16.84620094299316 11.37510013580322 C 16.84620094299316 11.07635021209717 16.6031494140625 10.83330059051514 16.30439949035645 10.83330059051514 L 1.695600032806396 10.83330059051514 Z M 3.153599977493286 2.265300273895264 C 2.050909996032715 2.265300273895264 1.153800010681152 3.162410259246826 1.153800010681152 4.265100002288818 L 1.153800010681152 7.317000389099121 C 1.153800010681152 8.419690132141113 2.050909996032715 9.316800117492676 3.153599977493286 9.316800117492676 L 14.84640026092529 9.316800117492676 C 15.94909000396729 9.316800117492676 16.84620094299316 8.419690132141113 16.84620094299316 7.317000389099121 L 16.84620094299316 4.265100002288818 C 16.84620094299316 3.162410259246826 15.94909000396729 2.265300273895264 14.84640026092529 2.265300273895264 L 3.153599977493286 2.265300273895264 Z" stroke="none" fill="#fff"/>
      </g>
      <path id="Path_257" data-name="Path 257" d="M-9799.63,4430.027h2.745l-2.139,4.106" transform="translate(9999.437 -3814.298)" fill="none" stroke="#fff" stroke-linecap="round" stroke-linejoin="round" stroke-width="1.2"/>
      <path id="Path_258" data-name="Path 258" d="M-9799.63,4430.027h2.745l-2.139,4.106" transform="translate(10004.419 -3814.298)" fill="none" stroke="#fff" stroke-linecap="round" stroke-linejoin="round" stroke-width="1.2"/>
      <path id="Path_259" data-name="Path 259" d="M-9799.63,4430.027h2.745l-2.139,4.106" transform="translate(10009.4 -3814.298)" fill="none" stroke="#fff" stroke-linecap="round" stroke-linejoin="round" stroke-width="1.2"/>
    </g>
  </g>
</svg>
