<svg xmlns="http://www.w3.org/2000/svg" width="30" height="30" viewBox="0 0 30 30">
  <g id="Group_304" data-name="Group 304" transform="translate(-1019 -603)">
    <rect id="Rectangle_216" data-name="Rectangle 216" width="30" height="30" rx="15" transform="translate(1019 603)" fill="#abcb00"/>
    <g id="liveplay-icon" transform="translate(1027 608)">
      <g id="Subtraction_3" data-name="Subtraction 3" transform="translate(0 1)" fill="none" stroke-linejoin="round">
        <path d="M3,0h8a3,3,0,0,1,3,3V16.065a3,3,0,0,1-3,3H3a3,3,0,0,1-3-3V3A3,3,0,0,1,3,0Z" stroke="none"/>
        <path d="M 3 1.999994277954102 C 2.448599815368652 1.999994277954102 2 2.44859504699707 2 2.999994277954102 L 2 16.06542587280273 C 2 16.61682510375977 2.448599815368652 17.06542587280273 3 17.06542587280273 L 11 17.06542587280273 C 11.55140018463135 17.06542587280273 12 16.61682510375977 12 16.06542587280273 L 12 2.999994277954102 C 12 2.44859504699707 11.55140018463135 1.999994277954102 11 1.999994277954102 L 3 1.999994277954102 M 3 -5.7220458984375e-06 L 11 -5.7220458984375e-06 C 12.65684986114502 -5.7220458984375e-06 14 1.343145370483398 14 2.999994277954102 L 14 16.06542587280273 C 14 17.7222843170166 12.65684986114502 19.0654239654541 11 19.0654239654541 L 3 19.0654239654541 C 1.34315013885498 19.0654239654541 0 17.7222843170166 0 16.06542587280273 L 0 2.999994277954102 C 0 1.343145370483398 1.34315013885498 -5.7220458984375e-06 3 -5.7220458984375e-06 Z" stroke="none" fill="#fff"/>
      </g>
      <path id="Icon_feather-heart" data-name="Icon feather-heart" d="M7.513,4.994a1.35,1.35,0,0,0-2.093,0l-.285.327-.285-.327a1.35,1.35,0,0,0-2.093,0,1.877,1.877,0,0,0,0,2.4l.285.327,2.093,2.4,2.093-2.4.285-.327a1.877,1.877,0,0,0,0-2.4Z" transform="translate(1.865 3.434)" fill="#fff"/>
    </g>
  </g>
</svg>
