<svg xmlns="http://www.w3.org/2000/svg" width="30" height="30" viewBox="0 0 30 30">
  <g id="Group_301" data-name="Group 301" transform="translate(-516 -603)">
    <rect id="Rectangle_213" data-name="Rectangle 213" width="30" height="30" rx="15" transform="translate(516 603)" fill="#f54d08"/>
    <g id="people" transform="translate(455.778 608)">
      <g id="Group_73" data-name="Group 73" transform="translate(68.222 10.736)">
        <g id="Group_72" data-name="Group 72">
          <path id="Path_50" data-name="Path 50" d="M73.278,290.133v1.322a.316.316,0,0,1-.276.316l-2.842.354a2.209,2.209,0,0,0-1.938,2.208v4.01h.632V294.33a1.579,1.579,0,0,1,1.384-1.579l2.842-.354a.946.946,0,0,0,.829-.945v-1.32Z" transform="translate(-68.222 -290.133)" fill="#fff"/>
        </g>
      </g>
      <g id="Group_75" data-name="Group 75" transform="translate(76.432 10.736)">
        <g id="Group_74" data-name="Group 74">
          <path id="Path_51" data-name="Path 51" d="M293.838,292.14,291,291.787a.317.317,0,0,1-.276-.318v-1.336h-.632v1.333a.948.948,0,0,0,.829.947l2.842.353a1.58,1.58,0,0,1,1.384,1.581v3.994h.632v-3.992A2.21,2.21,0,0,0,293.838,292.14Z" transform="translate(-290.089 -290.133)" fill="#fff"/>
        </g>
      </g>
      <g id="Group_77" data-name="Group 77" transform="translate(78.642 5.052)">
        <g id="Group_76" data-name="Group 76" transform="translate(0)">
          <path id="Path_52" data-name="Path 52" d="M350.14,136.533h-.316v.632h.316a.632.632,0,0,1,0,1.263h-.316v.631h.316a1.263,1.263,0,0,0,0-2.526Z" transform="translate(-349.824 -136.533)" fill="#fff"/>
        </g>
      </g>
      <g id="Group_79" data-name="Group 79" transform="translate(72.037 12.506)">
        <g id="Group_78" data-name="Group 78">
          <path id="Path_53" data-name="Path 53" d="M177,337.971l-.2.471a2.552,2.552,0,0,1-2.349,1.548h0a2.552,2.552,0,0,1-2.348-1.548l-.2-.47-.58.249.2.47a3.182,3.182,0,0,0,2.928,1.931h0a3.183,3.183,0,0,0,2.929-1.931l.2-.47Z" transform="translate(-171.316 -337.971)" fill="#fff"/>
        </g>
      </g>
      <g id="Group_83" data-name="Group 83" transform="translate(70.235)">
        <g id="Group_82" data-name="Group 82" transform="translate(0)">
          <path id="Path_55" data-name="Path 55" d="M127.552,0c-2.3,0-3.821.949-4.4,2.742a16.735,16.735,0,0,0,.644,10.335l.575-.261a15.986,15.986,0,0,1-.619-9.876c.5-1.532,1.778-2.308,3.8-2.308,2.954,0,4.1,1.417,4.1,5.052h.632C132.288,1.7,130.872,0,127.552,0Z" transform="translate(-122.618)" fill="#fff"/>
        </g>
      </g>
      <g id="Group_85" data-name="Group 85" transform="translate(71.38 2.526)">
        <g id="Group_84" data-name="Group 84">
          <path id="Path_56" data-name="Path 56" d="M160.891,70.8c-3.947-.911-5.517-2.427-5.531-2.441a.316.316,0,0,0-.512.1l-1.263,2.842a.318.318,0,0,0-.026.153l.173,2.2a3.619,3.619,0,0,0,7.23.008l.174-2.526A.316.316,0,0,0,160.891,70.8Zm-.56,2.82a2.987,2.987,0,0,1-5.969-.011l-.168-2.13,1.06-2.384a14.018,14.018,0,0,0,5.232,2.259Z" transform="translate(-153.557 -68.265)" fill="#fff"/>
        </g>
      </g>
      <g id="Group_89" data-name="Group 89" transform="translate(78.654 6.946)">
        <g id="Group_88" data-name="Group 88" transform="translate(0)">
          <path id="Path_57" data-name="Path 57" d="M350.768,187.725a28.106,28.106,0,0,1-.62,5.913l.608.173a28.129,28.129,0,0,0,.644-6.086Z" transform="translate(-350.149 -187.725)" fill="#fff"/>
        </g>
      </g>
      <g id="Group_91" data-name="Group 91" transform="translate(70.117 15.472)">
        <g id="Group_90" data-name="Group 90">
          <path id="Path_58" data-name="Path 58" d="M120.056,418.133v.873l-.033.066a5.69,5.69,0,0,0-.6,2.535h.632a5.056,5.056,0,0,1,.532-2.252l.066-.133a.317.317,0,0,0,.033-.141v-.947Z" transform="translate(-119.425 -418.133)" fill="#fff"/>
        </g>
      </g>
      <g id="Group_93" data-name="Group 93" transform="translate(68.538 16.104)">
        <g id="Group_92" data-name="Group 92" transform="translate(0)">
          <rect id="Rectangle_118" data-name="Rectangle 118" width="2.526" height="0.632" fill="#fff"/>
        </g>
      </g>
      <g id="Group_95" data-name="Group 95" transform="translate(79.274 16.104)">
        <g id="Group_94" data-name="Group 94">
          <rect id="Rectangle_119" data-name="Rectangle 119" width="2.526" height="0.632" fill="#fff"/>
        </g>
      </g>
      <g id="Group_97" data-name="Group 97" transform="translate(78.958 15.472)">
        <g id="Group_96" data-name="Group 96">
          <path id="Path_59" data-name="Path 59" d="M359.021,419.073l-.033-.066v-.873h-.632v.947a.317.317,0,0,0,.033.141l.066.133a5.049,5.049,0,0,1,.532,2.252h.632A5.684,5.684,0,0,0,359.021,419.073Z" transform="translate(-358.357 -418.134)" fill="#fff"/>
        </g>
      </g>
      <g id="Group_101" data-name="Group 101" transform="translate(70.43 18.945)">
        <g id="Group_100" data-name="Group 100">
          <path id="Path_60" data-name="Path 60" d="M83.977,96.423a1.714,1.714,0,0,1-1.85,1.272,10.357,10.357,0,0,1-1.508,0c-.54-.044-1.178-1.272-1.178-1.272" transform="translate(-79.44 -96.423)" fill="none" stroke="#fff" stroke-linecap="round" stroke-linejoin="round" stroke-width="0.7"/>
        </g>
      </g>
      <g id="Group_99" data-name="Group 99" transform="translate(75.352 18.945)">
        <g id="Group_98" data-name="Group 98">
          <path id="Path_61" data-name="Path 61" d="M83.977,96.423a1.714,1.714,0,0,1-1.85,1.272,10.359,10.359,0,0,1-1.508,0c-.54-.044-1.178-1.272-1.178-1.272" transform="translate(-79.44 -96.423)" fill="none" stroke="#fff" stroke-linecap="round" stroke-linejoin="round" stroke-width="0.7"/>
        </g>
      </g>
    </g>
  </g>
</svg>
