<svg xmlns="http://www.w3.org/2000/svg" width="40" height="40" viewBox="0 0 40 40">
  <g id="Group_430" data-name="Group 430" transform="translate(-29 -400)">
    <circle id="Ellipse_78" data-name="Ellipse 78" cx="20" cy="20" r="20" transform="translate(29 400)" fill="#fea429" opacity="0.1"/>
    <path id="Icon_awesome-gift" data-name="Icon awesome-gift" d="M1.25,18.593A1.252,1.252,0,0,0,2.5,19.85H8.75V13.564H1.25Zm10,1.257H17.5a1.252,1.252,0,0,0,1.25-1.257V13.564h-7.5Zm7.5-12.571H17.105A3.431,3.431,0,0,0,14.063,2.25c-1.625,0-2.676.837-4.023,2.683C8.691,3.087,7.641,2.25,6.016,2.25A3.452,3.452,0,0,0,2.578,5.707a3.393,3.393,0,0,0,.395,1.571H1.25A1.252,1.252,0,0,0,0,8.536v3.143a.629.629,0,0,0,.625.629h18.75A.629.629,0,0,0,20,11.679V8.536A1.252,1.252,0,0,0,18.75,7.279Zm-12.738,0a1.571,1.571,0,0,1,0-3.143c.777,0,1.352.13,3.363,3.143Zm8.051,0H10.7c2.008-3.005,2.566-3.143,3.363-3.143a1.571,1.571,0,0,1,0,3.143Z" transform="translate(39 408.75)" fill="#fea429"/>
  </g>
</svg>
