<svg xmlns="http://www.w3.org/2000/svg" width="40" height="40" viewBox="0 0 40 40">
  <g id="Group_428" data-name="Group 428" transform="translate(-29 -261)">
    <circle id="Ellipse_73" data-name="Ellipse 73" cx="20" cy="20" r="20" transform="translate(29 261)" fill="#fe4141" opacity="0.1"/>
    <g id="Group_64" data-name="Group 64" transform="translate(38 269.46)">
      <path id="Icon_material-today" data-name="Icon material-today" d="M24.056,3.876H22.833V1.5H20.389V3.876H10.611V1.5H8.167V3.876H6.944A2.4,2.4,0,0,0,4.512,6.252L4.5,22.884A2.41,2.41,0,0,0,6.944,25.26H24.056A2.418,2.418,0,0,0,26.5,22.884V6.252A2.418,2.418,0,0,0,24.056,3.876Zm.3,19.425H6.568V6.774H24.355Z" transform="translate(-4.5 -1.5)" fill="#fe4141"/>
      <text id="_" data-name="$" transform="translate(7.16 17.28)" fill="#fe4141" font-size="13" font-family="SFProDisplay-Semibold, SF Pro Display" font-weight="600"><tspan x="0" y="0">$</tspan></text>
    </g>
  </g>
</svg>
