<svg xmlns="http://www.w3.org/2000/svg" width="40" height="40" viewBox="0 0 40 40">
  <g id="Group_426" data-name="Group 426" transform="translate(-29 -123)">
    <circle id="Ellipse_76" data-name="Ellipse 76" cx="20" cy="20" r="20" transform="translate(29 123)" fill="#55c12f" opacity="0.1"/>
    <g id="Group_60" data-name="Group 60" transform="translate(37.729 132)">
      <path id="Subtraction_3" data-name="Subtraction 3" d="M19.212,16.666H2a2,2,0,0,1-2-2V2A2,2,0,0,1,2,0H19.212a2,2,0,0,1,2,2V14.666A2,2,0,0,1,19.212,16.666ZM2.054,13.889a.694.694,0,0,0,0,1.389h17.1a.694.694,0,0,0,0-1.389ZM3.36,2.9a2,2,0,0,0-2,2v5.04a2,2,0,0,0,2,2H17.852a2,2,0,0,0,2-2V4.9a2,2,0,0,0-2-2Z" transform="translate(0 5.303)" fill="#55c12f"/>
      <path id="Rectangle_117" data-name="Rectangle 117" d="M4.545,0h7.576a4.545,4.545,0,0,1,4.545,4.545v0a0,0,0,0,1,0,0H0a0,0,0,0,1,0,0v0A4.545,4.545,0,0,1,4.545,0Z" transform="translate(2.273)" fill="#55c12f"/>
      <line id="Line_13" data-name="Line 13" y2="11.371" transform="translate(7.703 6.376)" fill="none" stroke="#55c12f" stroke-width="2"/>
      <line id="Line_14" data-name="Line 14" y2="11.371" transform="translate(13.968 6.376)" fill="none" stroke="#55c12f" stroke-width="2"/>
      <path id="Path_36" data-name="Path 36" d="M-9799.629,4430.027h1.723l-1.342,2.577" transform="translate(9803.274 -4418.898)" fill="none" stroke="#55c12f" stroke-linecap="round" stroke-linejoin="round" stroke-width="1.5"/>
      <path id="Path_37" data-name="Path 37" d="M-9799.629,4430.027h1.723l-1.342,2.577" transform="translate(9809.539 -4418.898)" fill="none" stroke="#55c12f" stroke-linecap="round" stroke-linejoin="round" stroke-width="1.5"/>
      <path id="Path_38" data-name="Path 38" d="M-9799.629,4430.027h1.723l-1.342,2.577" transform="translate(9815.805 -4418.898)" fill="none" stroke="#55c12f" stroke-linecap="round" stroke-linejoin="round" stroke-width="1.5"/>
      <path id="Path_39" data-name="Path 39" d="M-9936.963,4298.925v5.73a7.353,7.353,0,0,0,.775-1.227,8.239,8.239,0,0,0,.326-1.345h.461s1.007-.805,1.007-1.34v-6.412h-.333v6.412l-.674.77h-.461a8.658,8.658,0,0,0-.326-1.461A5.467,5.467,0,0,0-9936.963,4298.925Z" transform="translate(9958.818 -4287.428)" fill="#55c12f" stroke="#55c12f" stroke-linecap="round" stroke-linejoin="round" stroke-width="0.7"/>
      <circle id="Ellipse_17" data-name="Ellipse 17" cx="0.758" cy="0.758" r="0.758" transform="translate(23.485 4.545)" fill="#55c12f"/>
    </g>
  </g>
</svg>
