<svg xmlns="http://www.w3.org/2000/svg" width="45" height="15.368" viewBox="0 0 45 15.368">
    <defs>
        <clipPath id="prefix__clip-path">
            <path id="prefix__Path_183" d="M.02-101.108h45v15.368h-45z" data-name="Path 183"/>
        </clipPath>
    </defs>
    <g id="prefix__logo_skrill_a3b731757b02d70b6628a98fc96fa35b" transform="translate(-.02 101.108)">
        <path id="prefix__Path_182" d="M32.326-97.415a1.847 1.847 0 0 0 1.847-1.846 1.847 1.847 0 0 0-1.847-1.847 1.847 1.847 0 0 0-1.846 1.847 1.846 1.846 0 0 0 1.846 1.846zm-14.147 1a13.052 13.052 0 0 1-2.134 3.66v-7.51l-3.866.764v13.612h3.866V-90.1a14.623 14.623 0 0 1 1.673 4.208h4.63a30.005 30.005 0 0 0-2.462-5.415 16.961 16.961 0 0 0 2.714-5.111h-4.421zm10.163-.142c-3.463.111-5.22 1.665-5.22 4.753v5.916H26.9v-4.824c0-1.849.242-2.642 2.436-2.717v-3.073a5.238 5.238 0 0 0-.994-.054zM5.7-94.919c-.474-.031-1.57-.1-1.57-1.089C4.126-97.2 5.7-97.2 6.3-97.2a13.053 13.053 0 0 1 3.352.6s.537.189.994.383l.043.012v-3.265l-.058-.017a13.384 13.384 0 0 0-4.906-.78C1.5-100.268 0-97.808 0-95.7c0 1.215.521 4.074 5.357 4.4.41.025 1.5.088 1.5 1.108 0 .842-.891 1.339-2.389 1.339a11.758 11.758 0 0 1-4.2-.816v3.359a19.6 19.6 0 0 0 4.994.569c4.129 0 5.979-2.328 5.979-4.635-.004-2.611-2.074-4.311-5.541-4.543zm24.758 9.028H34.2v-10.515h-3.747zM41.255-99.6v13.706H45v-14.376zm-5.468 0l3.744-.67v14.376h-3.744V-99.6" data-name="Path 182" transform="translate(.017)" style="fill:#811963"/>
    </g>
</svg>
