<svg xmlns="http://www.w3.org/2000/svg" width="40" height="35" viewBox="0 0 40 35">
  <g id="Slots-categ-icon" transform="translate(-118.753 -230.42)">
    <g id="Subtraction_3" data-name="Subtraction 3" transform="translate(118.753 238.42)" fill="none">
      <path d="M32,27H2a2,2,0,0,1-2-2V2A2,2,0,0,1,2,0H32a2,2,0,0,1,2,2V25A2,2,0,0,1,32,27ZM3.3,22.5a1.125,1.125,0,0,0,0,2.25H30.7a1.125,1.125,0,0,0,0-2.25ZM4.18,4.705a2,2,0,0,0-2,2V17.35a2,2,0,0,0,2,2H29.821a2,2,0,0,0,2-2V6.7a2,2,0,0,0-2-2Z" stroke="none"/>
      <path d="M 32.00149154663086 3.353109121322632 L 32.00157165527344 2.003010034561157 C 32.0009880065918 2.001991987228394 31.99951171875 2.000411748886108 32.00040054321289 2 L 2.003010988235474 1.998630046844482 C 2.00205135345459 1.999178409576416 2.00059175491333 2.000523567199707 2.000082492828369 2.000523567199707 C 2.000051498413086 2.000523567199707 2.000024557113647 2.000517845153809 2.000000953674316 2.000507593154907 L 1.99992048740387 3.352638244628906 C 2.627325296401978 2.943336248397827 3.376230478286743 2.705199956893921 4.179601192474365 2.705199956893921 L 29.82060050964355 2.705199956893921 C 30.62455368041992 2.705199956893921 31.37375068664551 2.943428993225098 32.00149154663086 3.353109121322632 M 32.00040054321289 27 L 1.99980103969574 27 C 0.8971111178398132 27 1.089477564164554e-06 26.10289001464844 1.089477564164554e-06 25.00020027160645 L 1.089477564164554e-06 1.999799966812134 C 1.089477564164554e-06 0.8971099853515625 0.8971111178398132 -1.77635683940025e-15 1.99980103969574 -1.77635683940025e-15 L 32.00040054321289 -1.77635683940025e-15 C 33.10309219360352 -1.77635683940025e-15 34.00020217895508 0.8971099853515625 34.00020217895508 1.999799966812134 L 34.00020217895508 25.00020027160645 C 34.00020217895508 26.10289001464844 33.10309219360352 27 32.00040054321289 27 Z M 3.304800987243652 22.5 C 2.684471130371094 22.5 2.179800987243652 23.00466918945313 2.179800987243652 23.625 C 2.179800987243652 24.24533081054688 2.684471130371094 24.75 3.304800987243652 24.75 L 30.6963005065918 24.75 C 31.31663131713867 24.75 31.8213005065918 24.24533081054688 31.8213005065918 23.625 C 31.8213005065918 23.00466918945313 31.31663131713867 22.5 30.6963005065918 22.5 L 3.304800987243652 22.5 Z M 4.179601192474365 4.7052001953125 C 3.076910972595215 4.7052001953125 2.179800987243652 5.602310180664063 2.179800987243652 6.704999923706055 L 2.179800987243652 17.35020065307617 C 2.179800987243652 18.45289039611816 3.076910972595215 19.35000038146973 4.179601192474365 19.35000038146973 L 29.82060050964355 19.35000038146973 C 30.92379188537598 19.35000038146973 31.8213005065918 18.45289039611816 31.8213005065918 17.35020065307617 L 31.8213005065918 6.704999923706055 C 31.8213005065918 5.602310180664063 30.92379188537598 4.7052001953125 29.82060050964355 4.7052001953125 L 4.179601192474365 4.7052001953125 Z" stroke="none" fill="#55c12f"/>
    </g>
    <g id="Rectangle_117" data-name="Rectangle 117" transform="translate(122.753 230.42)" fill="none" stroke="#55c12f" stroke-width="2">
      <path d="M7,0H19a7,7,0,0,1,7,7V7a0,0,0,0,1,0,0H0A0,0,0,0,1,0,7V7A7,7,0,0,1,7,0Z" stroke="none"/>
      <path d="M5.917,1H20.083A4.917,4.917,0,0,1,25,5.917v0A.083.083,0,0,1,24.917,6H1.083A.083.083,0,0,1,1,5.917v0A4.917,4.917,0,0,1,5.917,1Z" fill="none"/>
    </g>
    <line id="Line_13" data-name="Line 13" y2="15.749" transform="translate(131.024 242.945)" fill="none" stroke="#55c12f" stroke-width="2"/>
    <line id="Line_14" data-name="Line 14" y2="15.749" transform="translate(141.005 242.945)" fill="none" stroke="#55c12f" stroke-width="2"/>
    <path id="Path_36" data-name="Path 36" d="M-9799.63,4430.027h2.745l-2.139,4.106" transform="translate(9924.189 -4181.878)" fill="none" stroke="#55c12f" stroke-linecap="round" stroke-linejoin="round" stroke-width="1.5"/>
    <path id="Path_37" data-name="Path 37" d="M-9799.63,4430.027h2.745l-2.139,4.106" transform="translate(9934.172 -4181.878)" fill="none" stroke="#55c12f" stroke-linecap="round" stroke-linejoin="round" stroke-width="1.5"/>
    <path id="Path_38" data-name="Path 38" d="M-9799.63,4430.027h2.745l-2.139,4.106" transform="translate(9944.153 -4181.878)" fill="none" stroke="#55c12f" stroke-linecap="round" stroke-linejoin="round" stroke-width="1.5"/>
    <g id="Path_39" data-name="Path 39" transform="translate(10090.534 -4052.914)" fill="none" stroke-linecap="round" stroke-linejoin="round">
      <path d="M-9936.963,4301.65v9.128a11.657,11.657,0,0,0,1.234-1.955,13.105,13.105,0,0,0,.52-2.143h.734s1.605-1.283,1.605-2.136V4294.33h-.531v10.215l-1.074,1.227h-.734a13.827,13.827,0,0,0-.52-2.328A8.666,8.666,0,0,0-9936.963,4301.65Z" stroke="none"/>
      <path d="M -9933.400390625 4294.330078125 L -9933.400390625 4304.544921875 L -9934.474609375 4305.771484375 L -9935.208984375 4305.771484375 C -9935.208984375 4305.771484375 -9935.431640625 4304.181640625 -9935.728515625 4303.44384765625 C -9936.029296875 4302.70703125 -9936.962890625 4301.650390625 -9936.962890625 4301.650390625 L -9936.962890625 4310.77880859375 C -9936.962890625 4310.77880859375 -9936.029296875 4309.568359375 -9935.728515625 4308.82373046875 C -9935.4296875 4308.07861328125 -9935.208984375 4306.6806640625 -9935.208984375 4306.6806640625 L -9934.474609375 4306.6806640625 C -9934.474609375 4306.6806640625 -9932.869140625 4305.39794921875 -9932.869140625 4304.544921875 C -9932.869140625 4303.69189453125 -9932.869140625 4294.330078125 -9932.869140625 4294.330078125 L -9933.400390625 4294.330078125 M -9933.400390625 4293.6298828125 L -9932.869140625 4293.6298828125 C -9932.482421875 4293.6298828125 -9932.1689453125 4293.943359375 -9932.1689453125 4294.330078125 L -9932.1689453125 4304.544921875 C -9932.1689453125 4305.64892578125 -9933.599609375 4306.87744140625 -9934.0380859375 4307.2275390625 C -9934.162109375 4307.32666015625 -9934.3154296875 4307.380859375 -9934.474609375 4307.380859375 L -9934.6240234375 4307.380859375 C -9934.72265625 4307.88232421875 -9934.8828125 4308.595703125 -9935.0791015625 4309.08447265625 C -9935.4072265625 4309.896484375 -9936.306640625 4311.07470703125 -9936.408203125 4311.20654296875 C -9936.5439453125 4311.38134765625 -9936.75 4311.47900390625 -9936.962890625 4311.47900390625 C -9937.0380859375 4311.47900390625 -9937.1142578125 4311.466796875 -9937.1884765625 4311.44140625 C -9937.47265625 4311.3447265625 -9937.6630859375 4311.07861328125 -9937.6630859375 4310.77880859375 L -9937.6630859375 4301.650390625 C -9937.6630859375 4301.359375 -9937.482421875 4301.0986328125 -9937.2109375 4300.99560546875 C -9937.1298828125 4300.96533203125 -9937.0458984375 4300.9501953125 -9936.962890625 4300.9501953125 C -9936.7666015625 4300.9501953125 -9936.57421875 4301.03369140625 -9936.4384765625 4301.18701171875 C -9936.3349609375 4301.30419921875 -9935.416015625 4302.3564453125 -9935.080078125 4303.17919921875 C -9934.8935546875 4303.64306640625 -9934.7412109375 4304.35302734375 -9934.6416015625 4304.89990234375 L -9934.1005859375 4304.28173828125 L -9934.1005859375 4294.330078125 C -9934.1005859375 4293.943359375 -9933.787109375 4293.6298828125 -9933.400390625 4293.6298828125 Z" stroke="none" fill="#55c12f"/>
    </g>
    <circle id="Ellipse_17" data-name="Ellipse 17" cx="1.5" cy="1.5" r="1.5" transform="translate(155.753 237.42)" fill="#55c12f"/>
  </g>
</svg>
