<svg xmlns="http://www.w3.org/2000/svg" width="33" height="29" viewBox="0 0 33 29">
  <g id="slots-leftmenu-icon" transform="translate(-0.193 0)">
    <path id="Subtraction_3" data-name="Subtraction 3" d="M26,22H2a2,2,0,0,1-2-2V2A2,2,0,0,1,2,0H26a2,2,0,0,1,2,2V20A2,2,0,0,1,26,22ZM2.712,18.333a.917.917,0,1,0,0,1.833H25.289a.917.917,0,0,0,0-1.833ZM3.8,3.833a2,2,0,0,0-2,2v7.933a2,2,0,0,0,2,2h20.41a2,2,0,0,0,2-2V5.834a2,2,0,0,0-2-2Z" transform="translate(0.193 7)" fill="#55c12f"/>
    <path id="Rectangle_117" data-name="Rectangle 117" d="M6,0H16a6,6,0,0,1,6,6V6a0,0,0,0,1,0,0H0A0,0,0,0,1,0,6V6A6,6,0,0,1,6,0Z" transform="translate(3.193 0)" fill="#55c12f"/>
    <line id="Line_13" data-name="Line 13" y2="15.01" transform="translate(10.168 8.416)" fill="none" stroke="#55c12f" stroke-width="2"/>
    <line id="Line_14" data-name="Line 14" y2="15.01" transform="translate(18.438 8.416)" fill="none" stroke="#55c12f" stroke-width="2"/>
    <path id="Path_36" data-name="Path 36" d="M-9799.629,4430.027h2.274l-1.772,3.4" transform="translate(9804.44 -4415.337)" fill="none" stroke="#55c12f" stroke-linecap="round" stroke-linejoin="round" stroke-width="1.5"/>
    <path id="Path_37" data-name="Path 37" d="M-9799.629,4430.027h2.274l-1.772,3.4" transform="translate(9812.711 -4415.337)" fill="none" stroke="#55c12f" stroke-linecap="round" stroke-linejoin="round" stroke-width="1.5"/>
    <path id="Path_38" data-name="Path 38" d="M-9799.629,4430.027h2.274l-1.772,3.4" transform="translate(9820.981 -4415.337)" fill="none" stroke="#55c12f" stroke-linecap="round" stroke-linejoin="round" stroke-width="1.5"/>
    <path id="Path_39" data-name="Path 39" d="M-9936.963,4300.4v7.563a9.646,9.646,0,0,0,1.022-1.62,10.854,10.854,0,0,0,.432-1.775h.607s1.33-1.063,1.33-1.77v-8.464h-.439v8.464l-.891,1.016h-.607a11.387,11.387,0,0,0-.432-1.929A7.177,7.177,0,0,0-9936.963,4300.4Z" transform="translate(9965.813 -4285.219)" fill="#55c12f" stroke="#55c12f" stroke-linecap="round" stroke-linejoin="round" stroke-width="0.7"/>
    <circle id="Ellipse_17" data-name="Ellipse 17" cx="1" cy="1" r="1" transform="translate(31.193 6)" fill="#55c12f"/>
  </g>
</svg>
