<svg xmlns="http://www.w3.org/2000/svg" xmlns:xlink="http://www.w3.org/1999/xlink" width="163.139" height="180.526" viewBox="0 0 163.139 180.526">
  <defs>
    <linearGradient id="linear-gradient" y1="0.5" x2="1" y2="0.5" gradientUnits="objectBoundingBox">
      <stop offset="0" stop-color="#dcc058"/>
      <stop offset="0.353" stop-color="#92761c"/>
      <stop offset="1" stop-color="#dcc058"/>
    </linearGradient>
    <linearGradient id="linear-gradient-21" x1="0" y1="0.5" x2="1" y2="0.5" xlink:href="#linear-gradient"/>
    <linearGradient id="linear-gradient-24" x1="0" y1="0.5" x2="1" y2="0.5" xlink:href="#linear-gradient"/>
    <linearGradient id="linear-gradient-33" x1="0" y1="0.5" x2="1" y2="0.5" xlink:href="#linear-gradient"/>
    <linearGradient id="linear-gradient-34" x1="0" y1="0.5" x2="1" y2="0.5" xlink:href="#linear-gradient"/>
    <linearGradient id="linear-gradient-36" x1="0" y1="0.5" x2="1" y2="0.5" xlink:href="#linear-gradient"/>
    <linearGradient id="linear-gradient-41" x1="0" y1="0.5" x2="1" y2="0.5" xlink:href="#linear-gradient"/>
    <linearGradient id="linear-gradient-42" x1="0" y1="0.5" x2="1" y2="0.5" xlink:href="#linear-gradient"/>
    <linearGradient id="linear-gradient-47" x1="0" y1="0.5" x2="1" y2="0.5" xlink:href="#linear-gradient"/>
    <linearGradient id="linear-gradient-68" x1="0" y1="0.5" x2="1" y2="0.5" xlink:href="#linear-gradient"/>
    <linearGradient id="linear-gradient-73" x1="0" y1="0.5" x2="1" y2="0.5" xlink:href="#linear-gradient"/>
    <linearGradient id="linear-gradient-86" x1="0" y1="0.5" x2="1" y2="0.5" xlink:href="#linear-gradient"/>
    <linearGradient id="linear-gradient-92" x1="0" y1="0.5" x2="1" y2="0.5" xlink:href="#linear-gradient"/>
    <linearGradient id="linear-gradient-96" x1="0" y1="0.5" x2="1" y2="0.5" xlink:href="#linear-gradient"/>
    <linearGradient id="linear-gradient-97" x1="0" y1="0.5" x2="1" y2="0.5" xlink:href="#linear-gradient"/>
    <linearGradient id="linear-gradient-101" x1="0" y1="0.5" x2="1" y2="0.5" xlink:href="#linear-gradient"/>
    <linearGradient id="linear-gradient-122" x1="0" y1="0.5" x2="1" y2="0.5" xlink:href="#linear-gradient"/>
    <linearGradient id="linear-gradient-128" x1="0" y1="0.5" x2="1" y2="0.5" xlink:href="#linear-gradient"/>
    <linearGradient id="linear-gradient-132" x1="0" y1="0.5" x2="1" y2="0.5" xlink:href="#linear-gradient"/>
    <linearGradient id="linear-gradient-140" x1="-43.485" y1="75.985" x2="-42.794" y2="75.985" xlink:href="#linear-gradient"/>
    <linearGradient id="linear-gradient-141" x1="-122.04" y1="69.401" x2="-121.352" y2="69.401" xlink:href="#linear-gradient"/>
    <linearGradient id="linear-gradient-142" x1="-217.882" y1="-11.481" x2="-216.882" y2="-11.481" xlink:href="#linear-gradient"/>
    <linearGradient id="linear-gradient-143" x1="-106.799" y1="-90.022" x2="-106.108" y2="-90.022" xlink:href="#linear-gradient"/>
    <linearGradient id="linear-gradient-144" x1="-27.177" y1="-83.542" x2="-26.488" y2="-83.542" xlink:href="#linear-gradient"/>
    <linearGradient id="linear-gradient-145" x1="0.25" y1="0.9" x2="0.787" y2="0.041" gradientUnits="objectBoundingBox">
      <stop offset="0" stop-color="#dcc058"/>
      <stop offset="1" stop-color="#92761c"/>
    </linearGradient>
    <linearGradient id="linear-gradient-146" x1="0.743" y1="-0.014" x2="0.231" y2="1.069" xlink:href="#linear-gradient-145"/>
    <linearGradient id="linear-gradient-147" x1="0.666" y1="0.149" x2="0.154" y2="1.231" xlink:href="#linear-gradient-145"/>
    <radialGradient id="radial-gradient" cx="0.5" cy="0.5" r="0.5" gradientUnits="objectBoundingBox">
      <stop offset="0" stop-color="#f5cf40"/>
      <stop offset="1" stop-color="#c5a438"/>
    </radialGradient>
  </defs>
  <g id="_3rank-icon-m" data-name="3rank-icon-m" transform="translate(-3977.469 -6881.549)">
    <g id="Group_3036" data-name="Group 3036" transform="translate(3997 6902)">
      <path id="Path_31680" data-name="Path 31680" d="M2157.077,685.1a3.024,3.024,0,1,0-1.833-2.78c0,.024,0,.047,0,.07l-37.423-.07-16.6-29.4a3.025,3.025,0,1,0-2.615-.514l-14.534,29.96-37.519-.39a2.837,2.837,0,1,0-1.379,2.786l22.379,31.574-23.279,31.444a2.647,2.647,0,1,0,1.1,2.791l38.622.349,14.99,29.318a2.834,2.834,0,1,0,2.457-.217l14.994-29.528,37.493-.13a3.027,3.027,0,1,0,1.232-2.639l-21.274-31.389Z" transform="translate(-2038.682 -646.429)" opacity="0.8" fill="url(#linear-gradient)" style="mix-blend-mode: multiply;isolation: isolate"/>
      <g id="Group_3035" data-name="Group 3035" transform="translate(0)">
        <g id="Group_3032" data-name="Group 3032">
          <g id="Group_2908" data-name="Group 2908" transform="translate(3.561 3.579)">
            <path id="Path_31681" data-name="Path 31681" d="M2143.088,686.475h-.006l3.043,4.956h.027l13.229-26.458.044.084-.173-10.909Z" transform="translate(-2101.254 -654.117)" fill="url(#linear-gradient)"/>
            <path id="Path_31682" data-name="Path 31682" d="M2180.992,654.078l-.015.03.172,10.909,13.882,26.375h.05l2.915-5.007Z" transform="translate(-2122.979 -654.078)" fill="url(#linear-gradient)"/>
            <path id="Path_31683" data-name="Path 31683" d="M2274.568,843.845l-23.8-34.031h-6.047l20.331,29.075h-.116l9.624,4.956Z" transform="translate(-2159.523 -743.36)" fill="url(#linear-gradient)"/>
            <path id="Path_31684" data-name="Path 31684" d="M2194.157,877.953h-.033L2181,904.192v11.066l0,.008,16.179-32.358h.028Z" transform="translate(-2122.994 -782.424)" fill="url(#linear-gradient)"/>
            <path id="Path_31685" data-name="Path 31685" d="M2045.231,843.742l9.819-4.853h-.155l21.153-29.05-.017-.025h-6.095Z" transform="translate(-2045.156 -743.36)" fill="url(#linear-gradient)"/>
            <path id="Path_31686" data-name="Path 31686" d="M2056.924,734.864H2091.3l-3.043-4.956h-40.808l9.508,5Z" transform="translate(-2046.427 -697.55)" fill="url(#linear-gradient)"/>
            <path id="Path_31687" data-name="Path 31687" d="M2047.4,729.908h-.037l23.821,34.063-.024.034h6.094l-20.346-29.1Z" transform="translate(-2046.377 -697.55)" fill="url(#linear-gradient)"/>
            <path id="Path_31688" data-name="Path 31688" d="M2045.13,882.806l-.075.1h40.89l3.045-4.956h-34.041Z" transform="translate(-2045.055 -782.424)" fill="url(#linear-gradient)"/>
            <path id="Path_31689" data-name="Path 31689" d="M2157.893,904.411l-13.927-26.458h-.04l-3.045,4.956h.093L2158,915.258V904.192Z" transform="translate(-2099.992 -782.424)" fill="url(#linear-gradient)"/>
            <path id="Path_31690" data-name="Path 31690" d="M2246.081,877.953h-34.252l3.058,4.956H2255.7Z" transform="translate(-2140.666 -782.424)" fill="url(#linear-gradient)"/>
            <path id="Path_31691" data-name="Path 31691" d="M2250.661,763.971l24.8-34.063h-.04L2265.7,734.9l-21.129,29.016.064.092h6.048Z" transform="translate(-2159.438 -697.55)" fill="url(#linear-gradient)"/>
            <path id="Path_31692" data-name="Path 31692" d="M2216.974,729.84l-.027-.05-2.915,5.007h34.185l-.024.032,9.724-4.989Z" transform="translate(-2141.928 -697.483)" fill="url(#linear-gradient)"/>
          </g>
          <path id="Path_31693" data-name="Path 31693" d="M2102.115,764.191H2067.88l21.153-29.05-20.4-29.165h34.4l13.229-26.458,13.927,26.458h34.235l-21.153,29.049,20.4,29.167h-34.4l-13.229,26.458Z" transform="translate(-2054.58 -665.083)" fill="url(#linear-gradient)"/>
          <g id="Group_2909" data-name="Group 2909">
            <path id="Path_31694" data-name="Path 31694" d="M2306.153,883.761a3.469,3.469,0,1,1,3.469,3.469A3.469,3.469,0,0,1,2306.153,883.761Z" transform="translate(-2191.179 -780.185)" fill="url(#linear-gradient)"/>
            <path id="Path_31695" data-name="Path 31695" d="M2309.055,724.65a3.469,3.469,0,1,1,3.469,3.469A3.469,3.469,0,0,1,2309.055,724.65Z" transform="translate(-2192.843 -688.969)" fill="url(#linear-gradient)"/>
            <path id="Path_31696" data-name="Path 31696" d="M2036.71,883.761a3.469,3.469,0,1,1,3.469,3.469A3.47,3.47,0,0,1,2036.71,883.761Z" transform="translate(-2036.71 -780.185)" fill="url(#linear-gradient)"/>
            <path id="Path_31697" data-name="Path 31697" d="M2173.173,960.993a3.469,3.469,0,1,1,3.469,3.469A3.469,3.469,0,0,1,2173.173,960.993Z" transform="translate(-2114.943 -824.462)" fill="url(#linear-gradient)"/>
            <path id="Path_31698" data-name="Path 31698" d="M2173.173,649.161a3.469,3.469,0,1,1,3.469,3.469A3.469,3.469,0,0,1,2173.173,649.161Z" transform="translate(-2114.943 -645.691)" fill="url(#linear-gradient)"/>
            <circle id="Ellipse_247" data-name="Ellipse 247" cx="3.469" cy="3.469" r="3.469" transform="translate(1.194 39.105) rotate(-89.252)" fill="url(#linear-gradient-21)"/>
          </g>
          <g id="Group_3027" data-name="Group 3027" transform="translate(7.076 7.632)" opacity="0.8" style="mix-blend-mode: multiply;isolation: isolate">
            <g id="Group_2910" data-name="Group 2910" transform="translate(70.46 92.585)">
              <path id="Path_31699" data-name="Path 31699" d="M2221.413,881.381c-.522.084-1.138.69-1.383.808-.807.382-1.248-.693-1.613-.747.356-.069.729-1.167,1.551-.824A5.652,5.652,0,0,0,2221.413,881.381Z" transform="translate(-2218.417 -880.552)" fill="url(#linear-gradient)"/>
            </g>
            <g id="Group_2911" data-name="Group 2911" transform="translate(74.06 92.585)">
              <path id="Path_31700" data-name="Path 31700" d="M2229.85,881.381c-.523.084-1.14.69-1.384.808-.807.382-1.248-.693-1.612-.747.357-.069.728-1.167,1.551-.824A5.657,5.657,0,0,0,2229.85,881.381Z" transform="translate(-2226.854 -880.552)" fill="url(#linear-gradient)"/>
            </g>
            <g id="Group_2912" data-name="Group 2912" transform="translate(77.66 92.585)">
              <path id="Path_31701" data-name="Path 31701" d="M2238.287,881.381c-.522.084-1.139.69-1.383.808-.807.382-1.249-.693-1.614-.747.357-.069.729-1.167,1.552-.824A5.644,5.644,0,0,0,2238.287,881.381Z" transform="translate(-2235.29 -880.552)" fill="url(#linear-gradient-24)"/>
            </g>
            <g id="Group_2913" data-name="Group 2913" transform="translate(81.26 92.585)">
              <path id="Path_31702" data-name="Path 31702" d="M2246.724,881.381c-.523.084-1.139.69-1.385.808-.806.382-1.247-.693-1.613-.747.357-.069.729-1.167,1.551-.824A5.64,5.64,0,0,0,2246.724,881.381Z" transform="translate(-2243.727 -880.552)" fill="url(#linear-gradient)"/>
            </g>
            <g id="Group_2914" data-name="Group 2914" transform="translate(84.861 92.585)">
              <path id="Path_31703" data-name="Path 31703" d="M2255.161,881.381c-.522.084-1.138.69-1.384.808-.806.382-1.248-.693-1.612-.747.357-.069.729-1.167,1.551-.824A5.652,5.652,0,0,0,2255.161,881.381Z" transform="translate(-2252.165 -880.552)" fill="url(#linear-gradient-24)"/>
            </g>
            <g id="Group_2915" data-name="Group 2915" transform="translate(88.461 92.585)">
              <path id="Path_31704" data-name="Path 31704" d="M2263.6,881.381c-.523.084-1.14.69-1.384.808-.807.382-1.248-.693-1.613-.747.357-.069.729-1.167,1.551-.824A5.644,5.644,0,0,0,2263.6,881.381Z" transform="translate(-2260.602 -880.552)" fill="url(#linear-gradient)"/>
            </g>
            <g id="Group_2916" data-name="Group 2916" transform="translate(92.061 92.585)">
              <path id="Path_31705" data-name="Path 31705" d="M2272.035,881.381c-.523.084-1.139.69-1.384.808-.806.382-1.248-.693-1.612-.747.357-.069.729-1.167,1.551-.824A5.676,5.676,0,0,0,2272.035,881.381Z" transform="translate(-2269.038 -880.552)" fill="url(#linear-gradient)"/>
            </g>
            <g id="Group_2917" data-name="Group 2917" transform="translate(95.661 92.585)">
              <path id="Path_31706" data-name="Path 31706" d="M2280.472,881.381c-.523.084-1.138.69-1.384.808-.806.382-1.248-.693-1.613-.747.358-.069.729-1.167,1.551-.824A5.678,5.678,0,0,0,2280.472,881.381Z" transform="translate(-2277.475 -880.552)" fill="url(#linear-gradient)"/>
            </g>
            <g id="Group_2918" data-name="Group 2918" transform="translate(99.261 92.585)">
              <path id="Path_31707" data-name="Path 31707" d="M2288.909,881.381c-.522.084-1.138.69-1.384.808-.807.382-1.248-.693-1.612-.747.357-.069.729-1.167,1.551-.824A5.644,5.644,0,0,0,2288.909,881.381Z" transform="translate(-2285.913 -880.552)" fill="url(#linear-gradient)"/>
            </g>
            <g id="Group_2919" data-name="Group 2919" transform="translate(102.037 87.916)">
              <path id="Path_31708" data-name="Path 31708" d="M2292.417,869.61a5.137,5.137,0,0,0,1.475.69c.787.454.169,1.443.341,1.778-.267-.258-1.384.064-1.588-.821A5.792,5.792,0,0,0,2292.417,869.61Z" transform="translate(-2292.417 -869.61)" fill="url(#linear-gradient-24)"/>
            </g>
            <g id="Group_2920" data-name="Group 2920" transform="translate(99.913 84.908)">
              <path id="Path_31709" data-name="Path 31709" d="M2287.44,862.561a5.149,5.149,0,0,0,1.476.69c.788.453.169,1.442.341,1.778-.267-.258-1.384.064-1.588-.82A5.788,5.788,0,0,0,2287.44,862.561Z" transform="translate(-2287.44 -862.561)" fill="url(#linear-gradient)"/>
            </g>
            <g id="Group_2921" data-name="Group 2921" transform="translate(97.79 81.901)">
              <path id="Path_31710" data-name="Path 31710" d="M2282.465,855.514a5.154,5.154,0,0,0,1.476.69c.788.454.171,1.442.341,1.778-.267-.258-1.384.065-1.587-.821A5.8,5.8,0,0,0,2282.465,855.514Z" transform="translate(-2282.465 -855.514)" fill="url(#linear-gradient-33)"/>
            </g>
            <g id="Group_2922" data-name="Group 2922" transform="translate(95.667 78.894)">
              <path id="Path_31711" data-name="Path 31711" d="M2277.491,848.466a5.133,5.133,0,0,0,1.476.69c.788.454.169,1.442.341,1.778-.267-.259-1.384.064-1.589-.82A5.8,5.8,0,0,0,2277.491,848.466Z" transform="translate(-2277.491 -848.466)" fill="url(#linear-gradient-34)"/>
            </g>
            <g id="Group_2923" data-name="Group 2923" transform="translate(93.544 75.886)">
              <path id="Path_31712" data-name="Path 31712" d="M2272.514,841.418a5.147,5.147,0,0,0,1.477.69c.788.453.169,1.442.341,1.778-.267-.259-1.383.064-1.588-.821A5.8,5.8,0,0,0,2272.514,841.418Z" transform="translate(-2272.514 -841.418)" fill="url(#linear-gradient-33)"/>
            </g>
            <g id="Group_2924" data-name="Group 2924" transform="translate(91.422 72.879)">
              <path id="Path_31713" data-name="Path 31713" d="M2267.542,834.371a5.127,5.127,0,0,0,1.476.69c.787.453.169,1.443.341,1.778-.267-.258-1.384.064-1.588-.82A5.8,5.8,0,0,0,2267.542,834.371Z" transform="translate(-2267.542 -834.371)" fill="url(#linear-gradient-36)"/>
            </g>
            <g id="Group_2925" data-name="Group 2925" transform="translate(89.298 69.872)">
              <path id="Path_31714" data-name="Path 31714" d="M2262.565,827.323a5.143,5.143,0,0,0,1.477.69c.786.453.169,1.442.341,1.778-.267-.259-1.384.064-1.588-.82A5.809,5.809,0,0,0,2262.565,827.323Z" transform="translate(-2262.565 -827.323)" fill="url(#linear-gradient)"/>
            </g>
            <g id="Group_2926" data-name="Group 2926" transform="translate(87.176 66.864)">
              <path id="Path_31715" data-name="Path 31715" d="M2257.59,820.274a5.129,5.129,0,0,0,1.476.69c.788.454.17,1.443.341,1.778-.267-.258-1.384.064-1.587-.82A5.824,5.824,0,0,0,2257.59,820.274Z" transform="translate(-2257.59 -820.274)" fill="url(#linear-gradient-33)"/>
            </g>
            <g id="Group_2927" data-name="Group 2927" transform="translate(85.053 63.857)">
              <path id="Path_31716" data-name="Path 31716" d="M2252.616,813.227a5.151,5.151,0,0,0,1.476.69c.788.454.169,1.443.341,1.778-.267-.259-1.384.064-1.589-.82A5.8,5.8,0,0,0,2252.616,813.227Z" transform="translate(-2252.616 -813.227)" fill="url(#linear-gradient)"/>
            </g>
            <g id="Group_2928" data-name="Group 2928" transform="translate(84.951 58.972)">
              <path id="Path_31717" data-name="Path 31717" d="M2254.147,801.779a4.71,4.71,0,0,0-.115,1.539c-.139.844-1.256.555-1.5.8.142-.315-.541-1.245.195-1.677A5.268,5.268,0,0,0,2254.147,801.779Z" transform="translate(-2252.377 -801.779)" fill="url(#linear-gradient)"/>
            </g>
            <g id="Group_2929" data-name="Group 2929" transform="translate(86.954 56.2)">
              <path id="Path_31718" data-name="Path 31718" d="M2258.841,795.283a4.716,4.716,0,0,0-.115,1.539c-.139.844-1.256.554-1.5.8.143-.315-.541-1.245.195-1.677A5.3,5.3,0,0,0,2258.841,795.283Z" transform="translate(-2257.071 -795.283)" fill="url(#linear-gradient-41)"/>
            </g>
            <g id="Group_2930" data-name="Group 2930" transform="translate(88.957 53.428)">
              <path id="Path_31719" data-name="Path 31719" d="M2263.535,788.787a4.689,4.689,0,0,0-.115,1.538c-.139.845-1.256.555-1.5.8.143-.315-.541-1.245.2-1.677A5.282,5.282,0,0,0,2263.535,788.787Z" transform="translate(-2261.765 -788.787)" fill="url(#linear-gradient-42)"/>
            </g>
            <g id="Group_2931" data-name="Group 2931" transform="translate(90.96 50.656)">
              <path id="Path_31720" data-name="Path 31720" d="M2268.228,782.29a4.752,4.752,0,0,0-.115,1.539c-.14.844-1.256.554-1.5.8.143-.315-.54-1.245.2-1.677A5.256,5.256,0,0,0,2268.228,782.29Z" transform="translate(-2266.458 -782.29)" fill="url(#linear-gradient-33)"/>
            </g>
            <g id="Group_2932" data-name="Group 2932" transform="translate(92.963 47.884)">
              <path id="Path_31721" data-name="Path 31721" d="M2272.921,775.794a4.7,4.7,0,0,0-.114,1.538c-.14.845-1.257.556-1.5.805.142-.316-.541-1.245.194-1.677A5.252,5.252,0,0,0,2272.921,775.794Z" transform="translate(-2271.152 -775.794)" fill="url(#linear-gradient-41)"/>
            </g>
            <g id="Group_2933" data-name="Group 2933" transform="translate(94.965 45.112)">
              <path id="Path_31722" data-name="Path 31722" d="M2277.615,769.3a4.722,4.722,0,0,0-.115,1.539c-.138.844-1.256.555-1.5.8.144-.315-.54-1.245.2-1.677A5.25,5.25,0,0,0,2277.615,769.3Z" transform="translate(-2275.845 -769.297)" fill="url(#linear-gradient)"/>
            </g>
            <g id="Group_2934" data-name="Group 2934" transform="translate(96.968 42.34)">
              <path id="Path_31723" data-name="Path 31723" d="M2282.309,762.8a4.714,4.714,0,0,0-.114,1.539c-.139.844-1.257.554-1.5.8.142-.315-.541-1.245.194-1.677A5.268,5.268,0,0,0,2282.309,762.8Z" transform="translate(-2280.539 -762.802)" fill="url(#linear-gradient-34)"/>
            </g>
            <g id="Group_2935" data-name="Group 2935" transform="translate(98.971 39.568)">
              <path id="Path_31724" data-name="Path 31724" d="M2287,756.306a4.708,4.708,0,0,0-.115,1.539c-.14.844-1.257.555-1.5.8.142-.315-.541-1.245.2-1.677A5.287,5.287,0,0,0,2287,756.306Z" transform="translate(-2285.233 -756.306)" fill="url(#linear-gradient-47)"/>
            </g>
            <g id="Group_2936" data-name="Group 2936" transform="translate(100.974 36.796)">
              <path id="Path_31725" data-name="Path 31725" d="M2291.7,749.81a4.668,4.668,0,0,0-.115,1.538c-.139.844-1.257.555-1.5.8.143-.315-.542-1.245.194-1.676A5.3,5.3,0,0,0,2291.7,749.81Z" transform="translate(-2289.926 -749.81)" fill="url(#linear-gradient)"/>
            </g>
            <g id="Group_2937" data-name="Group 2937" transform="translate(102.976 34.024)">
              <path id="Path_31726" data-name="Path 31726" d="M2296.389,743.314a4.712,4.712,0,0,0-.114,1.538c-.139.844-1.257.555-1.5.8.142-.315-.541-1.245.2-1.677A5.267,5.267,0,0,0,2296.389,743.314Z" transform="translate(-2294.619 -743.314)" fill="url(#linear-gradient)"/>
            </g>
            <g id="Group_2938" data-name="Group 2938" transform="translate(100.181 30.143)">
              <path id="Path_31727" data-name="Path 31727" d="M2288.069,735.107c.527-.083,1.147-.69,1.394-.808.812-.381,1.257.693,1.624.747-.359.069-.734,1.167-1.563.824A5.7,5.7,0,0,0,2288.069,735.107Z" transform="translate(-2288.069 -734.217)" fill="url(#linear-gradient)"/>
            </g>
            <g id="Group_2939" data-name="Group 2939" transform="translate(96.554 30.143)">
              <path id="Path_31728" data-name="Path 31728" d="M2279.569,735.107c.527-.083,1.148-.69,1.394-.808.812-.381,1.258.693,1.625.747-.36.069-.734,1.167-1.563.824A5.693,5.693,0,0,0,2279.569,735.107Z" transform="translate(-2279.569 -734.217)" fill="url(#linear-gradient)"/>
            </g>
            <g id="Group_2940" data-name="Group 2940" transform="translate(92.927 30.143)">
              <path id="Path_31729" data-name="Path 31729" d="M2271.069,735.107c.527-.083,1.147-.69,1.394-.808.813-.381,1.257.693,1.624.747-.359.069-.734,1.167-1.563.824A5.7,5.7,0,0,0,2271.069,735.107Z" transform="translate(-2271.069 -734.217)" fill="url(#linear-gradient)"/>
            </g>
            <g id="Group_2941" data-name="Group 2941" transform="translate(89.3 30.143)">
              <path id="Path_31730" data-name="Path 31730" d="M2262.569,735.107c.527-.083,1.147-.69,1.394-.808.813-.381,1.257.693,1.624.747-.359.069-.734,1.167-1.563.824A5.7,5.7,0,0,0,2262.569,735.107Z" transform="translate(-2262.569 -734.217)" fill="url(#linear-gradient)"/>
            </g>
            <g id="Group_2942" data-name="Group 2942" transform="translate(85.673 30.143)">
              <path id="Path_31731" data-name="Path 31731" d="M2254.069,735.107c.527-.083,1.147-.69,1.394-.808.813-.381,1.257.693,1.624.747-.359.069-.733,1.167-1.562.824A5.715,5.715,0,0,0,2254.069,735.107Z" transform="translate(-2254.069 -734.217)" fill="url(#linear-gradient)"/>
            </g>
            <g id="Group_2943" data-name="Group 2943" transform="translate(82.046 30.143)">
              <path id="Path_31732" data-name="Path 31732" d="M2245.569,735.107c.527-.083,1.147-.69,1.394-.808.813-.381,1.257.693,1.625.747-.36.069-.735,1.167-1.562.824A5.711,5.711,0,0,0,2245.569,735.107Z" transform="translate(-2245.569 -734.217)" fill="url(#linear-gradient)"/>
            </g>
            <g id="Group_2944" data-name="Group 2944" transform="translate(78.42 30.143)">
              <path id="Path_31733" data-name="Path 31733" d="M2237.071,735.107c.527-.083,1.147-.69,1.393-.808.813-.381,1.258.693,1.624.747-.36.069-.734,1.167-1.562.824A5.708,5.708,0,0,0,2237.071,735.107Z" transform="translate(-2237.071 -734.217)" fill="url(#linear-gradient)"/>
            </g>
            <g id="Group_2945" data-name="Group 2945" transform="translate(74.793 30.143)">
              <path id="Path_31734" data-name="Path 31734" d="M2228.571,735.107c.527-.083,1.146-.69,1.395-.808.812-.381,1.257.693,1.624.747-.361.069-.735,1.167-1.563.824A5.7,5.7,0,0,0,2228.571,735.107Z" transform="translate(-2228.571 -734.217)" fill="url(#linear-gradient)"/>
            </g>
            <g id="Group_2946" data-name="Group 2946" transform="translate(71.166 30.143)">
              <path id="Path_31735" data-name="Path 31735" d="M2220.071,735.107c.527-.083,1.147-.69,1.393-.808.813-.381,1.258.693,1.625.747-.361.069-.734,1.167-1.563.824A5.7,5.7,0,0,0,2220.071,735.107Z" transform="translate(-2220.071 -734.217)" fill="url(#linear-gradient)"/>
            </g>
            <g id="Group_2947" data-name="Group 2947" transform="translate(67.74 27.218)">
              <path id="Path_31736" data-name="Path 31736" d="M2212.05,727.364c.315.414,1.135.664,1.353.82.709.52-.035,1.408.087,1.75-.226-.277-1.368-.083-1.445-.958A5.51,5.51,0,0,0,2212.05,727.364Z" transform="translate(-2212.042 -727.364)" fill="url(#linear-gradient-24)"/>
            </g>
            <g id="Group_2948" data-name="Group 2948" transform="translate(66.076 24.096)">
              <path id="Path_31737" data-name="Path 31737" d="M2208.15,720.046c.315.414,1.135.664,1.353.82.71.52-.035,1.409.086,1.75-.226-.277-1.367-.083-1.444-.958A5.526,5.526,0,0,0,2208.15,720.046Z" transform="translate(-2208.143 -720.046)" fill="url(#linear-gradient)"/>
            </g>
            <g id="Group_2949" data-name="Group 2949" transform="translate(64.412 20.973)">
              <path id="Path_31738" data-name="Path 31738" d="M2204.25,712.728c.316.414,1.135.664,1.353.821.71.52-.035,1.408.087,1.75-.226-.277-1.367-.083-1.444-.958A5.526,5.526,0,0,0,2204.25,712.728Z" transform="translate(-2204.242 -712.728)" fill="url(#linear-gradient-41)"/>
            </g>
            <g id="Group_2950" data-name="Group 2950" transform="translate(62.747 17.851)">
              <path id="Path_31739" data-name="Path 31739" d="M2200.349,705.411c.316.414,1.135.664,1.353.82.709.52-.035,1.409.086,1.75-.226-.277-1.368-.083-1.445-.958A5.488,5.488,0,0,0,2200.349,705.411Z" transform="translate(-2200.341 -705.411)" fill="url(#linear-gradient-33)"/>
            </g>
            <g id="Group_2951" data-name="Group 2951" transform="translate(61.083 14.728)">
              <path id="Path_31740" data-name="Path 31740" d="M2196.45,698.092c.315.415,1.135.664,1.353.821.709.52-.036,1.408.086,1.75-.226-.277-1.367-.084-1.445-.958A5.552,5.552,0,0,0,2196.45,698.092Z" transform="translate(-2196.442 -698.092)" fill="url(#linear-gradient)"/>
            </g>
            <g id="Group_2952" data-name="Group 2952" transform="translate(59.419 11.606)">
              <path id="Path_31741" data-name="Path 31741" d="M2192.55,690.776c.315.414,1.135.664,1.353.82.709.52-.035,1.409.087,1.75-.226-.277-1.368-.083-1.445-.958A5.475,5.475,0,0,0,2192.55,690.776Z" transform="translate(-2192.542 -690.776)" fill="url(#linear-gradient-24)"/>
            </g>
            <g id="Group_2953" data-name="Group 2953" transform="translate(57.755 8.483)">
              <path id="Path_31742" data-name="Path 31742" d="M2188.65,683.457c.315.414,1.135.664,1.353.82.709.52-.035,1.409.087,1.75-.226-.277-1.367-.083-1.444-.957A5.529,5.529,0,0,0,2188.65,683.457Z" transform="translate(-2188.643 -683.457)" fill="url(#linear-gradient)"/>
            </g>
            <g id="Group_2954" data-name="Group 2954" transform="translate(56.091 5.361)">
              <path id="Path_31743" data-name="Path 31743" d="M2184.75,676.14c.316.414,1.135.664,1.352.82.71.52-.035,1.409.087,1.75-.226-.277-1.367-.083-1.444-.958A5.523,5.523,0,0,0,2184.75,676.14Z" transform="translate(-2184.743 -676.14)" fill="url(#linear-gradient-41)"/>
            </g>
            <g id="Group_2955" data-name="Group 2955" transform="translate(51.283 5.321)">
              <path id="Path_31744" data-name="Path 31744" d="M2173.535,678.678a4.919,4.919,0,0,0-.06-1.585c.043-.882,1.2-.754,1.415-1.045-.108.343.683,1.189-.005,1.74C2174.68,677.958,2173.9,678.213,2173.535,678.678Z" transform="translate(-2173.475 -676.047)" fill="url(#linear-gradient-34)"/>
            </g>
            <g id="Group_2956" data-name="Group 2956" transform="translate(49.59 8.447)">
              <path id="Path_31745" data-name="Path 31745" d="M2169.568,686a4.941,4.941,0,0,0-.061-1.587c.044-.881,1.2-.753,1.415-1.044-.107.343.684,1.189,0,1.739C2170.713,685.283,2169.937,685.537,2169.568,686Z" transform="translate(-2169.508 -683.372)" fill="url(#linear-gradient-68)"/>
            </g>
            <g id="Group_2957" data-name="Group 2957" transform="translate(47.898 11.572)">
              <path id="Path_31746" data-name="Path 31746" d="M2165.6,693.326a4.963,4.963,0,0,0-.06-1.586c.043-.882,1.2-.753,1.414-1.044-.106.343.685,1.189,0,1.739C2166.748,692.606,2165.972,692.861,2165.6,693.326Z" transform="translate(-2165.543 -690.696)" fill="url(#linear-gradient-24)"/>
            </g>
            <g id="Group_2958" data-name="Group 2958" transform="translate(46.206 14.697)">
              <path id="Path_31747" data-name="Path 31747" d="M2161.636,700.65a4.93,4.93,0,0,0-.06-1.586c.043-.881,1.2-.753,1.415-1.044-.108.343.684,1.188,0,1.738C2162.781,699.93,2162.006,700.185,2161.636,700.65Z" transform="translate(-2161.576 -698.02)" fill="url(#linear-gradient)"/>
            </g>
            <g id="Group_2959" data-name="Group 2959" transform="translate(44.513 17.822)">
              <path id="Path_31748" data-name="Path 31748" d="M2157.67,707.973a4.917,4.917,0,0,0-.06-1.586c.043-.882,1.2-.753,1.415-1.044-.107.343.684,1.189,0,1.739C2158.815,707.253,2158.039,707.508,2157.67,707.973Z" transform="translate(-2157.61 -705.343)" fill="url(#linear-gradient-34)"/>
            </g>
            <g id="Group_2960" data-name="Group 2960" transform="translate(42.82 20.947)">
              <path id="Path_31749" data-name="Path 31749" d="M2153.7,715.3a4.909,4.909,0,0,0-.06-1.586c.044-.882,1.2-.753,1.415-1.045-.107.343.684,1.189,0,1.739A5.534,5.534,0,0,0,2153.7,715.3Z" transform="translate(-2153.642 -712.667)" fill="url(#linear-gradient)"/>
            </g>
            <g id="Group_2961" data-name="Group 2961" transform="translate(41.128 24.073)">
              <path id="Path_31750" data-name="Path 31750" d="M2149.738,722.622a4.913,4.913,0,0,0-.06-1.586c.043-.882,1.2-.753,1.414-1.044-.106.342.684,1.188,0,1.739C2150.883,721.9,2150.107,722.156,2149.738,722.622Z" transform="translate(-2149.677 -719.992)" fill="url(#linear-gradient-73)"/>
            </g>
            <g id="Group_2962" data-name="Group 2962" transform="translate(39.436 27.198)">
              <path id="Path_31751" data-name="Path 31751" d="M2145.771,729.945a4.927,4.927,0,0,0-.06-1.586c.043-.882,1.2-.753,1.415-1.044-.107.343.684,1.188,0,1.739A5.53,5.53,0,0,0,2145.771,729.945Z" transform="translate(-2145.711 -727.315)" fill="url(#linear-gradient-41)"/>
            </g>
            <g id="Group_2963" data-name="Group 2963" transform="translate(34.669 30.143)">
              <path id="Path_31752" data-name="Path 31752" d="M2134.54,735.107c.491-.083,1.07-.69,1.3-.808.758-.381,1.174.693,1.516.747-.335.069-.685,1.167-1.458.824A5.232,5.232,0,0,0,2134.54,735.107Z" transform="translate(-2134.54 -734.217)" fill="url(#linear-gradient-24)"/>
            </g>
            <g id="Group_2964" data-name="Group 2964" transform="translate(31.283 30.143)">
              <path id="Path_31753" data-name="Path 31753" d="M2126.6,735.107c.491-.083,1.071-.69,1.3-.808.758-.381,1.174.693,1.517.747-.335.069-.685,1.167-1.458.824A5.222,5.222,0,0,0,2126.6,735.107Z" transform="translate(-2126.604 -734.217)" fill="url(#linear-gradient)"/>
            </g>
            <g id="Group_2965" data-name="Group 2965" transform="translate(27.897 30.143)">
              <path id="Path_31754" data-name="Path 31754" d="M2118.669,735.107c.492-.083,1.071-.69,1.3-.808.759-.381,1.174.693,1.518.747-.336.069-.686,1.167-1.459.824A5.223,5.223,0,0,0,2118.669,735.107Z" transform="translate(-2118.669 -734.217)" fill="url(#linear-gradient-24)"/>
            </g>
            <g id="Group_2966" data-name="Group 2966" transform="translate(24.51 30.143)">
              <path id="Path_31755" data-name="Path 31755" d="M2110.733,735.107c.492-.083,1.071-.69,1.3-.808.759-.381,1.174.693,1.518.747-.336.069-.686,1.167-1.459.824A5.215,5.215,0,0,0,2110.733,735.107Z" transform="translate(-2110.733 -734.217)" fill="url(#linear-gradient-47)"/>
            </g>
            <g id="Group_2967" data-name="Group 2967" transform="translate(21.125 30.143)">
              <path id="Path_31756" data-name="Path 31756" d="M2102.8,735.107c.491-.083,1.071-.69,1.3-.808.76-.381,1.174.693,1.518.747-.336.069-.686,1.167-1.459.824A5.221,5.221,0,0,0,2102.8,735.107Z" transform="translate(-2102.798 -734.217)" fill="url(#linear-gradient-24)"/>
            </g>
            <g id="Group_2968" data-name="Group 2968" transform="translate(17.738 30.143)">
              <path id="Path_31757" data-name="Path 31757" d="M2094.862,735.107c.491-.083,1.072-.69,1.3-.808.758-.381,1.174.693,1.516.747-.336.069-.686,1.167-1.459.824A5.2,5.2,0,0,0,2094.862,735.107Z" transform="translate(-2094.862 -734.217)" fill="url(#linear-gradient-41)"/>
            </g>
            <g id="Group_2969" data-name="Group 2969" transform="translate(14.352 30.143)">
              <path id="Path_31758" data-name="Path 31758" d="M2086.926,735.107c.492-.083,1.072-.69,1.3-.808.759-.381,1.174.693,1.517.747-.336.069-.686,1.167-1.459.824A5.209,5.209,0,0,0,2086.926,735.107Z" transform="translate(-2086.926 -734.217)" fill="url(#linear-gradient-33)"/>
            </g>
            <g id="Group_2970" data-name="Group 2970" transform="translate(10.966 30.143)">
              <path id="Path_31759" data-name="Path 31759" d="M2078.991,735.107c.491-.083,1.071-.69,1.3-.808.758-.381,1.173.693,1.517.747-.336.069-.686,1.167-1.459.824A5.192,5.192,0,0,0,2078.991,735.107Z" transform="translate(-2078.991 -734.217)" fill="url(#linear-gradient-41)"/>
            </g>
            <g id="Group_2971" data-name="Group 2971" transform="translate(7.58 30.143)">
              <path id="Path_31760" data-name="Path 31760" d="M2071.055,735.107c.492-.083,1.072-.69,1.3-.808.759-.381,1.174.693,1.517.747-.336.069-.687,1.167-1.459.824A5.2,5.2,0,0,0,2071.055,735.107Z" transform="translate(-2071.055 -734.217)" fill="url(#linear-gradient-33)"/>
            </g>
            <g id="Group_2972" data-name="Group 2972" transform="translate(5.774 33.974)">
              <path id="Path_31761" data-name="Path 31761" d="M2068.6,745.74c-.347-.407-1.188-.62-1.418-.768-.75-.495-.066-1.435-.213-1.777.248.271,1.38.017,1.521.9A5.68,5.68,0,0,0,2068.6,745.74Z" transform="translate(-2066.823 -743.195)" fill="url(#linear-gradient)"/>
            </g>
            <g id="Group_2973" data-name="Group 2973" transform="translate(7.671 37.07)">
              <path id="Path_31762" data-name="Path 31762" d="M2073.045,753c-.347-.406-1.188-.62-1.418-.768-.75-.495-.065-1.436-.212-1.778.246.271,1.379.018,1.52.9A5.7,5.7,0,0,0,2073.045,753Z" transform="translate(-2071.268 -750.451)" fill="url(#linear-gradient-41)"/>
            </g>
            <g id="Group_2974" data-name="Group 2974" transform="translate(9.568 40.167)">
              <path id="Path_31763" data-name="Path 31763" d="M2077.491,760.254c-.347-.406-1.189-.62-1.419-.768-.75-.494-.065-1.435-.212-1.777.247.271,1.379.017,1.521.9A5.668,5.668,0,0,0,2077.491,760.254Z" transform="translate(-2075.714 -757.709)" fill="url(#linear-gradient-86)"/>
            </g>
            <g id="Group_2975" data-name="Group 2975" transform="translate(11.464 43.263)">
              <path id="Path_31764" data-name="Path 31764" d="M2081.936,767.512c-.347-.406-1.188-.62-1.418-.769-.75-.494-.066-1.435-.212-1.777.247.271,1.379.017,1.52.9A5.717,5.717,0,0,0,2081.936,767.512Z" transform="translate(-2080.159 -764.966)" fill="url(#linear-gradient)"/>
            </g>
            <g id="Group_2976" data-name="Group 2976" transform="translate(13.361 46.36)">
              <path id="Path_31765" data-name="Path 31765" d="M2086.381,774.768c-.347-.406-1.188-.619-1.418-.768-.75-.494-.066-1.435-.212-1.777.247.271,1.379.017,1.52.9A5.742,5.742,0,0,0,2086.381,774.768Z" transform="translate(-2084.604 -772.223)" fill="url(#linear-gradient)"/>
            </g>
            <g id="Group_2977" data-name="Group 2977" transform="translate(15.258 49.457)">
              <path id="Path_31766" data-name="Path 31766" d="M2090.827,782.026c-.347-.406-1.189-.62-1.419-.768-.75-.494-.065-1.435-.212-1.777.247.271,1.379.017,1.52.9A5.707,5.707,0,0,0,2090.827,782.026Z" transform="translate(-2089.05 -779.481)" fill="url(#linear-gradient-47)"/>
            </g>
            <g id="Group_2978" data-name="Group 2978" transform="translate(17.155 52.554)">
              <path id="Path_31767" data-name="Path 31767" d="M2095.272,789.283c-.347-.406-1.187-.62-1.417-.768-.751-.495-.067-1.436-.213-1.778.247.271,1.38.017,1.52.9A5.7,5.7,0,0,0,2095.272,789.283Z" transform="translate(-2093.496 -786.738)" fill="url(#linear-gradient)"/>
            </g>
            <g id="Group_2979" data-name="Group 2979" transform="translate(19.052 55.65)">
              <path id="Path_31768" data-name="Path 31768" d="M2099.719,796.54c-.347-.406-1.188-.619-1.418-.768-.75-.495-.066-1.436-.213-1.777.247.271,1.38.018,1.521.9A5.666,5.666,0,0,0,2099.719,796.54Z" transform="translate(-2097.942 -793.995)" fill="url(#linear-gradient)"/>
            </g>
            <g id="Group_2980" data-name="Group 2980" transform="translate(20.949 58.747)">
              <path id="Path_31769" data-name="Path 31769" d="M2104.163,803.8c-.346-.406-1.187-.62-1.418-.768-.75-.495-.067-1.436-.213-1.777.247.271,1.38.017,1.52.9A5.718,5.718,0,0,0,2104.163,803.8Z" transform="translate(-2102.386 -801.252)" fill="url(#linear-gradient-92)"/>
            </g>
            <g id="Group_2981" data-name="Group 2981" transform="translate(20.905 63.739)">
              <path id="Path_31770" data-name="Path 31770" d="M2102.284,815.5a5.12,5.12,0,0,0,.144-1.621c.156-.894,1.3-.651,1.553-.926-.152.339.533,1.278-.228,1.771A5.805,5.805,0,0,0,2102.284,815.5Z" transform="translate(-2102.284 -812.95)" fill="url(#linear-gradient)"/>
            </g>
            <g id="Group_2982" data-name="Group 2982" transform="translate(18.808 66.756)">
              <path id="Path_31771" data-name="Path 31771" d="M2097.368,822.569a5.144,5.144,0,0,0,.143-1.621c.156-.894,1.3-.65,1.552-.926-.152.339.534,1.278-.227,1.771A5.782,5.782,0,0,0,2097.368,822.569Z" transform="translate(-2097.368 -820.022)" fill="url(#linear-gradient-41)"/>
            </g>
            <g id="Group_2983" data-name="Group 2983" transform="translate(16.71 69.774)">
              <path id="Path_31772" data-name="Path 31772" d="M2092.452,829.642a5.125,5.125,0,0,0,.142-1.622c.157-.894,1.3-.65,1.553-.925-.152.338.534,1.277-.227,1.771A5.791,5.791,0,0,0,2092.452,829.642Z" transform="translate(-2092.452 -827.095)" fill="url(#linear-gradient-41)"/>
            </g>
            <g id="Group_2984" data-name="Group 2984" transform="translate(14.612 72.792)">
              <path id="Path_31773" data-name="Path 31773" d="M2087.536,836.714a5.124,5.124,0,0,0,.142-1.622c.157-.894,1.3-.65,1.552-.926-.151.339.534,1.278-.226,1.771A5.785,5.785,0,0,0,2087.536,836.714Z" transform="translate(-2087.536 -834.166)" fill="url(#linear-gradient-96)"/>
            </g>
            <g id="Group_2985" data-name="Group 2985" transform="translate(12.515 75.81)">
              <path id="Path_31774" data-name="Path 31774" d="M2082.62,843.787a5.159,5.159,0,0,0,.143-1.621c.156-.893,1.3-.65,1.552-.926-.15.339.534,1.278-.227,1.771A5.779,5.779,0,0,0,2082.62,843.787Z" transform="translate(-2082.62 -841.24)" fill="url(#linear-gradient-97)"/>
            </g>
            <g id="Group_2986" data-name="Group 2986" transform="translate(10.416 78.828)">
              <path id="Path_31775" data-name="Path 31775" d="M2077.7,850.859a5.158,5.158,0,0,0,.143-1.622c.157-.894,1.3-.65,1.552-.926-.152.339.533,1.278-.227,1.771A5.8,5.8,0,0,0,2077.7,850.859Z" transform="translate(-2077.702 -848.312)" fill="url(#linear-gradient)"/>
            </g>
            <g id="Group_2987" data-name="Group 2987" transform="translate(8.318 81.846)">
              <path id="Path_31776" data-name="Path 31776" d="M2072.786,857.931a5.123,5.123,0,0,0,.142-1.622c.157-.893,1.3-.65,1.553-.925-.152.339.533,1.277-.227,1.771A5.745,5.745,0,0,0,2072.786,857.931Z" transform="translate(-2072.786 -855.384)" fill="url(#linear-gradient)"/>
            </g>
            <g id="Group_2988" data-name="Group 2988" transform="translate(6.22 84.864)">
              <path id="Path_31777" data-name="Path 31777" d="M2067.868,865a5.134,5.134,0,0,0,.143-1.622c.157-.894,1.3-.65,1.552-.925-.151.338.534,1.278-.227,1.771A5.816,5.816,0,0,0,2067.868,865Z" transform="translate(-2067.868 -862.457)" fill="url(#linear-gradient-96)"/>
            </g>
            <g id="Group_2989" data-name="Group 2989" transform="translate(4.122 87.881)">
              <path id="Path_31778" data-name="Path 31778" d="M2062.952,872.076a5.143,5.143,0,0,0,.143-1.621c.156-.894,1.3-.65,1.552-.925-.152.339.534,1.278-.227,1.771A5.8,5.8,0,0,0,2062.952,872.076Z" transform="translate(-2062.952 -869.529)" fill="url(#linear-gradient-101)"/>
            </g>
            <g id="Group_2990" data-name="Group 2990" transform="translate(5.668 92.585)">
              <path id="Path_31779" data-name="Path 31779" d="M2069.48,881.381c-.507.084-1.1.69-1.342.808-.782.382-1.21-.693-1.563-.747.346-.069.707-1.167,1.5-.824A5.418,5.418,0,0,0,2069.48,881.381Z" transform="translate(-2066.575 -880.552)" fill="url(#linear-gradient-41)"/>
            </g>
            <g id="Group_2991" data-name="Group 2991" transform="translate(9.159 92.585)">
              <path id="Path_31780" data-name="Path 31780" d="M2077.662,881.381c-.507.084-1.1.69-1.342.808-.782.382-1.21-.693-1.564-.747.346-.069.707-1.167,1.5-.824A5.433,5.433,0,0,0,2077.662,881.381Z" transform="translate(-2074.756 -880.552)" fill="url(#linear-gradient-33)"/>
            </g>
            <g id="Group_2992" data-name="Group 2992" transform="translate(12.65 92.585)">
              <path id="Path_31781" data-name="Path 31781" d="M2085.844,881.381c-.507.084-1.1.69-1.342.808-.782.382-1.21-.693-1.563-.747.346-.069.707-1.167,1.5-.824A5.429,5.429,0,0,0,2085.844,881.381Z" transform="translate(-2082.938 -880.552)" fill="url(#linear-gradient)"/>
            </g>
            <g id="Group_2993" data-name="Group 2993" transform="translate(16.141 92.585)">
              <path id="Path_31782" data-name="Path 31782" d="M2094.024,881.381c-.506.084-1.1.69-1.342.808-.782.382-1.21-.693-1.564-.747.346-.069.707-1.167,1.5-.824A5.435,5.435,0,0,0,2094.024,881.381Z" transform="translate(-2091.118 -880.552)" fill="url(#linear-gradient-41)"/>
            </g>
            <g id="Group_2994" data-name="Group 2994" transform="translate(19.632 92.585)">
              <path id="Path_31783" data-name="Path 31783" d="M2102.205,881.381c-.508.084-1.1.69-1.342.808-.782.382-1.209-.693-1.564-.747.347-.069.708-1.167,1.5-.824A5.45,5.45,0,0,0,2102.205,881.381Z" transform="translate(-2099.299 -880.552)" fill="url(#linear-gradient-33)"/>
            </g>
            <g id="Group_2995" data-name="Group 2995" transform="translate(23.123 92.585)">
              <path id="Path_31784" data-name="Path 31784" d="M2110.387,881.381c-.508.084-1.1.69-1.342.808-.781.382-1.21-.693-1.564-.747.347-.069.708-1.167,1.5-.824A5.44,5.44,0,0,0,2110.387,881.381Z" transform="translate(-2107.481 -880.552)" fill="url(#linear-gradient)"/>
            </g>
            <g id="Group_2996" data-name="Group 2996" transform="translate(26.615 92.585)">
              <path id="Path_31785" data-name="Path 31785" d="M2118.57,881.381c-.507.084-1.1.69-1.341.808-.782.382-1.21-.693-1.563-.747.345-.069.707-1.167,1.5-.824A5.433,5.433,0,0,0,2118.57,881.381Z" transform="translate(-2115.665 -880.552)" fill="url(#linear-gradient-97)"/>
            </g>
            <g id="Group_2997" data-name="Group 2997" transform="translate(30.106 92.585)">
              <path id="Path_31786" data-name="Path 31786" d="M2126.751,881.381c-.508.084-1.1.69-1.342.808-.782.382-1.21-.693-1.563-.747.346-.069.707-1.167,1.5-.824A5.433,5.433,0,0,0,2126.751,881.381Z" transform="translate(-2123.846 -880.552)" fill="url(#linear-gradient-33)"/>
            </g>
            <g id="Group_2998" data-name="Group 2998" transform="translate(33.596 92.585)">
              <path id="Path_31787" data-name="Path 31787" d="M2134.932,881.381c-.507.084-1.1.69-1.342.808-.782.382-1.21-.693-1.564-.747.347-.069.708-1.167,1.5-.824A5.442,5.442,0,0,0,2134.932,881.381Z" transform="translate(-2132.026 -880.552)" fill="url(#linear-gradient)"/>
            </g>
            <g id="Group_2999" data-name="Group 2999" transform="translate(38.284 94.638)">
              <path id="Path_31788" data-name="Path 31788" d="M2144.75,888.027c-.336-.429-1.174-.687-1.4-.85-.737-.539-.021-1.459-.157-1.813.24.287,1.385.086,1.5.992A5.829,5.829,0,0,0,2144.75,888.027Z" transform="translate(-2143.011 -885.364)" fill="url(#linear-gradient-21)"/>
            </g>
            <g id="Group_3000" data-name="Group 3000" transform="translate(40.09 97.874)">
              <path id="Path_31789" data-name="Path 31789" d="M2148.983,895.608c-.336-.429-1.174-.687-1.4-.849-.738-.539-.021-1.46-.157-1.813.239.287,1.385.086,1.5.992A5.886,5.886,0,0,0,2148.983,895.608Z" transform="translate(-2147.244 -892.946)" fill="url(#linear-gradient)"/>
            </g>
            <g id="Group_3001" data-name="Group 3001" transform="translate(41.896 101.108)">
              <path id="Path_31790" data-name="Path 31790" d="M2153.215,903.19c-.335-.43-1.174-.687-1.4-.849-.738-.539-.021-1.459-.157-1.813.239.287,1.385.086,1.5.992A5.858,5.858,0,0,0,2153.215,903.19Z" transform="translate(-2151.476 -900.527)" fill="url(#linear-gradient-41)"/>
            </g>
            <g id="Group_3002" data-name="Group 3002" transform="translate(43.702 104.343)">
              <path id="Path_31791" data-name="Path 31791" d="M2157.448,910.771c-.336-.429-1.174-.687-1.4-.85-.738-.538-.021-1.459-.157-1.814.24.288,1.385.086,1.5.992A5.893,5.893,0,0,0,2157.448,910.771Z" transform="translate(-2155.709 -908.108)" fill="url(#linear-gradient)"/>
            </g>
            <g id="Group_3003" data-name="Group 3003" transform="translate(45.508 107.579)">
              <path id="Path_31792" data-name="Path 31792" d="M2161.68,918.353c-.335-.429-1.174-.687-1.4-.85-.739-.538-.021-1.459-.157-1.813.239.287,1.385.086,1.5.992A5.842,5.842,0,0,0,2161.68,918.353Z" transform="translate(-2159.942 -915.69)" fill="url(#linear-gradient)"/>
            </g>
            <g id="Group_3004" data-name="Group 3004" transform="translate(47.315 110.813)">
              <path id="Path_31793" data-name="Path 31793" d="M2165.915,925.934c-.335-.429-1.173-.687-1.4-.85-.738-.539-.02-1.459-.157-1.813.24.287,1.385.086,1.5.992A5.869,5.869,0,0,0,2165.915,925.934Z" transform="translate(-2164.176 -923.271)" fill="url(#linear-gradient-47)"/>
            </g>
            <g id="Group_3005" data-name="Group 3005" transform="translate(49.121 114.048)">
              <path id="Path_31794" data-name="Path 31794" d="M2170.147,933.515c-.335-.429-1.174-.687-1.4-.849-.738-.539-.02-1.46-.157-1.813.239.287,1.385.086,1.5.992A5.875,5.875,0,0,0,2170.147,933.515Z" transform="translate(-2168.408 -930.852)" fill="url(#linear-gradient)"/>
            </g>
            <g id="Group_3006" data-name="Group 3006" transform="translate(50.927 117.283)">
              <path id="Path_31795" data-name="Path 31795" d="M2174.38,941.1c-.335-.429-1.174-.687-1.4-.849-.738-.538-.021-1.459-.157-1.813.239.287,1.385.086,1.5.992A5.822,5.822,0,0,0,2174.38,941.1Z" transform="translate(-2172.641 -938.433)" fill="url(#linear-gradient-41)"/>
            </g>
            <g id="Group_3007" data-name="Group 3007" transform="translate(55.762 117.192)">
              <path id="Path_31796" data-name="Path 31796" d="M2185.556,938.219a4.976,4.976,0,0,0,.118,1.592c-.012.888-1.17.808-1.377,1.11.094-.349-.729-1.165-.06-1.748C2184.436,938.992,2185.2,938.7,2185.556,938.219Z" transform="translate(-2183.972 -938.219)" fill="url(#linear-gradient-47)"/>
            </g>
            <g id="Group_3008" data-name="Group 3008" transform="translate(57.343 113.977)">
              <path id="Path_31797" data-name="Path 31797" d="M2189.26,930.685a5.011,5.011,0,0,0,.118,1.593c-.011.888-1.17.808-1.377,1.111.095-.349-.728-1.166-.059-1.75C2188.14,931.458,2188.907,931.169,2189.26,930.685Z" transform="translate(-2187.677 -930.685)" fill="url(#linear-gradient-47)"/>
            </g>
            <g id="Group_3009" data-name="Group 3009" transform="translate(58.923 110.763)">
              <path id="Path_31798" data-name="Path 31798" d="M2192.964,923.152a4.959,4.959,0,0,0,.118,1.592c-.012.888-1.17.809-1.378,1.111.095-.349-.728-1.167-.059-1.749C2191.844,923.925,2192.611,923.636,2192.964,923.152Z" transform="translate(-2191.38 -923.152)" fill="url(#linear-gradient)"/>
            </g>
            <g id="Group_3010" data-name="Group 3010" transform="translate(60.504 107.548)">
              <path id="Path_31799" data-name="Path 31799" d="M2196.668,915.619a4.965,4.965,0,0,0,.118,1.592c-.013.888-1.171.809-1.38,1.11.1-.349-.726-1.166-.058-1.749C2195.549,916.392,2196.315,916.1,2196.668,915.619Z" transform="translate(-2195.084 -915.619)" fill="url(#linear-gradient-122)"/>
            </g>
            <g id="Group_3011" data-name="Group 3011" transform="translate(62.084 104.334)">
              <path id="Path_31800" data-name="Path 31800" d="M2200.371,908.085a4.972,4.972,0,0,0,.118,1.592c-.011.889-1.17.808-1.378,1.11.095-.349-.728-1.166-.06-1.748C2199.252,908.858,2200.019,908.569,2200.371,908.085Z" transform="translate(-2198.788 -908.085)" fill="url(#linear-gradient-96)"/>
            </g>
            <g id="Group_3012" data-name="Group 3012" transform="translate(63.665 101.119)">
              <path id="Path_31801" data-name="Path 31801" d="M2204.076,900.552a4.972,4.972,0,0,0,.117,1.592c-.011.888-1.17.808-1.378,1.11.095-.349-.727-1.165-.059-1.748C2202.956,901.325,2203.723,901.035,2204.076,900.552Z" transform="translate(-2202.492 -900.552)" fill="url(#linear-gradient)"/>
            </g>
            <g id="Group_3013" data-name="Group 3013" transform="translate(65.245 97.905)">
              <path id="Path_31802" data-name="Path 31802" d="M2207.779,893.019a5,5,0,0,0,.118,1.591c-.01.889-1.17.809-1.377,1.111.094-.349-.728-1.166-.06-1.749C2206.66,893.791,2207.428,893.5,2207.779,893.019Z" transform="translate(-2206.196 -893.019)" fill="url(#linear-gradient-41)"/>
            </g>
            <g id="Group_3014" data-name="Group 3014" transform="translate(66.826 94.69)">
              <path id="Path_31803" data-name="Path 31803" d="M2211.483,885.485a4.966,4.966,0,0,0,.118,1.592c-.011.889-1.17.809-1.378,1.111.095-.349-.728-1.166-.059-1.749C2210.364,886.258,2211.131,885.969,2211.483,885.485Z" transform="translate(-2209.9 -885.485)" fill="url(#linear-gradient-41)"/>
            </g>
            <g id="Group_3015" data-name="Group 3015" transform="translate(103.959 91.873)">
              <path id="Path_31804" data-name="Path 31804" d="M2300.909,881.519l-.052-.042-.051-.043-.023-.023-.006-.006-.009-.007-.018-.015-.072-.062-.072-.065-.073-.069-.146-.146c-.05-.051-.1-.1-.148-.155l-.147-.162-.144-.166-.142-.166-.512-.623-.206-.247-.086-.1-.038-.041-.035-.035c-.017-.018-.036-.035-.053-.052l-.053-.048-.051-.045-.051-.041-.049-.038-.048-.035-.048-.032-.046-.028-.045-.026-.044-.023-.043-.02-.042-.018-.042-.015-.041-.013-.039-.011-.039-.008-.038-.006-.038,0-.037,0h-.071l-.034,0-.033.005-.032.006-.032.009-.032.009-.031.011-.03.011-.03.013-.029.014-.057.03-.054.032-.053.035-.1.074-.1.073-.091.067-.045.029-.044.026-.022.011-.022.01-.023.009-.021.008-.022.006-.021,0-.022,0h-.044l-.023,0-.022-.005-.022-.007.023.017.023.02.025.022.024.024.012.013,0,0,0,0h0v0l.009.019.006.02.006.021,0,.022,0,.023v.047c0,.017,0,.034,0,.051s0,.035,0,.053c0,.036-.01.073-.015.112s-.012.078-.019.119-.011.081-.016.123l-.006.063,0,.064v.063l0,.032,0,.031,0,.032.006.031.008.031.008.031.01.03.011.03.014.03.015.03.018.03.02.029.022.029.023.028.026.027.029.027.031.026.034.026.036.026.039.025.041.023.045.023.048.022.051.021.054.021.058.02.061.019.065.018.068.017.072.016.047.01.053.009.125.018.309.033.783.076.216.024.218.028.219.032.217.036.211.041.1.023.1.024.1.026.1.027.093.029Z" transform="translate(-2296.923 -878.883)" fill="url(#linear-gradient-24)"/>
            </g>
            <g id="Group_3016" data-name="Group 3016" transform="translate(82.881 61.847)">
              <path id="Path_31805" data-name="Path 31805" d="M2247.526,809.243l.045-.007.046-.01.024-.006.01,0,.01,0,.038-.014.038-.016.037-.018.037-.02.036-.021.036-.022.035-.024.068-.049.067-.052.063-.053.117-.107.1-.1.047-.044.044-.038.039-.031.019-.012.017-.011.028-.014.027-.012.027-.011.028-.009.028-.007.028-.005.028,0,.028,0h.085l.029,0,.028,0,.028,0,.029.006.028.007.057.018.056.02.056.024.056.027.055.029.054.032.054.033.053.035.105.073.1.074.188.139.086.059.041.026.039.022.037.019.036.016.017.006.017,0,.016,0,.016,0-.013,0-.013,0-.012.006-.013.006-.006,0,0,0,0,0-.018.009-.037.02-.038.024-.04.027-.083.062c-.057.044-.119.093-.182.143l-.1.076-.1.075-.052.036-.053.035-.053.033-.054.031-.054.029-.055.026-.056.022-.056.019-.028.008-.028.007-.028.006-.028,0-.029,0-.028,0h-.057l-.029,0-.028,0-.028,0-.029-.006-.027-.007-.028-.01-.03-.01-.028-.012-.018-.009-.019-.011-.02-.013-.021-.015-.044-.034-.049-.04c-.033-.029-.07-.059-.108-.092l-.122-.1-.066-.051-.068-.05-.073-.048-.037-.023-.039-.022-.039-.021-.039-.019-.041-.018-.041-.017-.042-.015-.043-.013-.044-.011Z" transform="translate(-2247.526 -808.518)" fill="url(#linear-gradient-128)"/>
            </g>
            <g id="Group_3017" data-name="Group 3017" transform="translate(104.887 30.007)">
              <path id="Path_31806" data-name="Path 31806" d="M2303.208,733.9l-.065.02-.065.016-.032.007h-.009l-.011,0-.022.007-.093.022-.1.021-.1.02-.206.035-.215.031-.219.026-.222.023-.22.02-.815.058-.324.026-.131.014-.056.008-.05.008-.074.015-.071.015-.067.017-.063.017-.061.018-.058.02-.054.02-.051.021-.048.022-.045.023-.042.023-.039.024-.038.026-.034.025-.031.027-.031.026-.027.028-.025.028-.023.029-.021.029-.019.029-.018.03-.015.03-.014.031-.012.031-.011.032-.009.031-.007.032-.008.032-.005.032-.009.063,0,.064,0,.064v.063l0,.062.005.12c0,.039,0,.077,0,.114,0,.018,0,.036,0,.053s0,.035,0,.051l0,.024,0,.023-.006.023-.007.022-.007.021-.009.02-.011.019-.011.018-.015.017-.015.017-.018.015-.018.014.029-.009.03-.008.033-.007.034-.006.018,0h.014l.021,0,.02.006.02.008.02.009.02.011.021.012.019.014.04.03.041.034.082.078.086.085.09.085.047.041.05.039.052.036.027.017.027.016.028.015.029.014.029.012.03.011.031.01.031.008.032.006.033.005.034,0h.071l.036,0,.038-.006.039-.007.041-.01.041-.012.041-.015.043-.018.044-.021.045-.023.047-.026.047-.029.05-.032.05-.036.052-.039.053-.043.053-.046.056-.05.036-.033.04-.038.088-.092.21-.234.527-.6.147-.163.152-.164.156-.161.158-.157.159-.15.079-.072.08-.069.079-.067.08-.063.079-.059Z" transform="translate(-2299.096 -733.899)" fill="url(#linear-gradient)"/>
            </g>
            <g id="Group_3018" data-name="Group 3018" transform="translate(69.111 29.959)">
              <path id="Path_31807" data-name="Path 31807" d="M2215.33,735.894l.017-.041.016-.043.007-.023,0-.009,0-.009.007-.035.005-.036,0-.036v-.109l0-.036-.008-.072-.012-.071-.014-.069-.033-.131-.032-.117c0-.018-.009-.036-.014-.053s-.007-.032-.01-.047,0-.015,0-.022,0-.014,0-.021,0-.012,0-.018v-.044l0-.026,0-.026.006-.026.008-.024.009-.025.01-.024.011-.023.013-.023.013-.023.014-.023.016-.022.017-.021.018-.022.039-.042.041-.04.045-.039.047-.038.05-.037.051-.035.053-.035.108-.065.112-.062.11-.058c.072-.038.143-.074.208-.108l.091-.051.04-.025.039-.024.034-.024.03-.024.025-.024.012-.012.01-.012,0,.012,0,.012v.03h0v.005l0,.019c0,.014,0,.027,0,.042l0,.045V734c0,.033,0,.068,0,.1,0,.072.008.15.01.231,0,.04,0,.081.005.123l0,.126,0,.126,0,.062,0,.062-.007.061-.009.06-.011.058-.015.056-.017.054-.009.026-.011.026-.011.025-.013.025-.013.023-.013.023-.016.022-.016.021-.017.021-.018.02-.019.019-.02.017-.022.018-.022.016-.015.01-.017.009-.019.009-.02.009-.045.016-.051.017-.115.035-.128.041-.067.024-.068.027-.068.032-.034.017-.034.019-.033.02-.032.021-.032.023-.031.024-.031.026-.03.027-.029.029Z" transform="translate(-2215.255 -733.787)" fill="url(#linear-gradient-24)"/>
            </g>
            <g id="Group_3019" data-name="Group 3019" transform="translate(53.362)">
              <path id="Path_31808" data-name="Path 31808" d="M2179.467,663.577l-.012.064-.015.063-.009.031,0,.008,0,.012,0,.021c-.007.029-.014.059-.022.088l-.025.091-.028.092c-.021.063-.042.126-.062.19s-.046.129-.07.195-.051.131-.076.2l-.081.2-.083.194-.316.709c-.046.1-.087.2-.125.284l-.046.117-.02.05-.016.046c-.007.023-.014.046-.021.069s-.013.044-.019.066-.011.043-.016.065-.009.041-.014.061l-.011.06-.009.057-.007.055,0,.052,0,.051v.1l0,.045.006.042.006.041.01.039.01.038.012.036.013.035.015.033.016.031.018.03.018.029.019.027.021.026.022.024.022.024.023.023.024.022.024.021.026.02.052.038.054.034.054.031.111.058.108.054.1.052.046.027.043.028.02.015.019.015.017.016.017.016.015.017.013.018.013.018.011.019.008.02.009.02.006.022,0,.023.005-.028.007-.029.009-.03.01-.031.005-.016v-.006h0l0,0,.014-.016.014-.015.016-.014.017-.014.019-.013.02-.013.021-.012.045-.023.049-.021.1-.04.114-.04.116-.045.058-.025.057-.028.056-.03.026-.017.027-.018.026-.018.025-.02.024-.021.023-.021.022-.023.022-.025.021-.026.019-.026.017-.029.017-.03.016-.032.013-.034.012-.035.011-.037.009-.039.008-.041.006-.043,0-.045,0-.047v-.049l0-.051,0-.054-.006-.056-.009-.059c0-.02-.007-.04-.011-.061s-.009-.042-.014-.064-.011-.044-.016-.066-.012-.045-.019-.069l-.012-.045c-.006-.016-.011-.033-.017-.05l-.041-.114-.111-.278-.288-.7-.077-.2c-.025-.066-.049-.132-.075-.2l-.071-.2-.067-.2c-.02-.067-.04-.134-.06-.2l-.026-.1-.025-.1-.021-.1-.02-.095-.017-.092Z" transform="translate(-2178.348 -663.577)" fill="url(#linear-gradient-33)"/>
            </g>
            <g id="Group_3020" data-name="Group 3020" transform="translate(38.192 29.983)">
              <path id="Path_31809" data-name="Path 31809" d="M2144.075,735.9l-.029-.034-.03-.034-.017-.018-.007-.007-.007-.005-.028-.024-.029-.021-.03-.02-.031-.018-.032-.017-.032-.016-.032-.015-.067-.026-.068-.023-.068-.02-.13-.032-.118-.027-.052-.012-.046-.013-.021-.007-.019-.006-.017-.008-.016-.008-.023-.014-.021-.015-.02-.016-.02-.017-.019-.018-.018-.019-.017-.021-.015-.021-.014-.022-.014-.023-.013-.023-.012-.024-.011-.025-.01-.026-.019-.053-.016-.056-.013-.058-.011-.06-.009-.061-.007-.062,0-.062-.006-.127,0-.127v-.125c0-.082,0-.161,0-.234,0-.036,0-.071,0-.1,0-.016,0-.032,0-.048s0-.031,0-.045l-.005-.041-.007-.037c0-.012-.006-.023-.009-.034l0-.016-.006-.014.008.009.01.007.009.007.011.006,0,0h0l0,0,.015.012.035.023.039.023.042.024.091.048.208.1.111.054.112.058.11.062.053.032.053.034.051.035.048.036.046.038.043.039.04.041.019.021.018.022.017.022.016.022.015.023.014.023.013.023.011.024.01.025.009.025.008.026.006.026.005.027,0,.026a.155.155,0,0,0,0,.018v.018c0,.007,0,.014,0,.021l0,.022c0,.015,0,.03-.007.047s-.006.034-.009.052c-.008.036-.016.075-.024.118s-.016.086-.025.131l-.01.07-.007.073,0,.075v.114l0,.038,0,.039.006.039.009.039.01.039.011.039Z" transform="translate(-2142.796 -733.842)" fill="url(#linear-gradient-132)"/>
            </g>
            <g id="Group_3021" data-name="Group 3021" transform="translate(2.314 29.939)">
              <path id="Path_31810" data-name="Path 31810" d="M2058.714,733.739l.049.041.046.044.023.023.005.005.008.007.016.015.063.061.063.063.064.067.129.142.128.151.128.157.125.16.123.162.437.6c.066.088.125.169.177.239l.075.095.032.04.031.035.047.05.046.047.046.044.045.041.045.037.043.035.043.032.042.028.042.026.041.023.04.021.04.018.039.016.038.014.038.011.037.009.037.006.036.005.036,0h.068l.034,0,.033,0,.032,0,.032-.007.032-.008.031-.009.03-.01.031-.011.031-.012.058-.027.056-.03.055-.031.106-.067.1-.067.1-.06.047-.026.045-.023.022-.01.022-.009.023-.007.022-.007.022-.005.021,0,.021,0h.044l.021,0,.021.005.021.007-.021-.017-.022-.02-.021-.022-.022-.023-.011-.012,0,0v0h0l0,0-.007-.02-.007-.021-.005-.021,0-.022,0-.023,0-.024v-.024c0-.016,0-.033,0-.05s0-.035,0-.053c0-.036.01-.073.014-.112s.011-.078.017-.119l.015-.123.005-.063,0-.063v-.095l0-.032,0-.031-.005-.032-.007-.031-.009-.031-.009-.03-.011-.031-.013-.03-.014-.03-.016-.029-.018-.029-.02-.029-.021-.028-.025-.028-.026-.026-.029-.027-.031-.026-.033-.025-.036-.024-.039-.024-.041-.023-.044-.023-.048-.022-.05-.02-.053-.019-.057-.019-.06-.018-.062-.017-.067-.016-.044-.01-.049-.009-.115-.017-.285-.033-.725-.075-.2-.024-.2-.028-.2-.032-.2-.036-.2-.041-.1-.023-.093-.024-.092-.026-.088-.027-.087-.029Z" transform="translate(-2058.714 -733.739)" fill="url(#linear-gradient-24)"/>
            </g>
            <g id="Group_3022" data-name="Group 3022" transform="translate(22.229 61.892)">
              <path id="Path_31811" data-name="Path 31811" d="M2107.875,809.3l-.044.006-.046.009-.023,0-.011,0-.009,0-.036.012-.036.015-.035.016-.035.017-.034.019-.033.02-.033.021-.063.046-.061.048-.059.049-.108.1-.1.091-.042.039-.041.034-.036.028-.017.011-.016.009-.026.012-.027.011-.026.009-.026.007-.027.006-.027,0-.027,0-.027,0h-.054l-.028,0-.027,0-.028,0-.027,0-.056-.014-.056-.017-.056-.021-.055-.023-.055-.027-.056-.029-.054-.031-.109-.067-.1-.071-.1-.072-.191-.135-.086-.058-.041-.025-.039-.022-.038-.019-.035-.015-.018-.007-.016-.005-.017,0-.015,0,.013,0,.012,0,.012,0,.012-.006.005,0h.007l.019-.008.037-.018.039-.022.041-.024.088-.055.191-.13c.033-.023.067-.046.1-.069l.106-.068.108-.064.055-.03.056-.028.055-.026.057-.023.056-.02.056-.016.057-.012.027-.005.029,0,.027,0h.083l.027,0,.028,0,.027.005.027.006.027.007.027.009.026.011.026.012.017.009.017.01.018.013.019.015.04.033.043.038.095.089.108.1.06.049.062.05.065.046.034.022.035.021.036.02.036.019.038.018.039.016.039.016.041.013.041.012Z" transform="translate(-2105.385 -808.622)" fill="url(#linear-gradient-68)"/>
            </g>
            <g id="Group_3023" data-name="Group 3023" transform="translate(0 91.862)">
              <path id="Path_31812" data-name="Path 31812" d="M2053.292,881.436l.063-.02.064-.016.032-.007.008,0,.011,0,.021-.006.091-.023.094-.021.1-.02.2-.035.21-.031.215-.026.217-.023.216-.02.8-.059.317-.025.129-.014.055-.008.048-.008.073-.014.069-.015.066-.016.063-.017.059-.018.056-.019.052-.021.05-.021.048-.022.044-.023.04-.023.039-.024.036-.025.034-.026.031-.026.029-.027.027-.028.025-.028.023-.029.021-.029.018-.029.017-.03.016-.03.014-.031.011-.031.011-.032.009-.031.008-.032.007-.032.005-.032.009-.064.005-.064v-.063c0-.043,0-.084,0-.125s0-.081-.005-.12,0-.077,0-.113c0-.018,0-.036,0-.053l.005-.051,0-.024,0-.024.005-.023.006-.023.008-.021.01-.02.01-.019.011-.018.013-.018.015-.016.017-.016.018-.014-.027.009-.03.007-.032.007-.033.006-.018,0h-.013l-.02,0-.021-.006-.021-.008-.02-.009-.02-.011-.02-.012-.02-.013-.041-.03-.041-.033c-.028-.024-.055-.05-.084-.077l-.087-.083-.093-.083-.048-.041-.05-.038-.052-.036-.028-.016-.027-.015-.028-.015-.028-.013-.03-.012-.03-.011-.031-.009-.032-.008-.032-.006-.034,0-.033,0h-.071l-.036,0-.038.006-.039.008-.039.01-.041.013-.041.015-.043.018-.043.021-.044.023-.045.026-.047.029-.048.032-.049.036-.05.039-.051.042-.052.046-.054.05-.034.033-.039.038-.085.091c-.059.069-.126.147-.2.232l-.5.595-.143.162-.146.162-.149.16-.153.156-.153.148-.078.072-.077.068-.076.066-.078.062-.077.059Z" transform="translate(-2053.292 -878.857)" fill="url(#linear-gradient)"/>
            </g>
            <g id="Group_3024" data-name="Group 3024" transform="translate(37.246 92.381)">
              <path id="Path_31813" data-name="Path 31813" d="M2141.767,880.075l-.017.04-.015.044-.007.023,0,.009v.009l-.006.035-.005.035,0,.036v.107l0,.035.009.07.013.069.015.067c.011.044.023.087.034.128s.023.079.033.114c0,.018.01.034.014.051s.008.032.011.047,0,.014,0,.021,0,.014,0,.021a.157.157,0,0,0,0,.018v.017l0,.026,0,.026,0,.025-.007.026-.007.025-.008.025-.011.024-.01.023-.013.023-.014.023-.014.023-.016.023-.017.022-.017.021-.037.042-.041.041-.044.04-.047.038-.049.038-.051.036-.052.035-.108.067-.11.063-.109.061-.2.112-.09.053-.041.025-.038.026-.034.024-.029.024-.025.024-.012.012-.009.011,0-.011,0-.012,0-.012v-.02h0v0l0-.019c0-.013,0-.027,0-.041s0-.029,0-.044,0-.032,0-.048c0-.033,0-.067,0-.1,0-.072-.007-.15-.01-.231l0-.123,0-.126,0-.126,0-.063.005-.062.007-.061.008-.06.012-.058.013-.056.017-.055.02-.053.011-.025.012-.024.012-.023.014-.023.014-.023.016-.021.017-.021.018-.019.018-.019.021-.018.021-.017.022-.017.014-.009.017-.009.018-.009.02-.009.044-.017.05-.016.112-.035.125-.041.066-.024.066-.028.067-.032.033-.018.033-.019.033-.02.031-.021.031-.023.031-.024.03-.026.029-.027.029-.029Z" transform="translate(-2140.579 -880.075)" fill="url(#linear-gradient-97)"/>
            </g>
            <g id="Group_3025" data-name="Group 3025" transform="translate(53.33 120.909)">
              <path id="Path_31814" data-name="Path 31814" d="M2179.4,951.418l.01-.067.014-.064.008-.032,0-.008,0-.011,0-.022c.006-.029.013-.06.02-.091s.015-.061.023-.093l.024-.1.057-.2c.021-.067.042-.134.064-.2s.046-.135.071-.2l.075-.2c.026-.067.052-.135.076-.2l.3-.738c.042-.109.082-.208.116-.295.016-.044.03-.084.043-.121.007-.019.012-.036.018-.053s.011-.032.015-.047.013-.047.019-.071.011-.046.017-.069.009-.044.014-.065.009-.043.012-.064l.01-.061.007-.059.006-.056,0-.054v-.1l0-.047-.005-.046-.007-.043-.008-.042-.01-.04-.012-.038-.013-.036-.014-.034-.015-.033-.017-.031-.019-.03-.019-.028-.021-.026-.021-.026-.022-.024-.023-.023-.024-.022-.025-.021-.026-.02-.026-.019-.053-.035-.055-.032-.056-.029-.113-.053-.11-.049-.1-.049-.047-.025-.044-.026-.021-.014-.019-.014-.018-.015-.018-.016-.015-.017-.014-.017-.013-.017-.011-.019-.01-.02-.009-.02-.006-.022,0-.023,0,.029-.006.03-.008.031-.009.033-.006.017v.006h0l0,0-.012.017-.014.015-.016.015-.018.014-.018.014-.02.013-.02.013-.045.023-.049.021-.1.042-.113.042-.116.046-.057.026-.056.028-.055.032-.027.017-.026.018-.025.019-.025.02-.023.021-.022.022-.022.024-.021.025-.019.026-.019.028-.017.029-.016.031-.014.033-.013.034-.012.036-.009.038-.009.039-.007.042,0,.044,0,.046v.048l0,.049,0,.053.006.054.008.057.01.059c0,.02.009.041.014.061s.01.043.015.065l.017.067c.007.023.014.046.021.07l.015.046c.005.016.012.033.017.051l.045.116.119.282.312.713c.027.065.054.132.083.2s.053.134.081.2l.078.2.072.2c.023.067.044.135.066.2l.03.1.027.1.026.1.022.1.019.094Z" transform="translate(-2178.272 -946.931)" fill="url(#linear-gradient)"/>
            </g>
            <g id="Group_3026" data-name="Group 3026" transform="translate(68.373 92.405)">
              <path id="Path_31815" data-name="Path 31815" d="M2213.534,880.13l.029.033.031.034.017.017.008.006.007.006.03.023.03.021.031.019.032.019.033.017.035.016.034.015.07.026.071.023.07.02.136.032.124.026.054.013.049.013.022.007.02.007.018.008.016.008.024.014.023.016.021.016.021.018.019.018.019.019.017.02.016.021.015.023.015.023.013.023.012.025.012.025.011.026.02.054.017.055.014.058.011.059.01.061.007.062.005.063.007.127,0,.127c0,.042,0,.084,0,.125,0,.082,0,.161,0,.234,0,.036,0,.071,0,.1l0,.048c0,.015,0,.03,0,.045s0,.028.006.041,0,.026.007.038l0,.017,0,.017.006.015.006.014-.009-.008-.01-.008-.01-.007-.011-.006-.006,0h0l0,0-.017-.011-.035-.022-.039-.021-.042-.022-.094-.044-.211-.093-.114-.049-.114-.053-.113-.057-.054-.031-.054-.032-.051-.033-.05-.034-.047-.037-.044-.038-.041-.04-.019-.021-.019-.02-.017-.022-.017-.023-.015-.023-.014-.023-.013-.024-.013-.024-.011-.025-.009-.026-.008-.026-.008-.027-.005-.027,0-.028,0-.018v-.041c0-.008,0-.015,0-.023s0-.032.006-.049,0-.035.008-.055c.007-.038.013-.079.022-.122l.022-.138c0-.024.006-.049.009-.073l.007-.076,0-.078v-.039l0-.039,0-.039,0-.04-.006-.04-.007-.04-.009-.039-.011-.04-.012-.04Z" transform="translate(-2213.526 -880.13)" fill="url(#linear-gradient-73)"/>
            </g>
          </g>
          <g id="Group_3028" data-name="Group 3028" transform="translate(17.88 18.533)">
            <path id="Path_31816" data-name="Path 31816" d="M2178.523,883.083l-7.154,19.989-7.153-19.989Z" transform="translate(-2127.688 -800.319)" fill="url(#linear-gradient)"/>
            <path id="Path_31817" data-name="Path 31817" d="M2241.724,834.213l13.1,16.707-20.725-4.6Z" transform="translate(-2167.751 -772.302)" fill="url(#linear-gradient-140)"/>
            <path id="Path_31818" data-name="Path 31818" d="M2234.653,751.111l20.807-4.22-13.405,16.464Z" transform="translate(-2168.069 -722.241)" fill="url(#linear-gradient-141)"/>
            <path id="Path_31819" data-name="Path 31819" d="M2164.231,709.033l7.372-19.909,6.934,20.066Z" transform="translate(-2127.697 -689.124)" fill="url(#linear-gradient-142)"/>
            <path id="Path_31820" data-name="Path 31820" d="M2091.929,762.442l-13.048-16.748,20.711,4.666Z" transform="translate(-2078.766 -721.555)" fill="url(#linear-gradient-143)"/>
            <path id="Path_31821" data-name="Path 31821" d="M2099.4,846.415l-20.788,4.308,13.334-16.52Z" transform="translate(-2078.612 -772.296)" fill="url(#linear-gradient-144)"/>
          </g>
          <g id="Group_3031" data-name="Group 3031" transform="translate(28.871 37.125)">
            <ellipse id="Ellipse_249" data-name="Ellipse 249" cx="32.969" cy="32.875" rx="32.969" ry="32.875" fill="url(#linear-gradient-145)"/>
            <ellipse id="Ellipse_250" data-name="Ellipse 250" cx="31.316" cy="31.226" rx="31.316" ry="31.226" transform="translate(1.653 1.648)" fill="url(#linear-gradient-146)"/>
            <ellipse id="Ellipse_251" data-name="Ellipse 251" cx="29.859" cy="29.774" rx="29.859" ry="29.774" transform="translate(3.109 3.101)" fill="url(#linear-gradient-147)"/>
          </g>
        </g>
      </g>
    </g>
    <path id="Icon_ionic-ios-person" data-name="Icon ionic-ios-person" d="M50.934,49.785c-.871-3.847-5.844-5.723-7.562-6.328-1.887-.665-4.573-.823-6.3-1.21A6.4,6.4,0,0,1,34.153,40.9c-.484-.581-.194-5.965-.194-5.965a17.945,17.945,0,0,0,1.379-2.625,33.864,33.864,0,0,0,1.016-4.585s.992,0,1.343-1.742c.375-1.9.968-2.637.9-4.053-.073-1.391-.835-1.355-.835-1.355a21.212,21.212,0,0,0,.823-6.207C38.69,9.4,34.794,4.5,27.741,4.5c-7.15,0-10.961,4.9-10.852,9.872a22.126,22.126,0,0,0,.811,6.207s-.762-.036-.835,1.355c-.073,1.416.52,2.154.9,4.053.339,1.742,1.343,1.742,1.343,1.742a33.863,33.863,0,0,0,1.016,4.585A17.945,17.945,0,0,0,21.5,34.94s.29,5.384-.194,5.965a6.4,6.4,0,0,1-2.916,1.343c-1.73.387-4.416.544-6.3,1.21-1.718.6-6.691,2.48-7.562,6.328a.967.967,0,0,0,.956,1.174s1.941,3.918,7.506,6.585,14.755,4.084,14.755,4.084S36.434,60.211,42,57.543a20.05,20.05,0,0,0,7.994-6.585A.965.965,0,0,0,50.934,49.785Z" transform="translate(4030.973 6942.936)" fill="url(#radial-gradient)"/>
  </g>
</svg>
