<svg xmlns="http://www.w3.org/2000/svg" width="40" height="40" viewBox="0 0 40 40">
    <g id="prefix__icons8-vk_com-50" transform="translate(-6 -6)">
        <path id="prefix__Path_215" d="M46 40.444A5.555 5.555 0 0 1 40.444 46H11.556A5.555 5.555 0 0 1 6 40.444V11.556A5.555 5.555 0 0 1 11.556 6h28.888A5.555 5.555 0 0 1 46 11.556z" data-name="Path 215" style="fill:#1976d2"/>
        <path id="prefix__Path_216" d="M39.926 18.041a1.08 1.08 0 0 0 .074-.416c-.018-.362-.308-.625-.992-.625h-3.055a1.374 1.374 0 0 0-1.335.8 31.2 31.2 0 0 1-4.1 5.574 1.8 1.8 0 0 1-1.457.626.794.794 0 0 1-.728-.8v-5.186c0-.694-.2-1.014-.854-1.014h-5.424a.659.659 0 0 0-.722.641c0 .667 1.048.827 1.167 2.7v3.619c0 .88-.178 1.04-.563 1.04-1.038 0-3.082-3-4.451-6.932-.3-.774-.593-1.068-1.364-1.068h-3.084c-.89 0-1.038.374-1.038.774 0 .721.7 4.619 4.521 9.1C19.292 30.125 22.942 32 26.174 32c1.958 0 2.158-.427 2.158-1.094v-2.972c0-.8.215-.934.838-.934.444 0 1.351.25 3.1 2 2.018 2.018 2.385 3 3.542 3h3.054c.709 0 1.117-.255 1.133-.75a1.336 1.336 0 0 0-.065-.424 14.759 14.759 0 0 0-2.56-3.326c-.718-.743-1.426-1.479-1.751-1.879a.917.917 0 0 1-.29-.621 1.3 1.3 0 0 1 .291-.607c-.031 0 3.917-4.751 4.302-6.352z" data-name="Path 216" transform="translate(0 2.095)" style="fill:#fff"/>
    </g>
</svg>
