<svg xmlns="http://www.w3.org/2000/svg" width="30" height="29.889" viewBox="0 0 30 29.889">
    <defs>
        <style>
            .prefix__cls-2{fill:#006bb3;fill-rule:evenodd}
        </style>
    </defs>
    <g id="prefix__logo_webmoney_50e2297b2b595415eb9675ee2c826648" transform="translate(-.032)" style="mix-blend-mode:luminosity;isolation:isolate">
        <path id="prefix__Path_180" d="M14.97 0a14.842 14.842 0 0 1 6.552 1.508q.468.22.932.489l-1.376 1.24L19.009 1.1l-3.49 3.122-2.072-2.27L6.961 7.81l4.154 4.59-1.638 1.44 4.106 4.6-1.63 1.44 5.867 6.528L21.3 23.2l3.017 3.436a15.958 15.958 0 0 1-1.973 1.306A14.945 14.945 0 1 1 14.97 0z" class="prefix__cls-2" data-name="Path 180"/>
        <path id="prefix__Path_181" d="M34.633 21.8l3.557-3.2 3.2 3.557-3.554 3.2zm2.528 6.145l3.557-3.2 3.2 3.554-3.554 3.2zM32.09 15.727l3.557-3.2 3.2 3.557-3.554 3.2zM38.615 14l2.664-2.4 2.4 2.667-2.667 2.4zm4.736 11l2.667-2.4 2.4 2.667-2.667 2.4-2.4-2.667zm2.349 5.385l2.667-2.4 2.4 2.667-2.667 2.4zm1.074-12.341l1.777-1.6 1.6 1.777-1.777 1.6zM44.5 12.762l1.777-1.6 1.6 1.78-1.777 1.6-1.6-1.777zm4.543 10.561l1.777-1.6 1.6 1.777-1.777 1.6zm-7.973-3.958l2.667-2.4 2.4 2.667-2.667 2.4-2.4-2.667z" class="prefix__cls-2" data-name="Path 181" transform="translate(-22.387 -7.793)"/>
    </g>
</svg>
