<svg xmlns="http://www.w3.org/2000/svg" width="46.783" height="35" viewBox="0 0 46.783 35">
    <g id="prefix__icons8-play-button-50" transform="translate(-4 -9)">
        <path id="prefix__Path_213" d="M49.733 38.05a5.825 5.825 0 0 1-4.9 4.667A121.422 121.422 0 0 1 27.333 44a124.312 124.312 0 0 1-17.5-1.283 5.825 5.825 0 0 1-4.9-4.667A68.284 68.284 0 0 1 4 26.5a68.284 68.284 0 0 1 .933-11.55 5.825 5.825 0 0 1 4.9-4.667A121.422 121.422 0 0 1 27.333 9a122.855 122.855 0 0 1 17.5 1.283 5.825 5.825 0 0 1 4.9 4.667 66.185 66.185 0 0 1 1.05 11.55 80.121 80.121 0 0 1-1.05 11.55z" data-name="Path 213" style="fill:#ff3d00"/>
        <path id="prefix__Path_214" d="M20 31V17l12 7z" data-name="Path 214" transform="translate(3.805 2.5)" style="fill:#fff"/>
    </g>
</svg>
